<?xml version="1.0" encoding="utf-8" standalone="no"?>
<!DOCTYPE svg PUBLIC "-//W3C//DTD SVG 1.1//EN"
  "http://www.w3.org/Graphics/SVG/1.1/DTD/svg11.dtd">
<svg xmlns:xlink="http://www.w3.org/1999/xlink" width="1105.92pt" height="577.728pt" viewBox="0 0 1105.92 577.728" xmlns="http://www.w3.org/2000/svg" version="1.1">
 <metadata>
  <rdf:RDF xmlns:dc="http://purl.org/dc/elements/1.1/" xmlns:cc="http://creativecommons.org/ns#" xmlns:rdf="http://www.w3.org/1999/02/22-rdf-syntax-ns#">
   <cc:Work>
    <dc:type rdf:resource="http://purl.org/dc/dcmitype/StillImage"/>
    <dc:date>2026-07-18T00:39:28.165561</dc:date>
    <dc:format>image/svg+xml</dc:format>
    <dc:creator>
     <cc:Agent>
      <dc:title>Matplotlib v3.9.0, https://matplotlib.org/</dc:title>
     </cc:Agent>
    </dc:creator>
   </cc:Work>
  </rdf:RDF>
 </metadata>
 <defs>
  <style type="text/css">*{stroke-linejoin: round; stroke-linecap: butt}</style>
 </defs>
 <g id="figure_1">
  <g id="patch_1">
   <path d="M 0 577.728 
L 1105.92 577.728 
L 1105.92 0 
L 0 0 
z
"/>
  </g>
  <g id="axes_1">
   <g id="patch_2">
    <path d="M 50.556343 540.313234 
L 1093.280914 540.313234 
L 1093.280914 26.410423 
L 50.556343 26.410423 
z
"/>
   </g>
   <g id="matplotlib.axis_1">
    <g id="xtick_1">
     <g id="line2d_1">
      <defs>
       <path id="mdeba6e9e3f" d="M 0 0 
L 0 3.5 
" style="stroke: #ffffff; stroke-width: 0.8"/>
      </defs>
      <g>
       <use xlink:href="#mdeba6e9e3f" x="97.952914" y="540.313234" style="fill: #ffffff; stroke: #ffffff; stroke-width: 0.8"/>
      </g>
     </g>
     <g id="text_1">
      <!-- 2 -->
      <g style="fill: #ffffff" transform="translate(94.771664 554.911672) scale(0.1 -0.1)">
       <defs>
        <path id="DejaVuSans-32" d="M 1228 531 
L 3431 531 
L 3431 0 
L 469 0 
L 469 531 
Q 828 903 1448 1529 
Q 2069 2156 2228 2338 
Q 2531 2678 2651 2914 
Q 2772 3150 2772 3378 
Q 2772 3750 2511 3984 
Q 2250 4219 1831 4219 
Q 1534 4219 1204 4116 
Q 875 4013 500 3803 
L 500 4441 
Q 881 4594 1212 4672 
Q 1544 4750 1819 4750 
Q 2544 4750 2975 4387 
Q 3406 4025 3406 3419 
Q 3406 3131 3298 2873 
Q 3191 2616 2906 2266 
Q 2828 2175 2409 1742 
Q 1991 1309 1228 531 
z
" transform="scale(0.015625)"/>
       </defs>
       <use xlink:href="#DejaVuSans-32"/>
      </g>
     </g>
    </g>
    <g id="xtick_2">
     <g id="line2d_2">
      <g>
       <use xlink:href="#mdeba6e9e3f" x="287.5392" y="540.313234" style="fill: #ffffff; stroke: #ffffff; stroke-width: 0.8"/>
      </g>
     </g>
     <g id="text_2">
      <!-- 4 -->
      <g style="fill: #ffffff" transform="translate(284.35795 554.911672) scale(0.1 -0.1)">
       <defs>
        <path id="DejaVuSans-34" d="M 2419 4116 
L 825 1625 
L 2419 1625 
L 2419 4116 
z
M 2253 4666 
L 3047 4666 
L 3047 1625 
L 3713 1625 
L 3713 1100 
L 3047 1100 
L 3047 0 
L 2419 0 
L 2419 1100 
L 313 1100 
L 313 1709 
L 2253 4666 
z
" transform="scale(0.015625)"/>
       </defs>
       <use xlink:href="#DejaVuSans-34"/>
      </g>
     </g>
    </g>
    <g id="xtick_3">
     <g id="line2d_3">
      <g>
       <use xlink:href="#mdeba6e9e3f" x="477.125486" y="540.313234" style="fill: #ffffff; stroke: #ffffff; stroke-width: 0.8"/>
      </g>
     </g>
     <g id="text_3">
      <!-- 6 -->
      <g style="fill: #ffffff" transform="translate(473.944236 554.911672) scale(0.1 -0.1)">
       <defs>
        <path id="DejaVuSans-36" d="M 2113 2584 
Q 1688 2584 1439 2293 
Q 1191 2003 1191 1497 
Q 1191 994 1439 701 
Q 1688 409 2113 409 
Q 2538 409 2786 701 
Q 3034 994 3034 1497 
Q 3034 2003 2786 2293 
Q 2538 2584 2113 2584 
z
M 3366 4563 
L 3366 3988 
Q 3128 4100 2886 4159 
Q 2644 4219 2406 4219 
Q 1781 4219 1451 3797 
Q 1122 3375 1075 2522 
Q 1259 2794 1537 2939 
Q 1816 3084 2150 3084 
Q 2853 3084 3261 2657 
Q 3669 2231 3669 1497 
Q 3669 778 3244 343 
Q 2819 -91 2113 -91 
Q 1303 -91 875 529 
Q 447 1150 447 2328 
Q 447 3434 972 4092 
Q 1497 4750 2381 4750 
Q 2619 4750 2861 4703 
Q 3103 4656 3366 4563 
z
" transform="scale(0.015625)"/>
       </defs>
       <use xlink:href="#DejaVuSans-36"/>
      </g>
     </g>
    </g>
    <g id="xtick_4">
     <g id="line2d_4">
      <g>
       <use xlink:href="#mdeba6e9e3f" x="666.711771" y="540.313234" style="fill: #ffffff; stroke: #ffffff; stroke-width: 0.8"/>
      </g>
     </g>
     <g id="text_4">
      <!-- 8 -->
      <g style="fill: #ffffff" transform="translate(663.530521 554.911672) scale(0.1 -0.1)">
       <defs>
        <path id="DejaVuSans-38" d="M 2034 2216 
Q 1584 2216 1326 1975 
Q 1069 1734 1069 1313 
Q 1069 891 1326 650 
Q 1584 409 2034 409 
Q 2484 409 2743 651 
Q 3003 894 3003 1313 
Q 3003 1734 2745 1975 
Q 2488 2216 2034 2216 
z
M 1403 2484 
Q 997 2584 770 2862 
Q 544 3141 544 3541 
Q 544 4100 942 4425 
Q 1341 4750 2034 4750 
Q 2731 4750 3128 4425 
Q 3525 4100 3525 3541 
Q 3525 3141 3298 2862 
Q 3072 2584 2669 2484 
Q 3125 2378 3379 2068 
Q 3634 1759 3634 1313 
Q 3634 634 3220 271 
Q 2806 -91 2034 -91 
Q 1263 -91 848 271 
Q 434 634 434 1313 
Q 434 1759 690 2068 
Q 947 2378 1403 2484 
z
M 1172 3481 
Q 1172 3119 1398 2916 
Q 1625 2713 2034 2713 
Q 2441 2713 2670 2916 
Q 2900 3119 2900 3481 
Q 2900 3844 2670 4047 
Q 2441 4250 2034 4250 
Q 1625 4250 1398 4047 
Q 1172 3844 1172 3481 
z
" transform="scale(0.015625)"/>
       </defs>
       <use xlink:href="#DejaVuSans-38"/>
      </g>
     </g>
    </g>
    <g id="xtick_5">
     <g id="line2d_5">
      <g>
       <use xlink:href="#mdeba6e9e3f" x="856.298057" y="540.313234" style="fill: #ffffff; stroke: #ffffff; stroke-width: 0.8"/>
      </g>
     </g>
     <g id="text_5">
      <!-- 10 -->
      <g style="fill: #ffffff" transform="translate(849.935557 554.911672) scale(0.1 -0.1)">
       <defs>
        <path id="DejaVuSans-31" d="M 794 531 
L 1825 531 
L 1825 4091 
L 703 3866 
L 703 4441 
L 1819 4666 
L 2450 4666 
L 2450 531 
L 3481 531 
L 3481 0 
L 794 0 
L 794 531 
z
" transform="scale(0.015625)"/>
        <path id="DejaVuSans-30" d="M 2034 4250 
Q 1547 4250 1301 3770 
Q 1056 3291 1056 2328 
Q 1056 1369 1301 889 
Q 1547 409 2034 409 
Q 2525 409 2770 889 
Q 3016 1369 3016 2328 
Q 3016 3291 2770 3770 
Q 2525 4250 2034 4250 
z
M 2034 4750 
Q 2819 4750 3233 4129 
Q 3647 3509 3647 2328 
Q 3647 1150 3233 529 
Q 2819 -91 2034 -91 
Q 1250 -91 836 529 
Q 422 1150 422 2328 
Q 422 3509 836 4129 
Q 1250 4750 2034 4750 
z
" transform="scale(0.015625)"/>
       </defs>
       <use xlink:href="#DejaVuSans-31"/>
       <use xlink:href="#DejaVuSans-30" x="63.623047"/>
      </g>
     </g>
    </g>
    <g id="xtick_6">
     <g id="line2d_6">
      <g>
       <use xlink:href="#mdeba6e9e3f" x="1045.884343" y="540.313234" style="fill: #ffffff; stroke: #ffffff; stroke-width: 0.8"/>
      </g>
     </g>
     <g id="text_6">
      <!-- 12 -->
      <g style="fill: #ffffff" transform="translate(1039.521843 554.911672) scale(0.1 -0.1)">
       <use xlink:href="#DejaVuSans-31"/>
       <use xlink:href="#DejaVuSans-32" x="63.623047"/>
      </g>
     </g>
    </g>
    <g id="text_7">
     <!-- log10(Number of runs) -->
     <g style="fill: #ffffff" transform="translate(514.95066 568.589797) scale(0.1 -0.1)">
      <defs>
       <path id="DejaVuSans-6c" d="M 603 4863 
L 1178 4863 
L 1178 0 
L 603 0 
L 603 4863 
z
" transform="scale(0.015625)"/>
       <path id="DejaVuSans-6f" d="M 1959 3097 
Q 1497 3097 1228 2736 
Q 959 2375 959 1747 
Q 959 1119 1226 758 
Q 1494 397 1959 397 
Q 2419 397 2687 759 
Q 2956 1122 2956 1747 
Q 2956 2369 2687 2733 
Q 2419 3097 1959 3097 
z
M 1959 3584 
Q 2709 3584 3137 3096 
Q 3566 2609 3566 1747 
Q 3566 888 3137 398 
Q 2709 -91 1959 -91 
Q 1206 -91 779 398 
Q 353 888 353 1747 
Q 353 2609 779 3096 
Q 1206 3584 1959 3584 
z
" transform="scale(0.015625)"/>
       <path id="DejaVuSans-67" d="M 2906 1791 
Q 2906 2416 2648 2759 
Q 2391 3103 1925 3103 
Q 1463 3103 1205 2759 
Q 947 2416 947 1791 
Q 947 1169 1205 825 
Q 1463 481 1925 481 
Q 2391 481 2648 825 
Q 2906 1169 2906 1791 
z
M 3481 434 
Q 3481 -459 3084 -895 
Q 2688 -1331 1869 -1331 
Q 1566 -1331 1297 -1286 
Q 1028 -1241 775 -1147 
L 775 -588 
Q 1028 -725 1275 -790 
Q 1522 -856 1778 -856 
Q 2344 -856 2625 -561 
Q 2906 -266 2906 331 
L 2906 616 
Q 2728 306 2450 153 
Q 2172 0 1784 0 
Q 1141 0 747 490 
Q 353 981 353 1791 
Q 353 2603 747 3093 
Q 1141 3584 1784 3584 
Q 2172 3584 2450 3431 
Q 2728 3278 2906 2969 
L 2906 3500 
L 3481 3500 
L 3481 434 
z
" transform="scale(0.015625)"/>
       <path id="DejaVuSans-28" d="M 1984 4856 
Q 1566 4138 1362 3434 
Q 1159 2731 1159 2009 
Q 1159 1288 1364 580 
Q 1569 -128 1984 -844 
L 1484 -844 
Q 1016 -109 783 600 
Q 550 1309 550 2009 
Q 550 2706 781 3412 
Q 1013 4119 1484 4856 
L 1984 4856 
z
" transform="scale(0.015625)"/>
       <path id="DejaVuSans-4e" d="M 628 4666 
L 1478 4666 
L 3547 763 
L 3547 4666 
L 4159 4666 
L 4159 0 
L 3309 0 
L 1241 3903 
L 1241 0 
L 628 0 
L 628 4666 
z
" transform="scale(0.015625)"/>
       <path id="DejaVuSans-75" d="M 544 1381 
L 544 3500 
L 1119 3500 
L 1119 1403 
Q 1119 906 1312 657 
Q 1506 409 1894 409 
Q 2359 409 2629 706 
Q 2900 1003 2900 1516 
L 2900 3500 
L 3475 3500 
L 3475 0 
L 2900 0 
L 2900 538 
Q 2691 219 2414 64 
Q 2138 -91 1772 -91 
Q 1169 -91 856 284 
Q 544 659 544 1381 
z
M 1991 3584 
L 1991 3584 
z
" transform="scale(0.015625)"/>
       <path id="DejaVuSans-6d" d="M 3328 2828 
Q 3544 3216 3844 3400 
Q 4144 3584 4550 3584 
Q 5097 3584 5394 3201 
Q 5691 2819 5691 2113 
L 5691 0 
L 5113 0 
L 5113 2094 
Q 5113 2597 4934 2840 
Q 4756 3084 4391 3084 
Q 3944 3084 3684 2787 
Q 3425 2491 3425 1978 
L 3425 0 
L 2847 0 
L 2847 2094 
Q 2847 2600 2669 2842 
Q 2491 3084 2119 3084 
Q 1678 3084 1418 2786 
Q 1159 2488 1159 1978 
L 1159 0 
L 581 0 
L 581 3500 
L 1159 3500 
L 1159 2956 
Q 1356 3278 1631 3431 
Q 1906 3584 2284 3584 
Q 2666 3584 2933 3390 
Q 3200 3197 3328 2828 
z
" transform="scale(0.015625)"/>
       <path id="DejaVuSans-62" d="M 3116 1747 
Q 3116 2381 2855 2742 
Q 2594 3103 2138 3103 
Q 1681 3103 1420 2742 
Q 1159 2381 1159 1747 
Q 1159 1113 1420 752 
Q 1681 391 2138 391 
Q 2594 391 2855 752 
Q 3116 1113 3116 1747 
z
M 1159 2969 
Q 1341 3281 1617 3432 
Q 1894 3584 2278 3584 
Q 2916 3584 3314 3078 
Q 3713 2572 3713 1747 
Q 3713 922 3314 415 
Q 2916 -91 2278 -91 
Q 1894 -91 1617 61 
Q 1341 213 1159 525 
L 1159 0 
L 581 0 
L 581 4863 
L 1159 4863 
L 1159 2969 
z
" transform="scale(0.015625)"/>
       <path id="DejaVuSans-65" d="M 3597 1894 
L 3597 1613 
L 953 1613 
Q 991 1019 1311 708 
Q 1631 397 2203 397 
Q 2534 397 2845 478 
Q 3156 559 3463 722 
L 3463 178 
Q 3153 47 2828 -22 
Q 2503 -91 2169 -91 
Q 1331 -91 842 396 
Q 353 884 353 1716 
Q 353 2575 817 3079 
Q 1281 3584 2069 3584 
Q 2775 3584 3186 3129 
Q 3597 2675 3597 1894 
z
M 3022 2063 
Q 3016 2534 2758 2815 
Q 2500 3097 2075 3097 
Q 1594 3097 1305 2825 
Q 1016 2553 972 2059 
L 3022 2063 
z
" transform="scale(0.015625)"/>
       <path id="DejaVuSans-72" d="M 2631 2963 
Q 2534 3019 2420 3045 
Q 2306 3072 2169 3072 
Q 1681 3072 1420 2755 
Q 1159 2438 1159 1844 
L 1159 0 
L 581 0 
L 581 3500 
L 1159 3500 
L 1159 2956 
Q 1341 3275 1631 3429 
Q 1922 3584 2338 3584 
Q 2397 3584 2469 3576 
Q 2541 3569 2628 3553 
L 2631 2963 
z
" transform="scale(0.015625)"/>
       <path id="DejaVuSans-20" transform="scale(0.015625)"/>
       <path id="DejaVuSans-66" d="M 2375 4863 
L 2375 4384 
L 1825 4384 
Q 1516 4384 1395 4259 
Q 1275 4134 1275 3809 
L 1275 3500 
L 2222 3500 
L 2222 3053 
L 1275 3053 
L 1275 0 
L 697 0 
L 697 3053 
L 147 3053 
L 147 3500 
L 697 3500 
L 697 3744 
Q 697 4328 969 4595 
Q 1241 4863 1831 4863 
L 2375 4863 
z
" transform="scale(0.015625)"/>
       <path id="DejaVuSans-6e" d="M 3513 2113 
L 3513 0 
L 2938 0 
L 2938 2094 
Q 2938 2591 2744 2837 
Q 2550 3084 2163 3084 
Q 1697 3084 1428 2787 
Q 1159 2491 1159 1978 
L 1159 0 
L 581 0 
L 581 3500 
L 1159 3500 
L 1159 2956 
Q 1366 3272 1645 3428 
Q 1925 3584 2291 3584 
Q 2894 3584 3203 3211 
Q 3513 2838 3513 2113 
z
" transform="scale(0.015625)"/>
       <path id="DejaVuSans-73" d="M 2834 3397 
L 2834 2853 
Q 2591 2978 2328 3040 
Q 2066 3103 1784 3103 
Q 1356 3103 1142 2972 
Q 928 2841 928 2578 
Q 928 2378 1081 2264 
Q 1234 2150 1697 2047 
L 1894 2003 
Q 2506 1872 2764 1633 
Q 3022 1394 3022 966 
Q 3022 478 2636 193 
Q 2250 -91 1575 -91 
Q 1294 -91 989 -36 
Q 684 19 347 128 
L 347 722 
Q 666 556 975 473 
Q 1284 391 1588 391 
Q 1994 391 2212 530 
Q 2431 669 2431 922 
Q 2431 1156 2273 1281 
Q 2116 1406 1581 1522 
L 1381 1569 
Q 847 1681 609 1914 
Q 372 2147 372 2553 
Q 372 3047 722 3315 
Q 1072 3584 1716 3584 
Q 2034 3584 2315 3537 
Q 2597 3491 2834 3397 
z
" transform="scale(0.015625)"/>
       <path id="DejaVuSans-29" d="M 513 4856 
L 1013 4856 
Q 1481 4119 1714 3412 
Q 1947 2706 1947 2009 
Q 1947 1309 1714 600 
Q 1481 -109 1013 -844 
L 513 -844 
Q 928 -128 1133 580 
Q 1338 1288 1338 2009 
Q 1338 2731 1133 3434 
Q 928 4138 513 4856 
z
" transform="scale(0.015625)"/>
      </defs>
      <use xlink:href="#DejaVuSans-6c"/>
      <use xlink:href="#DejaVuSans-6f" x="27.783203"/>
      <use xlink:href="#DejaVuSans-67" x="88.964844"/>
      <use xlink:href="#DejaVuSans-31" x="152.441406"/>
      <use xlink:href="#DejaVuSans-30" x="216.064453"/>
      <use xlink:href="#DejaVuSans-28" x="279.6875"/>
      <use xlink:href="#DejaVuSans-4e" x="318.701172"/>
      <use xlink:href="#DejaVuSans-75" x="393.505859"/>
      <use xlink:href="#DejaVuSans-6d" x="456.884766"/>
      <use xlink:href="#DejaVuSans-62" x="554.296875"/>
      <use xlink:href="#DejaVuSans-65" x="617.773438"/>
      <use xlink:href="#DejaVuSans-72" x="679.296875"/>
      <use xlink:href="#DejaVuSans-20" x="720.410156"/>
      <use xlink:href="#DejaVuSans-6f" x="752.197266"/>
      <use xlink:href="#DejaVuSans-66" x="813.378906"/>
      <use xlink:href="#DejaVuSans-20" x="848.583984"/>
      <use xlink:href="#DejaVuSans-72" x="880.371094"/>
      <use xlink:href="#DejaVuSans-75" x="921.484375"/>
      <use xlink:href="#DejaVuSans-6e" x="984.863281"/>
      <use xlink:href="#DejaVuSans-73" x="1048.242188"/>
      <use xlink:href="#DejaVuSans-29" x="1100.341797"/>
     </g>
    </g>
   </g>
   <g id="matplotlib.axis_2">
    <g id="ytick_1">
     <g id="line2d_7">
      <defs>
       <path id="m68ca4e0a25" d="M 0 0 
L -3.5 0 
" style="stroke: #ffffff; stroke-width: 0.8"/>
      </defs>
      <g>
       <use xlink:href="#m68ca4e0a25" x="50.556343" y="491.342964" style="fill: #ffffff; stroke: #ffffff; stroke-width: 0.8"/>
      </g>
     </g>
     <g id="text_8">
      <!-- −9 -->
      <g style="fill: #ffffff" transform="translate(28.814155 495.142183) scale(0.1 -0.1)">
       <defs>
        <path id="DejaVuSans-2212" d="M 678 2272 
L 4684 2272 
L 4684 1741 
L 678 1741 
L 678 2272 
z
" transform="scale(0.015625)"/>
        <path id="DejaVuSans-39" d="M 703 97 
L 703 672 
Q 941 559 1184 500 
Q 1428 441 1663 441 
Q 2288 441 2617 861 
Q 2947 1281 2994 2138 
Q 2813 1869 2534 1725 
Q 2256 1581 1919 1581 
Q 1219 1581 811 2004 
Q 403 2428 403 3163 
Q 403 3881 828 4315 
Q 1253 4750 1959 4750 
Q 2769 4750 3195 4129 
Q 3622 3509 3622 2328 
Q 3622 1225 3098 567 
Q 2575 -91 1691 -91 
Q 1453 -91 1209 -44 
Q 966 3 703 97 
z
M 1959 2075 
Q 2384 2075 2632 2365 
Q 2881 2656 2881 3163 
Q 2881 3666 2632 3958 
Q 2384 4250 1959 4250 
Q 1534 4250 1286 3958 
Q 1038 3666 1038 3163 
Q 1038 2656 1286 2365 
Q 1534 2075 1959 2075 
z
" transform="scale(0.015625)"/>
       </defs>
       <use xlink:href="#DejaVuSans-2212"/>
       <use xlink:href="#DejaVuSans-39" x="83.789062"/>
      </g>
     </g>
    </g>
    <g id="ytick_2">
     <g id="line2d_8">
      <g>
       <use xlink:href="#m68ca4e0a25" x="50.556343" y="424.807113" style="fill: #ffffff; stroke: #ffffff; stroke-width: 0.8"/>
      </g>
     </g>
     <g id="text_9">
      <!-- −8 -->
      <g style="fill: #ffffff" transform="translate(28.814155 428.606332) scale(0.1 -0.1)">
       <use xlink:href="#DejaVuSans-2212"/>
       <use xlink:href="#DejaVuSans-38" x="83.789062"/>
      </g>
     </g>
    </g>
    <g id="ytick_3">
     <g id="line2d_9">
      <g>
       <use xlink:href="#m68ca4e0a25" x="50.556343" y="358.271262" style="fill: #ffffff; stroke: #ffffff; stroke-width: 0.8"/>
      </g>
     </g>
     <g id="text_10">
      <!-- −7 -->
      <g style="fill: #ffffff" transform="translate(28.814155 362.070481) scale(0.1 -0.1)">
       <defs>
        <path id="DejaVuSans-37" d="M 525 4666 
L 3525 4666 
L 3525 4397 
L 1831 0 
L 1172 0 
L 2766 4134 
L 525 4134 
L 525 4666 
z
" transform="scale(0.015625)"/>
       </defs>
       <use xlink:href="#DejaVuSans-2212"/>
       <use xlink:href="#DejaVuSans-37" x="83.789062"/>
      </g>
     </g>
    </g>
    <g id="ytick_4">
     <g id="line2d_10">
      <g>
       <use xlink:href="#m68ca4e0a25" x="50.556343" y="291.735411" style="fill: #ffffff; stroke: #ffffff; stroke-width: 0.8"/>
      </g>
     </g>
     <g id="text_11">
      <!-- −6 -->
      <g style="fill: #ffffff" transform="translate(28.814155 295.53463) scale(0.1 -0.1)">
       <use xlink:href="#DejaVuSans-2212"/>
       <use xlink:href="#DejaVuSans-36" x="83.789062"/>
      </g>
     </g>
    </g>
    <g id="ytick_5">
     <g id="line2d_11">
      <g>
       <use xlink:href="#m68ca4e0a25" x="50.556343" y="225.19956" style="fill: #ffffff; stroke: #ffffff; stroke-width: 0.8"/>
      </g>
     </g>
     <g id="text_12">
      <!-- −5 -->
      <g style="fill: #ffffff" transform="translate(28.814155 228.998779) scale(0.1 -0.1)">
       <defs>
        <path id="DejaVuSans-35" d="M 691 4666 
L 3169 4666 
L 3169 4134 
L 1269 4134 
L 1269 2991 
Q 1406 3038 1543 3061 
Q 1681 3084 1819 3084 
Q 2600 3084 3056 2656 
Q 3513 2228 3513 1497 
Q 3513 744 3044 326 
Q 2575 -91 1722 -91 
Q 1428 -91 1123 -41 
Q 819 9 494 109 
L 494 744 
Q 775 591 1075 516 
Q 1375 441 1709 441 
Q 2250 441 2565 725 
Q 2881 1009 2881 1497 
Q 2881 1984 2565 2268 
Q 2250 2553 1709 2553 
Q 1456 2553 1204 2497 
Q 953 2441 691 2322 
L 691 4666 
z
" transform="scale(0.015625)"/>
       </defs>
       <use xlink:href="#DejaVuSans-2212"/>
       <use xlink:href="#DejaVuSans-35" x="83.789062"/>
      </g>
     </g>
    </g>
    <g id="ytick_6">
     <g id="line2d_12">
      <g>
       <use xlink:href="#m68ca4e0a25" x="50.556343" y="158.663709" style="fill: #ffffff; stroke: #ffffff; stroke-width: 0.8"/>
      </g>
     </g>
     <g id="text_13">
      <!-- −4 -->
      <g style="fill: #ffffff" transform="translate(28.814155 162.462928) scale(0.1 -0.1)">
       <use xlink:href="#DejaVuSans-2212"/>
       <use xlink:href="#DejaVuSans-34" x="83.789062"/>
      </g>
     </g>
    </g>
    <g id="ytick_7">
     <g id="line2d_13">
      <g>
       <use xlink:href="#m68ca4e0a25" x="50.556343" y="92.127858" style="fill: #ffffff; stroke: #ffffff; stroke-width: 0.8"/>
      </g>
     </g>
     <g id="text_14">
      <!-- −3 -->
      <g style="fill: #ffffff" transform="translate(28.814155 95.927077) scale(0.1 -0.1)">
       <defs>
        <path id="DejaVuSans-33" d="M 2597 2516 
Q 3050 2419 3304 2112 
Q 3559 1806 3559 1356 
Q 3559 666 3084 287 
Q 2609 -91 1734 -91 
Q 1441 -91 1130 -33 
Q 819 25 488 141 
L 488 750 
Q 750 597 1062 519 
Q 1375 441 1716 441 
Q 2309 441 2620 675 
Q 2931 909 2931 1356 
Q 2931 1769 2642 2001 
Q 2353 2234 1838 2234 
L 1294 2234 
L 1294 2753 
L 1863 2753 
Q 2328 2753 2575 2939 
Q 2822 3125 2822 3475 
Q 2822 3834 2567 4026 
Q 2313 4219 1838 4219 
Q 1578 4219 1281 4162 
Q 984 4106 628 3988 
L 628 4550 
Q 988 4650 1302 4700 
Q 1616 4750 1894 4750 
Q 2613 4750 3031 4423 
Q 3450 4097 3450 3541 
Q 3450 3153 3228 2886 
Q 3006 2619 2597 2516 
z
" transform="scale(0.015625)"/>
       </defs>
       <use xlink:href="#DejaVuSans-2212"/>
       <use xlink:href="#DejaVuSans-33" x="83.789062"/>
      </g>
     </g>
    </g>
    <g id="text_15">
     <!-- log10(|proportion - final proportion|) -->
     <g style="fill: #ffffff" transform="translate(22.456343 374.045422) rotate(-90) scale(0.1 -0.1)">
      <defs>
       <path id="DejaVuSans-7c" d="M 1344 4891 
L 1344 -1509 
L 813 -1509 
L 813 4891 
L 1344 4891 
z
" transform="scale(0.015625)"/>
       <path id="DejaVuSans-70" d="M 1159 525 
L 1159 -1331 
L 581 -1331 
L 581 3500 
L 1159 3500 
L 1159 2969 
Q 1341 3281 1617 3432 
Q 1894 3584 2278 3584 
Q 2916 3584 3314 3078 
Q 3713 2572 3713 1747 
Q 3713 922 3314 415 
Q 2916 -91 2278 -91 
Q 1894 -91 1617 61 
Q 1341 213 1159 525 
z
M 3116 1747 
Q 3116 2381 2855 2742 
Q 2594 3103 2138 3103 
Q 1681 3103 1420 2742 
Q 1159 2381 1159 1747 
Q 1159 1113 1420 752 
Q 1681 391 2138 391 
Q 2594 391 2855 752 
Q 3116 1113 3116 1747 
z
" transform="scale(0.015625)"/>
       <path id="DejaVuSans-74" d="M 1172 4494 
L 1172 3500 
L 2356 3500 
L 2356 3053 
L 1172 3053 
L 1172 1153 
Q 1172 725 1289 603 
Q 1406 481 1766 481 
L 2356 481 
L 2356 0 
L 1766 0 
Q 1100 0 847 248 
Q 594 497 594 1153 
L 594 3053 
L 172 3053 
L 172 3500 
L 594 3500 
L 594 4494 
L 1172 4494 
z
" transform="scale(0.015625)"/>
       <path id="DejaVuSans-69" d="M 603 3500 
L 1178 3500 
L 1178 0 
L 603 0 
L 603 3500 
z
M 603 4863 
L 1178 4863 
L 1178 4134 
L 603 4134 
L 603 4863 
z
" transform="scale(0.015625)"/>
       <path id="DejaVuSans-2d" d="M 313 2009 
L 1997 2009 
L 1997 1497 
L 313 1497 
L 313 2009 
z
" transform="scale(0.015625)"/>
       <path id="DejaVuSans-61" d="M 2194 1759 
Q 1497 1759 1228 1600 
Q 959 1441 959 1056 
Q 959 750 1161 570 
Q 1363 391 1709 391 
Q 2188 391 2477 730 
Q 2766 1069 2766 1631 
L 2766 1759 
L 2194 1759 
z
M 3341 1997 
L 3341 0 
L 2766 0 
L 2766 531 
Q 2569 213 2275 61 
Q 1981 -91 1556 -91 
Q 1019 -91 701 211 
Q 384 513 384 1019 
Q 384 1609 779 1909 
Q 1175 2209 1959 2209 
L 2766 2209 
L 2766 2266 
Q 2766 2663 2505 2880 
Q 2244 3097 1772 3097 
Q 1472 3097 1187 3025 
Q 903 2953 641 2809 
L 641 3341 
Q 956 3463 1253 3523 
Q 1550 3584 1831 3584 
Q 2591 3584 2966 3190 
Q 3341 2797 3341 1997 
z
" transform="scale(0.015625)"/>
      </defs>
      <use xlink:href="#DejaVuSans-6c"/>
      <use xlink:href="#DejaVuSans-6f" x="27.783203"/>
      <use xlink:href="#DejaVuSans-67" x="88.964844"/>
      <use xlink:href="#DejaVuSans-31" x="152.441406"/>
      <use xlink:href="#DejaVuSans-30" x="216.064453"/>
      <use xlink:href="#DejaVuSans-28" x="279.6875"/>
      <use xlink:href="#DejaVuSans-7c" x="318.701172"/>
      <use xlink:href="#DejaVuSans-70" x="352.392578"/>
      <use xlink:href="#DejaVuSans-72" x="415.869141"/>
      <use xlink:href="#DejaVuSans-6f" x="454.732422"/>
      <use xlink:href="#DejaVuSans-70" x="515.914062"/>
      <use xlink:href="#DejaVuSans-6f" x="579.390625"/>
      <use xlink:href="#DejaVuSans-72" x="640.572266"/>
      <use xlink:href="#DejaVuSans-74" x="681.685547"/>
      <use xlink:href="#DejaVuSans-69" x="720.894531"/>
      <use xlink:href="#DejaVuSans-6f" x="748.677734"/>
      <use xlink:href="#DejaVuSans-6e" x="809.859375"/>
      <use xlink:href="#DejaVuSans-20" x="873.238281"/>
      <use xlink:href="#DejaVuSans-2d" x="905.025391"/>
      <use xlink:href="#DejaVuSans-20" x="941.109375"/>
      <use xlink:href="#DejaVuSans-66" x="972.896484"/>
      <use xlink:href="#DejaVuSans-69" x="1008.101562"/>
      <use xlink:href="#DejaVuSans-6e" x="1035.884766"/>
      <use xlink:href="#DejaVuSans-61" x="1099.263672"/>
      <use xlink:href="#DejaVuSans-6c" x="1160.542969"/>
      <use xlink:href="#DejaVuSans-20" x="1188.326172"/>
      <use xlink:href="#DejaVuSans-70" x="1220.113281"/>
      <use xlink:href="#DejaVuSans-72" x="1283.589844"/>
      <use xlink:href="#DejaVuSans-6f" x="1322.453125"/>
      <use xlink:href="#DejaVuSans-70" x="1383.634766"/>
      <use xlink:href="#DejaVuSans-6f" x="1447.111328"/>
      <use xlink:href="#DejaVuSans-72" x="1508.292969"/>
      <use xlink:href="#DejaVuSans-74" x="1549.40625"/>
      <use xlink:href="#DejaVuSans-69" x="1588.615234"/>
      <use xlink:href="#DejaVuSans-6f" x="1616.398438"/>
      <use xlink:href="#DejaVuSans-6e" x="1677.580078"/>
      <use xlink:href="#DejaVuSans-7c" x="1740.958984"/>
      <use xlink:href="#DejaVuSans-29" x="1774.650391"/>
     </g>
    </g>
   </g>
   <g id="line2d_14">
    <path d="M 97.952914 60.996871 
L 101.876657 71.700153 
L 105.458753 85.216842 
L 108.753963 105.517209 
L 111.80485 165.214862 
L 114.645158 118.860869 
L 117.302089 98.105005 
L 119.797892 87.325806 
L 122.150997 80.265694 
L 124.376844 75.143336 
L 126.488494 71.200392 
L 128.497094 68.044446 
L 130.412236 65.446859 
L 132.242233 63.263249 
L 133.994333 61.396953 
L 137.289542 58.364274 
L 140.340429 55.996321 
L 141.785074 143.916019 
L 143.180738 118.860869 
L 144.530634 106.338765 
L 145.837668 98.105005 
L 147.10448 92.054665 
L 148.333471 87.325806 
L 149.526834 83.480476 
L 150.686577 80.265694 
L 152.912424 75.143336 
L 155.024073 71.200392 
L 157.032673 68.044446 
L 158.947816 65.446859 
L 160.777812 63.263249 
L 163.37877 60.560841 
L 165.825122 58.364274 
L 168.876009 55.996321 
L 171.716317 54.090205 
L 175.011526 52.16901 
L 178.646369 50.343036 
L 179.790001 49.822565 
L 180.350121 60.294784 
L 181.448003 59.28803 
L 181.986156 74.066354 
L 183.559652 71.200392 
L 185.568253 68.044446 
L 187.483395 65.446859 
L 189.313391 63.263249 
L 189.758457 77.020021 
L 191.065492 74.276345 
L 191.492108 95.901482 
L 192.746057 90.358579 
L 196.6698 102.454797 
L 200.251896 86.150435 
L 203.547106 148.927477 
L 206.597993 105.270013 
L 209.438301 90.358579 
L 212.095232 98.105005 
L 214.591035 87.325806 
L 216.94414 118.860869 
L 219.169987 126.414005 
L 221.281637 171.949588 
L 223.290237 165.214862 
L 225.205379 137.281731 
L 227.035376 156.811303 
L 228.787476 118.860869 
L 230.468041 149.596908 
L 232.082685 132.823328 
L 233.636384 197.472266 
L 235.133572 165.214862 
L 236.578217 143.916019 
L 237.97388 171.949588 
L 239.323776 128.002609 
L 240.630811 140.400529 
L 241.897623 160.622702 
L 243.126614 127.917707 
L 244.319977 104.525038 
L 245.47972 92.34792 
L 246.607684 90.856884 
L 247.705566 83.287166 
L 248.774929 82.438226 
L 249.817216 87.177679 
L 250.833765 92.545867 
L 252.794523 90.000659 
L 253.740959 95.449714 
L 254.666124 94.012576 
L 255.570955 86.914245 
L 256.456325 91.500049 
L 257.323055 96.704463 
L 258.171913 95.299749 
L 259.003621 100.951599 
L 260.618264 97.810461 
L 261.402443 96.439525 
L 262.171963 101.836463 
L 262.927363 108.208084 
L 263.669152 98.793364 
L 264.39781 104.303446 
L 265.817542 101.08484 
L 266.50946 94.012576 
L 267.18994 98.370327 
L 267.859356 97.163126 
L 268.51806 101.836463 
L 270.433203 98.01618 
L 271.052284 96.915776 
L 272.263199 106.033815 
L 272.855556 111.682184 
L 273.439511 118.486437 
L 274.015299 127.114346 
L 274.583144 123.805583 
L 275.143264 134.078477 
L 275.695864 129.94211 
L 276.241146 142.708447 
L 276.779299 137.281731 
L 277.310508 154.289144 
L 277.83495 146.555538 
L 278.352795 140.598485 
L 278.864207 159.439316 
L 279.369344 225.117356 
L 279.868358 128.273219 
L 280.361396 138.81377 
L 280.848598 155.048248 
L 281.330102 130.783283 
L 281.80604 141.963342 
L 282.74172 133.338527 
L 283.201704 145.249049 
L 283.656605 165.214862 
L 284.106534 270.640277 
L 284.5516 167.405545 
L 284.991905 183.823722 
L 285.427551 154.431339 
L 285.858634 163.710254 
L 286.285251 177.100462 
L 286.707492 152.362483 
L 287.125446 139.446828 
L 287.5392 130.705972 
L 291.462943 132.774881 
L 295.045039 157.662822 
L 298.340248 132.823328 
L 301.391136 230.631405 
L 304.231444 139.148174 
L 306.888375 132.112294 
L 309.384178 133.412684 
L 311.737283 118.860869 
L 313.96313 124.489748 
L 318.08338 126.799091 
L 319.998522 138.705902 
L 321.828518 133.722769 
L 323.580619 147.63438 
L 328.429527 149.5213 
L 329.926715 196.043985 
L 331.371359 150.61764 
L 332.767023 151.124898 
L 334.116919 139.78777 
L 335.423954 140.400529 
L 336.690766 123.654501 
L 337.919757 133.412684 
L 339.11312 130.705972 
L 340.272862 142.616516 
L 341.400827 143.118841 
L 342.498709 139.407355 
L 343.568072 154.770148 
L 344.610359 136.795402 
L 345.626908 171.949588 
L 346.618959 185.627099 
L 347.587666 156.000681 
L 348.534101 208.720539 
L 349.459267 171.949588 
L 350.364098 163.400237 
L 351.249468 151.763405 
L 352.116198 147.63438 
L 352.965056 144.161189 
L 353.796763 135.470523 
L 354.612001 133.412684 
L 355.411407 127.510523 
L 356.965106 128.36329 
L 357.720506 125.262686 
L 358.462295 127.375789 
L 359.190953 124.489748 
L 359.906939 126.485772 
L 360.610685 130.336105 
L 361.302603 151.124898 
L 361.983083 155.305842 
L 362.652499 192.614555 
L 363.311203 211.218596 
L 363.959533 304.530297 
L 364.597812 215.932746 
L 365.226345 208.720539 
L 365.845427 256.028735 
L 366.455336 179.611091 
L 367.056342 189.704257 
L 367.648699 189.356058 
L 368.232654 171.949588 
L 368.808442 179.127754 
L 369.376287 202.355358 
L 369.936407 188.093167 
L 370.489007 166.413622 
L 371.034289 161.882758 
L 371.572442 161.993363 
L 372.103651 166.608043 
L 372.628093 154.934546 
L 373.145938 155.095739 
L 373.65735 158.611951 
L 374.162487 189.483456 
L 374.661501 190.487533 
L 375.154538 212.492469 
L 375.641741 162.79711 
L 376.123245 171.949588 
L 376.599183 194.77482 
L 377.069681 210.899084 
L 377.994847 255.334438 
L 378.449748 215.932746 
L 378.899677 200.126361 
L 379.344742 219.627973 
L 379.785048 221.601933 
L 380.220693 203.709585 
L 380.651777 203.113329 
L 381.078394 177.100462 
L 381.918589 160.622702 
L 382.332343 152.648399 
L 386.256086 168.062792 
L 389.838182 187.505078 
L 393.133391 203.116605 
L 396.184279 212.667998 
L 399.024587 200.953534 
L 401.681518 197.989324 
L 404.17732 169.375724 
L 406.530426 148.751684 
L 408.756273 150.736978 
L 410.867922 167.701389 
L 412.876522 159.700512 
L 414.791665 146.177228 
L 416.621661 155.656352 
L 418.373761 157.306497 
L 420.054327 149.961411 
L 421.668971 134.299233 
L 423.22267 131.531062 
L 424.719858 129.932058 
L 426.164502 133.072236 
L 427.560166 140.657647 
L 428.910062 138.368087 
L 430.217097 138.541779 
L 431.483909 136.590717 
L 432.7129 136.008725 
L 433.906263 134.027215 
L 435.066005 134.971263 
L 436.19397 132.543939 
L 437.291852 131.289788 
L 438.361215 132.446785 
L 439.403502 132.401962 
L 440.420051 135.34446 
L 441.412102 138.800106 
L 442.380809 141.399852 
L 443.327244 139.371875 
L 444.25241 138.823181 
L 445.157241 142.297839 
L 446.042611 144.520421 
L 446.909341 143.791678 
L 447.758198 140.166398 
L 448.589906 145.603191 
L 449.405144 141.867614 
L 450.20455 141.606796 
L 450.988729 141.963421 
L 451.758249 140.830339 
L 452.513649 140.893393 
L 453.255437 140.400529 
L 453.984096 143.303447 
L 454.700082 138.728613 
L 455.403828 138.087681 
L 456.095745 138.662044 
L 456.776226 140.716982 
L 457.445641 137.236075 
L 458.104346 139.38257 
L 458.752676 138.767689 
L 459.390955 137.965943 
L 460.63857 140.572968 
L 461.248479 144.520421 
L 461.849485 143.760406 
L 462.441842 145.289666 
L 463.025797 143.06109 
L 463.601585 143.315863 
L 464.16943 150.421993 
L 464.729549 147.281095 
L 465.28215 147.503161 
L 465.827432 145.468013 
L 466.365585 144.751371 
L 466.896794 144.520421 
L 467.421236 143.420592 
L 467.939081 144.080973 
L 468.450493 146.794283 
L 468.95563 147.956948 
L 469.454644 147.913015 
L 469.947681 148.5894 
L 470.434884 146.90862 
L 470.916388 146.657067 
L 471.392326 149.147201 
L 471.862824 149.090237 
L 472.328005 146.796941 
L 473.242891 145.309662 
L 474.137885 151.124898 
L 474.578191 151.046067 
L 475.013836 151.676886 
L 475.44492 155.095739 
L 476.293778 154.324302 
L 477.125486 158.912637 
L 481.049228 194.838103 
L 484.631325 172.33349 
L 490.977421 273.838005 
L 493.81773 190.000022 
L 496.47466 265.059516 
L 498.970463 253.692572 
L 501.323569 211.763069 
L 503.549416 193.468971 
L 505.661065 232.969561 
L 507.669665 220.62901 
L 509.584808 254.747141 
L 511.414804 292.665358 
L 513.166904 255.334438 
L 514.84747 211.514142 
L 516.462114 182.786156 
L 518.015813 183.957293 
L 519.513001 182.621986 
L 520.957645 182.777327 
L 522.353309 179.360782 
L 523.703205 178.644743 
L 525.01024 178.522862 
L 527.506043 170.424782 
L 528.699406 169.80761 
L 529.859148 170.41769 
L 530.987113 164.30559 
L 533.154357 174.46238 
L 534.196644 175.234217 
L 535.213193 182.113195 
L 536.205245 176.596478 
L 537.173952 179.581693 
L 538.120387 178.408834 
L 539.045553 181.261995 
L 539.950384 174.868712 
L 540.835754 174.231807 
L 541.702484 178.463077 
L 542.551341 176.035236 
L 543.383049 175.491724 
L 544.198286 173.903106 
L 545.781872 172.94285 
L 546.551392 173.067237 
L 547.306792 172.163777 
L 548.777239 177.395454 
L 549.493225 177.352031 
L 550.888888 174.475183 
L 551.569369 176.51896 
L 552.238784 176.841068 
L 552.897489 176.724733 
L 553.545819 173.964677 
L 554.184098 176.586636 
L 554.812631 174.369436 
L 555.431712 179.396113 
L 556.041622 180.568543 
L 556.642627 183.28407 
L 557.234985 182.013632 
L 557.81894 185.790242 
L 558.394728 180.826641 
L 558.962573 179.086624 
L 559.522692 181.157855 
L 560.075293 180.650884 
L 560.620574 181.059542 
L 561.158728 181.879233 
L 561.689937 183.477298 
L 562.214379 186.433559 
L 562.732224 185.243926 
L 563.243636 184.826291 
L 563.748773 182.754941 
L 564.247787 181.627906 
L 564.740824 176.596478 
L 565.228027 175.890052 
L 565.709531 173.36996 
L 566.185468 173.277593 
L 566.655967 175.739686 
L 567.121148 175.848483 
L 568.036033 173.775728 
L 568.485963 174.813734 
L 569.371333 178.973297 
L 570.238063 181.283936 
L 570.66468 180.888179 
L 571.918629 174.725985 
L 575.842371 179.84878 
L 579.424468 177.685293 
L 582.719677 183.250859 
L 585.770564 183.87852 
L 588.610872 190.649264 
L 591.267803 187.45612 
L 593.763606 190.980229 
L 596.116712 197.133217 
L 598.342558 196.090256 
L 600.454208 189.450712 
L 602.462808 192.417183 
L 604.377951 193.679342 
L 606.207947 198.635554 
L 607.960047 199.573349 
L 609.640613 195.429201 
L 611.255256 197.618821 
L 612.808955 198.038662 
L 614.306144 197.947724 
L 615.750788 202.33138 
L 618.496348 208.029449 
L 619.803383 207.893097 
L 621.070195 204.167492 
L 622.299185 203.997594 
L 623.492548 207.133481 
L 624.652291 209.730817 
L 625.780256 206.012731 
L 626.878138 208.401492 
L 627.9475 208.361181 
L 628.989787 211.694656 
L 630.006336 213.616547 
L 630.998388 216.782312 
L 631.967094 217.469567 
L 632.91353 227.258374 
L 633.838696 230.498863 
L 634.743526 242.422621 
L 635.628897 242.607565 
L 636.495627 237.724286 
L 637.344484 237.964067 
L 638.176192 229.297671 
L 638.991429 224.597049 
L 639.790836 231.744727 
L 640.575015 230.943264 
L 641.344535 221.192689 
L 642.841723 228.013688 
L 644.286367 237.437521 
L 644.990113 237.042997 
L 645.682031 242.697545 
L 646.362512 245.771746 
L 647.031927 246.939472 
L 647.690631 244.233565 
L 648.338962 251.240337 
L 649.605774 242.987789 
L 650.224855 242.555653 
L 650.834765 243.311329 
L 651.43577 258.869138 
L 652.028128 267.480951 
L 652.612083 279.374879 
L 653.18787 293.489874 
L 653.755716 347.449291 
L 654.315835 434.671774 
L 654.868436 315.169526 
L 655.413717 313.985006 
L 655.951871 292.902226 
L 656.48308 315.648695 
L 657.007522 276.63188 
L 657.525367 363.740194 
L 658.036779 350.832121 
L 659.040929 287.589204 
L 659.533967 317.914595 
L 660.02117 328.168468 
L 660.502674 334.222241 
L 660.978611 283.767107 
L 661.449109 307.206917 
L 661.914291 300.087465 
L 662.374275 268.690251 
L 662.829176 260.855266 
L 663.279106 262.954523 
L 663.724171 300.685581 
L 664.164476 278.159717 
L 664.600122 278.438178 
L 665.031206 286.857098 
L 665.457823 312.186263 
L 665.880064 284.031914 
L 666.298018 272.283642 
L 666.711771 272.109968 
L 670.635514 383.171988 
L 674.217611 293.746889 
L 677.51282 275.059969 
L 680.563707 292.767898 
L 683.404015 273.053117 
L 686.060946 268.123317 
L 688.556749 237.108178 
L 690.909854 236.858297 
L 693.135701 243.545851 
L 695.247351 243.914061 
L 697.255951 254.869691 
L 699.171094 260.443963 
L 701.00109 263.822734 
L 702.75319 284.446223 
L 704.433756 284.652785 
L 706.048399 281.774155 
L 707.602098 261.694543 
L 709.099287 256.919277 
L 710.543931 264.754395 
L 711.939595 275.878605 
L 713.289491 261.491399 
L 714.596525 287.19226 
L 715.863337 268.515145 
L 717.092328 261.752478 
L 718.285691 268.020937 
L 719.445434 275.850798 
L 720.573399 295.361041 
L 721.671281 364.105742 
L 722.740643 282.146612 
L 723.78293 303.535293 
L 724.799479 290.948436 
L 725.79153 382.343768 
L 726.760237 317.195175 
L 727.706673 301.430484 
L 728.631839 306.070369 
L 729.536669 391.496029 
L 730.42204 285.701272 
L 731.288769 283.707297 
L 732.137627 274.285868 
L 732.969335 272.11709 
L 733.784572 273.324125 
L 734.583979 264.060041 
L 735.368157 265.973259 
L 736.137678 269.512268 
L 736.893078 258.095842 
L 737.634866 259.846582 
L 738.363525 257.717065 
L 739.07951 252.930496 
L 739.783256 245.642445 
L 741.155655 252.576144 
L 741.82507 252.422657 
L 742.483774 246.683163 
L 743.132105 250.722444 
L 743.770383 251.229734 
L 744.398917 248.842059 
L 745.017998 255.699771 
L 745.627908 266.860895 
L 746.228913 262.513901 
L 746.821271 266.020562 
L 747.405226 264.030922 
L 747.981013 259.649481 
L 748.548859 257.414171 
L 749.108978 260.399521 
L 749.661579 259.844756 
L 750.20686 261.849314 
L 750.745013 269.529665 
L 751.800665 274.839617 
L 752.31851 265.809416 
L 752.829922 267.686422 
L 753.335058 265.879901 
L 753.834072 265.092359 
L 754.32711 268.632999 
L 755.295817 262.083493 
L 755.771754 263.70316 
L 756.242252 263.588936 
L 756.707434 266.717714 
L 757.167418 267.751682 
L 757.622319 276.391859 
L 758.072249 278.546702 
L 758.517314 284.594483 
L 758.957619 301.292389 
L 759.393265 290.372845 
L 759.824349 286.305764 
L 760.250965 290.028508 
L 760.673206 281.395834 
L 761.091161 281.471944 
L 761.504914 276.559835 
L 765.428657 262.980477 
L 769.010753 266.125299 
L 772.305963 274.247701 
L 775.35685 278.506363 
L 778.197158 294.278395 
L 780.854089 304.479095 
L 783.349892 302.725334 
L 785.702997 293.541095 
L 787.928844 306.175213 
L 790.040494 330.799134 
L 792.049094 338.429049 
L 793.964236 353.548099 
L 795.794233 342.486532 
L 797.546333 425.272211 
L 799.226898 385.153746 
L 800.841542 342.409018 
L 802.395241 347.872757 
L 803.892429 357.934691 
L 805.337074 407.10898 
L 806.732738 332.153406 
L 808.082634 341.970139 
L 809.389668 326.470791 
L 810.65648 336.558306 
L 811.885471 323.35285 
L 813.078834 327.274135 
L 814.238577 320.597564 
L 815.366541 313.441527 
L 816.464424 322.476508 
L 817.533786 316.101329 
L 818.576073 318.284512 
L 819.592622 396.767006 
L 820.584673 353.548099 
L 823.424981 327.529441 
L 824.329812 344.351088 
L 825.215183 339.580262 
L 826.081912 345.366283 
L 826.93077 328.330094 
L 827.762478 314.429201 
L 828.577715 325.024862 
L 829.377122 309.271064 
L 830.1613 302.710794 
L 830.930821 291.116602 
L 831.68622 286.798755 
L 832.428009 284.543955 
L 833.156667 283.920227 
L 833.872653 287.718539 
L 834.576399 290.219566 
L 835.268317 293.985378 
L 835.948798 288.936915 
L 836.618213 288.248811 
L 837.925248 298.112125 
L 838.563526 293.663603 
L 839.19206 297.672433 
L 839.811141 293.372487 
L 840.421051 287.953867 
L 841.614414 298.461837 
L 842.198369 298.982509 
L 842.774156 296.674106 
L 843.342001 297.255256 
L 843.902121 296.114498 
L 844.454722 300.923559 
L 845.000003 298.331334 
L 845.538156 297.608749 
L 846.593807 304.436133 
L 847.111652 303.30198 
L 847.623064 301.537597 
L 848.128201 297.291624 
L 848.627215 301.0237 
L 849.120253 305.675818 
L 849.607455 305.736199 
L 850.564897 325.232113 
L 851.035395 328.79896 
L 851.500577 329.330157 
L 851.960561 336.682485 
L 852.415462 354.010192 
L 852.865391 352.699913 
L 853.310457 348.729735 
L 853.750762 371.930583 
L 854.186408 434.176732 
L 855.044108 331.988186 
L 855.466349 317.535281 
L 855.884304 318.138313 
L 856.298057 314.7167 
L 860.2218 324.126528 
L 863.803896 314.332021 
L 867.099106 327.657696 
L 870.149993 323.507499 
L 872.990301 299.557688 
L 875.647232 311.931737 
L 878.143035 326.570213 
L 880.49614 304.012549 
L 882.721987 304.501894 
L 884.833637 300.454041 
L 886.842237 304.810173 
L 888.757379 296.893662 
L 890.587376 302.732899 
L 892.339476 304.648644 
L 894.020041 314.56858 
L 895.634685 332.136906 
L 897.188384 331.903093 
L 898.685572 333.013154 
L 900.130217 321.543573 
L 901.52588 319.114473 
L 902.875776 316.35025 
L 904.182811 317.925663 
L 905.449623 318.836662 
L 906.678614 326.11139 
L 907.871977 324.59495 
L 909.03172 322.569144 
L 910.159684 333.88935 
L 911.257566 327.18128 
L 912.326929 325.617612 
L 913.369216 315.864131 
L 914.385765 316.018252 
L 915.377816 314.262176 
L 916.346523 319.35128 
L 917.292959 319.571231 
L 918.218124 333.083665 
L 919.122955 334.10203 
L 920.008325 347.363623 
L 920.875055 395.83221 
L 921.723913 356.900232 
L 922.555621 379.016137 
L 923.370858 347.043972 
L 924.170264 353.024347 
L 924.954443 356.628069 
L 925.723963 363.34843 
L 926.479363 454.716038 
L 927.221152 400.797813 
L 927.94981 371.094863 
L 928.665796 356.080128 
L 929.369542 353.361543 
L 930.06146 341.527166 
L 930.74194 343.597156 
L 931.411356 342.026219 
L 932.07006 346.336491 
L 932.718391 339.277434 
L 933.356669 327.219657 
L 933.985203 324.001987 
L 934.604284 324.140144 
L 935.214193 327.239061 
L 935.815199 324.050463 
L 936.407556 319.443944 
L 936.991511 321.97749 
L 937.567299 323.791565 
L 938.135144 323.771183 
L 938.695264 320.559539 
L 939.793146 321.27777 
L 940.331299 324.308331 
L 940.862508 322.59562 
L 941.38695 328.220571 
L 941.904795 327.230569 
L 942.416207 329.004472 
L 943.420358 331.713562 
L 944.400598 336.695908 
L 944.882102 351.992839 
L 945.35804 350.038533 
L 945.828538 344.22051 
L 946.29372 341.289424 
L 946.753704 344.762035 
L 947.208605 343.308697 
L 947.658534 345.440396 
L 948.1036 349.435525 
L 948.543905 356.665463 
L 948.979551 368.01446 
L 949.410634 363.984918 
L 949.837251 368.716742 
L 950.259492 386.02824 
L 950.677446 379.123929 
L 951.0912 362.054938 
L 958.597039 339.803042 
L 961.892248 333.868627 
L 964.943136 327.98028 
L 967.783444 335.75482 
L 970.440375 334.092794 
L 972.936178 331.565294 
L 975.289283 323.815672 
L 977.51513 332.459305 
L 979.626779 325.412463 
L 981.63538 328.760056 
L 983.550522 332.745973 
L 985.380518 345.327391 
L 987.132619 350.07265 
L 988.813184 352.187804 
L 990.427828 352.547273 
L 991.981527 354.973202 
L 993.478715 352.948775 
L 994.923359 346.822136 
L 996.319023 349.288495 
L 997.668919 352.664882 
L 998.975954 351.989003 
L 1000.242766 346.735939 
L 1001.471757 353.391189 
L 1002.66512 367.846502 
L 1003.824862 367.882717 
L 1004.952827 383.515715 
L 1006.050709 410.898132 
L 1007.120072 447.606106 
L 1008.162359 419.222599 
L 1009.178908 395.089401 
L 1010.170959 498.404587 
L 1011.139666 385.726733 
L 1012.086101 386.60659 
L 1013.011267 388.178486 
L 1013.916098 404.055787 
L 1014.801468 363.809799 
L 1015.668198 362.954235 
L 1016.517056 366.522062 
L 1017.348763 373.878073 
L 1018.164001 392.334236 
L 1018.963407 394.681687 
L 1019.747586 407.143443 
L 1020.517106 445.791457 
L 1022.014295 391.865206 
L 1023.458939 418.853811 
L 1024.162685 442.016748 
L 1024.854603 432.590639 
L 1025.535083 413.569103 
L 1026.204499 385.718514 
L 1026.863203 396.274782 
L 1027.511533 434.726158 
L 1028.149812 417.304383 
L 1028.778345 394.698241 
L 1029.397427 390.901278 
L 1030.007336 393.46115 
L 1030.608342 391.181706 
L 1031.200699 393.274269 
L 1031.784654 427.024856 
L 1032.360442 408.702861 
L 1032.928287 406.231664 
L 1033.488407 395.967191 
L 1034.041007 389.550574 
L 1034.586289 388.822629 
L 1035.124442 385.958557 
L 1035.655651 377.046744 
L 1036.180093 385.192665 
L 1036.697938 395.857399 
L 1037.20935 403.4715 
L 1037.714487 404.464597 
L 1038.213501 428.563145 
L 1038.706538 417.499965 
L 1039.193741 410.169305 
L 1039.675245 409.408808 
L 1040.151183 516.954016 
L 1040.621681 439.517921 
L 1041.086863 427.052075 
L 1041.546847 403.68265 
L 1042.001748 399.306565 
L 1042.451677 405.0612 
L 1042.896742 399.259349 
L 1043.337048 408.020131 
L 1043.772693 409.0369 
L 1044.203777 417.587585 
L 1044.630394 411.666153 
L 1045.052635 436.30527 
L 1045.470589 437.71938 
L 1045.470589 437.71938 
" clip-path="url(#pd3273d9472)" style="fill: none; stroke: #ffffff; stroke-width: 1.5; stroke-linecap: square"/>
   </g>
   <g id="line2d_15">
    <path d="M 97.952914 61.074957 
L 101.876657 71.813316 
L 105.458753 85.397709 
L 108.753963 105.883525 
L 111.80485 168.240886 
L 114.645158 118.288931 
L 117.302089 97.824723 
L 119.797892 87.1325 
L 122.150997 80.114181 
L 124.376844 75.016382 
L 126.488494 71.0896 
L 128.497094 67.945097 
L 130.412236 65.356038 
L 132.242233 63.179028 
L 133.994333 61.317993 
L 137.289542 58.293172 
L 140.340429 55.930807 
L 141.785074 142.572981 
L 143.180738 118.288931 
L 144.530634 105.96667 
L 145.837668 97.824723 
L 147.10448 91.827124 
L 148.333471 87.1325 
L 149.526834 83.311186 
L 150.686577 80.114181 
L 152.912424 75.016382 
L 155.024073 71.0896 
L 157.032673 67.945097 
L 158.947816 65.356038 
L 160.777812 63.179028 
L 163.37877 60.48413 
L 165.825122 58.293172 
L 168.876009 55.930807 
L 171.716317 54.028868 
L 175.011526 52.111614 
L 178.646369 50.289152 
L 179.790001 49.769642 
L 180.350121 60.218775 
L 181.448003 59.21462 
L 181.986156 73.944034 
L 183.559652 71.0896 
L 185.568253 67.945097 
L 187.483395 65.356038 
L 189.313391 63.179028 
L 189.758457 76.884567 
L 191.065492 74.153135 
L 191.492108 95.641686 
L 192.746057 90.143961 
L 196.6698 102.129237 
L 200.251896 85.96481 
L 203.547106 147.33698 
L 206.597993 104.911346 
L 209.438301 90.143961 
L 212.095232 97.824723 
L 214.591035 87.1325 
L 216.94414 118.288931 
L 219.169987 127.174109 
L 221.281637 168.532776 
L 223.290237 168.240886 
L 225.205379 138.395651 
L 227.035376 154.739411 
L 228.787476 118.288931 
L 230.468041 151.320723 
L 232.082685 133.775329 
L 233.636384 189.811015 
L 235.133572 168.240886 
L 236.578217 142.572981 
L 237.97388 168.532776 
L 239.323776 127.220693 
L 240.630811 139.208207 
L 241.897623 158.270279 
L 243.126614 128.718981 
L 244.319977 104.878914 
L 245.47972 92.579616 
L 246.607684 91.076883 
L 247.705566 83.456315 
L 248.774929 82.602464 
L 249.817216 87.371289 
L 250.833765 92.779161 
L 252.794523 90.214211 
L 253.740959 95.707782 
L 254.666124 94.258069 
L 255.570955 87.106091 
L 256.456325 91.725019 
L 257.323055 96.974038 
L 258.171913 95.556476 
L 259.003621 101.264087 
L 260.618264 98.090605 
L 261.402443 96.706628 
L 262.171963 102.158722 
L 262.927363 108.6104 
L 263.669152 99.083249 
L 264.39781 104.654602 
L 265.817542 101.398779 
L 266.50946 94.258069 
L 267.18994 98.655978 
L 267.859356 97.437034 
L 268.51806 102.158722 
L 270.433203 98.298335 
L 271.052284 97.187338 
L 272.263199 106.406781 
L 272.855556 112.136304 
L 273.439511 119.062337 
L 274.015299 127.893351 
L 274.583144 124.499285 
L 275.143264 135.073476 
L 275.695864 130.802407 
L 276.241146 144.057947 
L 276.779299 138.395651 
L 277.310508 156.327844 
L 277.83495 148.102443 
L 278.352795 141.850867 
L 278.864207 161.893101 
L 279.369344 270.256127 
L 279.868358 129.084553 
L 280.361396 139.989593 
L 280.848598 157.143229 
L 281.330102 131.669385 
L 281.80604 143.277695 
L 282.74172 134.307944 
L 283.201704 146.725792 
L 283.656605 168.240886 
L 284.106534 240.689966 
L 284.5516 164.461502 
L 284.991905 178.81391 
L 285.427551 152.517955 
L 285.858634 161.104183 
L 286.285251 173.061583 
L 286.707492 150.577303 
L 287.125446 138.292453 
L 287.5392 129.848499 
L 291.462943 131.854766 
L 295.045039 159.964306 
L 298.340248 133.775329 
L 301.391136 321.196298 
L 304.231444 138.005437 
L 306.888375 131.212717 
L 309.384178 132.472365 
L 311.737283 118.288931 
L 313.96313 123.796272 
L 318.08338 126.048661 
L 319.998522 137.580188 
L 321.828518 132.772471 
L 323.580619 146.111687 
L 328.429527 147.89869 
L 329.926715 188.709121 
L 331.371359 148.934078 
L 332.767023 149.412387 
L 334.116919 138.619968 
L 335.423954 139.208207 
L 336.690766 122.980555 
L 337.919757 132.472365 
L 339.11312 129.848499 
L 340.272862 141.331245 
L 341.400827 141.811533 
L 342.498709 138.254525 
L 343.568072 152.834937 
L 344.610359 135.740411 
L 345.626908 168.532776 
L 346.618959 180.322594 
L 347.587666 153.984151 
L 348.534101 198.021996 
L 349.459267 168.532776 
L 350.364098 160.820771 
L 351.249468 150.013768 
L 352.116198 146.111687 
L 352.965056 142.806971 
L 353.796763 134.461995 
L 354.612001 132.472365 
L 355.411407 126.741635 
L 356.965106 127.571685 
L 357.720506 124.550639 
L 358.462295 126.61043 
L 359.190953 123.796272 
L 359.906939 125.743332 
L 360.610685 129.48938 
L 361.302603 149.412387 
L 361.983083 153.335627 
L 362.652499 186.013882 
L 363.311203 230.593283 
L 363.959533 229.666117 
L 364.597812 240.666048 
L 365.226345 198.021996 
L 365.845427 221.498846 
L 366.455336 175.232078 
L 367.056342 183.674568 
L 367.648699 183.391627 
L 368.232654 168.532776 
L 368.808442 174.816221 
L 369.376287 193.48095 
L 369.936407 182.360117 
L 370.489007 163.564185 
L 371.034289 159.429814 
L 371.572442 159.531402 
L 372.103651 163.740294 
L 372.628093 152.988656 
L 373.145938 153.139325 
L 373.65735 156.411792 
L 374.162487 197.045991 
L 374.661501 198.35735 
L 375.154538 200.573314 
L 375.641741 160.268661 
L 376.123245 168.532776 
L 376.599183 187.71967 
L 377.069681 229.971837 
L 377.534863 213.699675 
L 377.994847 248.91522 
L 378.449748 240.666048 
L 378.899677 211.819957 
L 379.344742 250.260073 
L 379.785048 256.370687 
L 380.220693 194.470857 
L 380.651777 194.036547 
L 381.078394 173.061583 
L 381.918589 158.270279 
L 382.332343 150.84601 
L 386.256086 165.054426 
L 389.838182 194.501164 
L 393.133391 216.426044 
L 396.184279 233.498534 
L 399.024587 192.443251 
L 401.681518 190.206824 
L 404.17732 166.234853 
L 406.530426 147.170574 
L 408.756273 149.046648 
L 410.867922 164.728555 
L 412.876522 157.419139 
L 414.791665 144.72757 
L 416.621661 153.662903 
L 418.373761 155.200068 
L 420.054327 148.314594 
L 421.668971 133.330104 
L 423.22267 130.649128 
L 424.719858 129.096922 
L 426.164502 132.142756 
L 427.560166 139.454888 
L 428.910062 137.255208 
L 430.217097 137.42232 
L 431.483909 135.543039 
L 432.7129 134.98157 
L 433.906263 133.067017 
L 435.066005 133.979718 
L 436.19397 131.631034 
L 437.291852 130.415077 
L 438.361215 131.536897 
L 439.403502 131.493463 
L 440.420051 134.340247 
L 441.412102 137.670788 
L 442.380809 140.166458 
L 443.327244 138.220432 
L 444.25241 137.692977 
L 445.157241 141.026358 
L 446.042611 143.149658 
L 446.909341 142.454275 
L 447.758198 138.983504 
L 448.589906 144.181357 
L 449.405144 140.614521 
L 450.20455 140.364725 
L 450.988729 140.706256 
L 451.758249 139.620519 
L 452.513649 139.680985 
L 453.255437 139.208207 
L 453.984096 141.987948 
L 454.700082 137.602031 
L 455.403828 136.985347 
L 456.095745 137.538005 
L 456.776226 139.511801 
L 457.445641 136.165168 
L 458.104346 138.230709 
L 458.752676 137.639612 
L 459.390955 136.868156 
L 460.63857 139.373656 
L 461.248479 143.149658 
L 461.849485 142.424417 
L 462.441842 143.882808 
L 463.025797 141.756334 
L 463.601585 141.999812 
L 464.16943 148.749469 
L 464.729549 145.776432 
L 465.28215 145.987189 
L 465.827432 144.052655 
L 466.365585 143.369867 
L 466.896794 143.149658 
L 467.421236 142.099869 
L 467.939081 142.730423 
L 468.450493 145.314123 
L 468.95563 146.417609 
L 469.454644 146.375953 
L 469.947681 147.016908 
L 470.434884 145.42274 
L 470.916388 145.183744 
L 471.392326 147.544895 
L 471.862824 147.491001 
L 472.328005 145.316649 
L 473.242891 143.901853 
L 474.137885 149.412387 
L 474.578191 149.338087 
L 475.013836 149.932325 
L 475.44492 153.139325 
L 476.293778 152.417764 
L 477.125486 156.690327 
L 481.049228 187.769232 
L 484.631325 168.873612 
L 487.926534 208.229417 
L 490.977421 239.635704 
L 493.81773 183.914398 
L 496.47466 223.947525 
L 498.970463 220.771513 
L 501.323569 200.088393 
L 503.549416 186.691748 
L 505.661065 212.409535 
L 507.669665 205.69626 
L 509.584808 221.104855 
L 511.414804 228.586755 
L 513.166904 248.91522 
L 514.84747 231.173986 
L 516.462114 188.613549 
L 518.015813 190.052981 
L 519.513001 188.412823 
L 520.957645 188.602747 
L 522.353309 184.475297 
L 523.703205 183.622641 
L 525.01024 183.477904 
L 527.506043 174.088072 
L 528.699406 173.388485 
L 529.859148 174.080021 
L 530.987113 167.232961 
L 533.154357 178.717378 
L 534.196644 179.613581 
L 535.213193 187.792339 
L 536.205245 181.20501 
L 537.173952 184.739178 
L 538.120387 183.342597 
L 539.045553 186.759544 
L 539.950384 179.188702 
L 540.835754 178.450394 
L 541.702484 183.40695 
L 542.551341 180.547821 
L 543.383049 179.913447 
L 544.198286 178.070365 
L 545.781872 176.96396 
L 546.551392 177.106965 
L 547.306792 176.070349 
L 548.777239 182.144403 
L 549.493225 182.093232 
L 550.196971 180.23195 
L 550.888888 178.732213 
L 551.569369 181.11411 
L 552.238784 181.492102 
L 552.897489 181.355499 
L 553.545819 178.1415 
L 554.184098 181.193466 
L 554.812631 178.609717 
L 555.431712 184.517474 
L 556.041622 185.922861 
L 556.642627 189.223898 
L 557.234985 187.671198 
L 557.81894 192.333802 
L 558.394728 186.233785 
L 558.962573 184.148354 
L 559.522692 186.633629 
L 560.075293 186.021993 
L 560.620574 186.514845 
L 561.158728 187.507815 
L 561.689937 189.461405 
L 562.214379 193.142921 
L 562.732224 191.650276 
L 563.243636 191.129911 
L 563.748773 188.575364 
L 564.247787 187.202724 
L 564.740824 181.20501 
L 565.228027 180.37817 
L 565.709531 177.455385 
L 566.185468 177.349016 
L 566.655967 180.202615 
L 567.121148 180.329622 
L 568.036033 177.923276 
L 568.485963 179.124867 
L 569.371333 184.013381 
L 570.238063 186.786085 
L 570.66468 186.308003 
L 571.918629 179.023025 
L 575.842371 185.058745 
L 579.424468 182.486321 
L 582.719677 189.183114 
L 585.770564 189.95574 
L 588.610872 198.569897 
L 591.267803 194.438809 
L 593.763606 199.006025 
L 596.116712 207.442212 
L 598.342558 205.963417 
L 600.454208 197.003459 
L 602.462808 200.918543 
L 604.377951 202.625405 
L 606.207947 209.613306 
L 607.960047 210.994999 
L 609.640613 205.037385 
L 611.255256 208.138517 
L 612.808955 208.744677 
L 614.306144 208.613048 
L 615.750788 215.191151 
L 617.146452 219.6941 
L 618.496348 224.654968 
L 619.803383 224.413008 
L 621.070195 218.109918 
L 622.299185 217.835161 
L 624.652291 227.752516 
L 625.780256 221.161592 
L 626.878138 225.319717 
L 627.9475 225.247365 
L 628.989787 231.53152 
L 630.006336 235.483981 
L 630.998388 242.706861 
L 631.967094 244.422497 
L 633.838696 318.295537 
L 634.743526 266.250062 
L 635.628897 265.832592 
L 636.495627 281.142258 
L 637.344484 280.088786 
L 638.176192 299.964134 
L 638.991429 267.854977 
L 639.790836 379.738505 
L 640.575015 329.37696 
L 641.344535 255.029465 
L 642.099935 269.126803 
L 642.841723 287.785567 
L 643.570382 326.924985 
L 644.286367 282.46706 
L 644.990113 284.418682 
L 645.682031 265.632595 
L 646.362512 259.810838 
L 647.031927 258.007916 
L 647.690631 262.500343 
L 648.338962 252.671261 
L 648.977241 257.383159 
L 649.605774 265.000867 
L 650.224855 265.948896 
L 650.834765 264.319759 
L 651.43577 246.366683 
L 652.612083 238.132789 
L 653.18787 235.570238 
L 653.755716 232.452803 
L 654.315835 231.891752 
L 654.868436 233.585201 
L 655.413717 233.65712 
L 655.951871 228.61245 
L 656.48308 230.366357 
L 657.007522 226.342713 
L 657.525367 232.220969 
L 658.036779 232.393193 
L 658.541916 230.458344 
L 659.040929 227.988799 
L 659.533967 230.480496 
L 660.02117 230.902372 
L 660.502674 232.768067 
L 660.978611 237.171171 
L 661.449109 229.858383 
L 661.914291 229.30834 
L 662.374275 224.781895 
L 662.829176 222.876742 
L 663.279106 223.425913 
L 663.724171 229.359498 
L 664.164476 226.605012 
L 664.600122 226.65159 
L 665.031206 227.894694 
L 665.457823 230.174725 
L 666.298018 225.530887 
L 666.711771 225.496364 
L 670.635514 231.764049 
L 674.217611 235.535782 
L 677.51282 239.271683 
L 680.563707 235.668911 
L 683.404015 225.681856 
L 686.060946 241.638157 
L 688.556749 284.085136 
L 690.909854 285.389555 
L 693.135701 263.840509 
L 695.247351 263.111288 
L 697.255951 249.292854 
L 699.171094 245.389044 
L 701.00109 243.554661 
L 702.75319 237.037655 
L 704.433756 236.997782 
L 706.048399 237.58551 
L 707.602098 244.671127 
L 709.099287 247.705923 
L 710.543931 243.103572 
L 711.939595 239.038701 
L 713.289491 244.784453 
L 714.596525 236.534248 
L 715.863337 241.482943 
L 717.092328 244.639035 
L 719.445434 239.046477 
L 721.671281 231.621247 
L 722.740643 227.237308 
L 723.78293 229.590332 
L 724.799479 228.394798 
L 725.79153 232.076586 
L 726.760237 230.445174 
L 727.706673 229.421869 
L 728.631839 229.778758 
L 729.536669 232.033354 
L 730.42204 236.800543 
L 731.288769 237.183111 
L 732.137627 239.49996 
L 732.969335 240.183759 
L 733.784572 239.794881 
L 734.583979 243.437703 
L 735.368157 242.544817 
L 736.137678 241.100891 
L 736.893078 246.879679 
L 737.634866 245.749779 
L 738.363525 247.139461 
L 739.07951 250.995768 
L 739.783256 260.022265 
L 741.155655 251.33115 
L 741.82507 251.478933 
L 742.483774 258.388016 
L 743.132105 253.225635 
L 743.770383 252.682407 
L 744.398917 255.42606 
L 745.627908 242.158841 
L 746.228913 244.226362 
L 746.821271 242.523815 
L 747.405226 243.451977 
L 747.981013 245.871458 
L 748.548859 247.351388 
L 749.108978 245.415471 
L 749.661579 245.7509 
L 750.20686 244.585615 
L 750.745013 241.094385 
L 751.800665 239.335859 
L 752.31851 242.617946 
L 752.829922 241.814733 
L 753.335058 242.586412 
L 753.834072 242.945177 
L 754.32711 241.436829 
L 755.295817 244.45757 
L 755.771754 243.61414 
L 756.242252 243.671304 
L 756.707434 242.219958 
L 757.167418 241.788118 
L 757.622319 238.896884 
L 758.072249 238.335106 
L 758.517314 237.009002 
L 758.957619 234.663288 
L 759.393265 236.017155 
L 759.824349 236.690623 
L 760.250965 236.070003 
L 760.673206 237.668151 
L 761.091161 237.651419 
L 761.504914 238.851163 
L 765.428657 243.981609 
L 769.010753 242.477489 
L 772.305963 239.511421 
L 775.35685 238.345146 
L 778.197158 235.465619 
L 780.854089 234.364087 
L 783.349892 234.524274 
L 785.702997 235.563344 
L 790.040494 232.876812 
L 793.964236 232.350212 
L 795.794233 231.294843 
L 797.546333 231.953555 
L 799.226898 231.774205 
L 800.841542 232.555917 
L 802.395241 232.444946 
L 803.892429 231.551125 
L 805.337074 231.850467 
L 806.732738 231.031176 
L 808.082634 231.283735 
L 809.389668 233.034835 
L 810.65648 232.701119 
L 811.885471 233.164909 
L 813.078834 233.003621 
L 814.238577 233.292705 
L 815.366541 233.69118 
L 816.464424 233.204182 
L 817.533786 233.530781 
L 818.576073 233.410308 
L 819.592622 231.821601 
L 820.584673 232.350212 
L 822.499816 232.697997 
L 823.424981 232.993888 
L 824.329812 232.513999 
L 825.215183 232.622366 
L 826.081912 232.493205 
L 826.93077 232.963938 
L 827.762478 233.629783 
L 828.577715 233.093341 
L 829.377122 233.976568 
L 830.1613 234.525647 
L 830.930821 235.905449 
L 831.68622 236.602965 
L 832.428009 237.018747 
L 833.156667 237.140738 
L 833.872653 236.444045 
L 834.576399 236.04059 
L 835.268317 235.504119 
L 835.948798 236.242434 
L 836.618213 236.355079 
L 837.925248 235.000351 
L 838.563526 235.546909 
L 839.19206 235.050273 
L 839.811141 235.586091 
L 840.421051 236.404327 
L 841.614414 234.961244 
L 842.198369 234.903984 
L 842.774156 235.166818 
L 843.342001 235.098428 
L 843.902121 235.234143 
L 844.454722 234.700312 
L 845.000003 234.975776 
L 845.538156 235.057574 
L 846.593807 234.367886 
L 847.623064 234.63896 
L 848.128201 235.094199 
L 849.120253 234.260701 
L 849.607455 234.255607 
L 850.088959 233.554527 
L 850.564897 233.084767 
L 851.035395 232.946795 
L 851.500577 232.927717 
L 851.960561 232.697713 
L 852.415462 232.343299 
L 852.865391 231.47888 
L 853.310457 231.414816 
L 853.750762 232.145811 
L 854.617492 231.742524 
L 855.466349 230.461976 
L 855.884304 230.49131 
L 856.298057 230.31689 
L 860.2218 230.752977 
L 863.803896 230.296029 
L 867.099106 230.884586 
L 870.149993 230.72827 
L 872.990301 229.262213 
L 875.647232 230.159764 
L 878.143035 230.845693 
L 880.49614 229.626984 
L 882.721987 229.663987 
L 884.833637 229.339809 
L 886.842237 229.687003 
L 888.757379 229.018223 
L 890.587376 229.527439 
L 892.339476 229.674972 
L 895.634685 231.030677 
L 898.685572 231.056779 
L 900.130217 230.646437 
L 902.875776 230.402608 
L 905.449623 230.524561 
L 906.678614 230.828855 
L 909.03172 230.689835 
L 910.159684 231.082123 
L 911.257566 230.867721 
L 912.326929 230.810445 
L 913.369216 230.377578 
L 915.377816 230.292213 
L 916.346523 230.548577 
L 917.292959 230.558719 
L 918.218124 231.058846 
L 919.122955 231.088163 
L 920.008325 231.390693 
L 920.875055 232.017204 
L 921.723913 232.302517 
L 922.555621 232.096043 
L 923.370858 232.460434 
L 925.723963 232.225131 
L 926.479363 231.904708 
L 927.94981 232.152533 
L 928.665796 232.313673 
L 929.369542 232.353035 
L 930.06146 232.575923 
L 932.07006 232.474017 
L 932.718391 232.629882 
L 933.356669 233.005709 
L 933.985203 233.136609 
L 934.604284 233.130672 
L 935.214193 233.004965 
L 936.407556 233.350122 
L 937.567299 233.14571 
L 938.135144 233.146596 
L 938.695264 233.294559 
L 939.793146 233.25996 
L 940.331299 233.123483 
L 940.862508 233.19877 
L 941.38695 232.967984 
L 942.416207 232.939371 
L 944.400598 232.697346 
L 944.882102 232.374321 
L 945.828538 232.516728 
L 946.29372 232.581424 
L 947.208605 232.53614 
L 948.543905 232.305678 
L 948.979551 232.179075 
L 949.837251 232.17277 
L 950.259492 232.057513 
L 955.014943 232.399005 
L 964.943136 232.976918 
L 967.783444 232.72352 
L 972.936178 232.851305 
L 975.289283 233.144664 
L 977.51513 232.822412 
L 979.626779 233.077357 
L 983.550522 232.81334 
L 985.380518 232.493988 
L 988.813184 232.371226 
L 993.478715 232.359347 
L 994.923359 232.464657 
L 998.975954 232.374382 
L 1000.242766 232.466306 
L 1007.120072 231.901097 
L 1009.178908 232.019801 
L 1012.086101 231.781223 
L 1013.916098 231.842988 
L 1014.801468 231.618211 
L 1016.517056 231.644913 
L 1020.517106 231.900024 
L 1023.458939 231.87289 
L 1030.608342 232.034622 
L 1035.124442 232.057852 
L 1036.180093 232.061627 
L 1038.213501 231.949689 
L 1042.896742 232.006054 
L 1045.884343 231.917656 
L 1045.884343 231.917656 
" clip-path="url(#pd3273d9472)" style="fill: none; stroke: #ff0000; stroke-width: 1.5; stroke-linecap: square"/>
   </g>
   <g id="patch_3">
    <path d="M 50.556343 540.313234 
L 50.556343 26.410423 
" style="fill: none; stroke: #ffffff; stroke-width: 0.8; stroke-linejoin: miter; stroke-linecap: square"/>
   </g>
   <g id="patch_4">
    <path d="M 1093.280914 540.313234 
L 1093.280914 26.410423 
" style="fill: none; stroke: #ffffff; stroke-width: 0.8; stroke-linejoin: miter; stroke-linecap: square"/>
   </g>
   <g id="patch_5">
    <path d="M 50.556343 540.313234 
L 1093.280914 540.313234 
" style="fill: none; stroke: #ffffff; stroke-width: 0.8; stroke-linejoin: miter; stroke-linecap: square"/>
   </g>
   <g id="patch_6">
    <path d="M 50.556343 26.410423 
L 1093.280914 26.410423 
" style="fill: none; stroke: #ffffff; stroke-width: 0.8; stroke-linejoin: miter; stroke-linecap: square"/>
   </g>
   <g id="text_16">
    <!-- Convergence of the proportion of games that have ended with 0 cards left in the hand to 7.06314e-03 -->
    <g style="fill: #ffffff" transform="translate(264.145816 20.410423) scale(0.12 -0.12)">
     <defs>
      <path id="DejaVuSans-43" d="M 4122 4306 
L 4122 3641 
Q 3803 3938 3442 4084 
Q 3081 4231 2675 4231 
Q 1875 4231 1450 3742 
Q 1025 3253 1025 2328 
Q 1025 1406 1450 917 
Q 1875 428 2675 428 
Q 3081 428 3442 575 
Q 3803 722 4122 1019 
L 4122 359 
Q 3791 134 3420 21 
Q 3050 -91 2638 -91 
Q 1578 -91 968 557 
Q 359 1206 359 2328 
Q 359 3453 968 4101 
Q 1578 4750 2638 4750 
Q 3056 4750 3426 4639 
Q 3797 4528 4122 4306 
z
" transform="scale(0.015625)"/>
      <path id="DejaVuSans-76" d="M 191 3500 
L 800 3500 
L 1894 563 
L 2988 3500 
L 3597 3500 
L 2284 0 
L 1503 0 
L 191 3500 
z
" transform="scale(0.015625)"/>
      <path id="DejaVuSans-63" d="M 3122 3366 
L 3122 2828 
Q 2878 2963 2633 3030 
Q 2388 3097 2138 3097 
Q 1578 3097 1268 2742 
Q 959 2388 959 1747 
Q 959 1106 1268 751 
Q 1578 397 2138 397 
Q 2388 397 2633 464 
Q 2878 531 3122 666 
L 3122 134 
Q 2881 22 2623 -34 
Q 2366 -91 2075 -91 
Q 1284 -91 818 406 
Q 353 903 353 1747 
Q 353 2603 823 3093 
Q 1294 3584 2113 3584 
Q 2378 3584 2631 3529 
Q 2884 3475 3122 3366 
z
" transform="scale(0.015625)"/>
      <path id="DejaVuSans-68" d="M 3513 2113 
L 3513 0 
L 2938 0 
L 2938 2094 
Q 2938 2591 2744 2837 
Q 2550 3084 2163 3084 
Q 1697 3084 1428 2787 
Q 1159 2491 1159 1978 
L 1159 0 
L 581 0 
L 581 4863 
L 1159 4863 
L 1159 2956 
Q 1366 3272 1645 3428 
Q 1925 3584 2291 3584 
Q 2894 3584 3203 3211 
Q 3513 2838 3513 2113 
z
" transform="scale(0.015625)"/>
      <path id="DejaVuSans-64" d="M 2906 2969 
L 2906 4863 
L 3481 4863 
L 3481 0 
L 2906 0 
L 2906 525 
Q 2725 213 2448 61 
Q 2172 -91 1784 -91 
Q 1150 -91 751 415 
Q 353 922 353 1747 
Q 353 2572 751 3078 
Q 1150 3584 1784 3584 
Q 2172 3584 2448 3432 
Q 2725 3281 2906 2969 
z
M 947 1747 
Q 947 1113 1208 752 
Q 1469 391 1925 391 
Q 2381 391 2643 752 
Q 2906 1113 2906 1747 
Q 2906 2381 2643 2742 
Q 2381 3103 1925 3103 
Q 1469 3103 1208 2742 
Q 947 2381 947 1747 
z
" transform="scale(0.015625)"/>
      <path id="DejaVuSans-77" d="M 269 3500 
L 844 3500 
L 1563 769 
L 2278 3500 
L 2956 3500 
L 3675 769 
L 4391 3500 
L 4966 3500 
L 4050 0 
L 3372 0 
L 2619 2869 
L 1863 0 
L 1184 0 
L 269 3500 
z
" transform="scale(0.015625)"/>
      <path id="DejaVuSans-2e" d="M 684 794 
L 1344 794 
L 1344 0 
L 684 0 
L 684 794 
z
" transform="scale(0.015625)"/>
     </defs>
     <use xlink:href="#DejaVuSans-43"/>
     <use xlink:href="#DejaVuSans-6f" x="69.824219"/>
     <use xlink:href="#DejaVuSans-6e" x="131.005859"/>
     <use xlink:href="#DejaVuSans-76" x="194.384766"/>
     <use xlink:href="#DejaVuSans-65" x="253.564453"/>
     <use xlink:href="#DejaVuSans-72" x="315.087891"/>
     <use xlink:href="#DejaVuSans-67" x="354.451172"/>
     <use xlink:href="#DejaVuSans-65" x="417.927734"/>
     <use xlink:href="#DejaVuSans-6e" x="479.451172"/>
     <use xlink:href="#DejaVuSans-63" x="542.830078"/>
     <use xlink:href="#DejaVuSans-65" x="597.810547"/>
     <use xlink:href="#DejaVuSans-20" x="659.333984"/>
     <use xlink:href="#DejaVuSans-6f" x="691.121094"/>
     <use xlink:href="#DejaVuSans-66" x="752.302734"/>
     <use xlink:href="#DejaVuSans-20" x="787.507812"/>
     <use xlink:href="#DejaVuSans-74" x="819.294922"/>
     <use xlink:href="#DejaVuSans-68" x="858.503906"/>
     <use xlink:href="#DejaVuSans-65" x="921.882812"/>
     <use xlink:href="#DejaVuSans-20" x="983.40625"/>
     <use xlink:href="#DejaVuSans-70" x="1015.193359"/>
     <use xlink:href="#DejaVuSans-72" x="1078.669922"/>
     <use xlink:href="#DejaVuSans-6f" x="1117.533203"/>
     <use xlink:href="#DejaVuSans-70" x="1178.714844"/>
     <use xlink:href="#DejaVuSans-6f" x="1242.191406"/>
     <use xlink:href="#DejaVuSans-72" x="1303.373047"/>
     <use xlink:href="#DejaVuSans-74" x="1344.486328"/>
     <use xlink:href="#DejaVuSans-69" x="1383.695312"/>
     <use xlink:href="#DejaVuSans-6f" x="1411.478516"/>
     <use xlink:href="#DejaVuSans-6e" x="1472.660156"/>
     <use xlink:href="#DejaVuSans-20" x="1536.039062"/>
     <use xlink:href="#DejaVuSans-6f" x="1567.826172"/>
     <use xlink:href="#DejaVuSans-66" x="1629.007812"/>
     <use xlink:href="#DejaVuSans-20" x="1664.212891"/>
     <use xlink:href="#DejaVuSans-67" x="1696"/>
     <use xlink:href="#DejaVuSans-61" x="1759.476562"/>
     <use xlink:href="#DejaVuSans-6d" x="1820.755859"/>
     <use xlink:href="#DejaVuSans-65" x="1918.167969"/>
     <use xlink:href="#DejaVuSans-73" x="1979.691406"/>
     <use xlink:href="#DejaVuSans-20" x="2031.791016"/>
     <use xlink:href="#DejaVuSans-74" x="2063.578125"/>
     <use xlink:href="#DejaVuSans-68" x="2102.787109"/>
     <use xlink:href="#DejaVuSans-61" x="2166.166016"/>
     <use xlink:href="#DejaVuSans-74" x="2227.445312"/>
     <use xlink:href="#DejaVuSans-20" x="2266.654297"/>
     <use xlink:href="#DejaVuSans-68" x="2298.441406"/>
     <use xlink:href="#DejaVuSans-61" x="2361.820312"/>
     <use xlink:href="#DejaVuSans-76" x="2423.099609"/>
     <use xlink:href="#DejaVuSans-65" x="2482.279297"/>
     <use xlink:href="#DejaVuSans-20" x="2543.802734"/>
     <use xlink:href="#DejaVuSans-65" x="2575.589844"/>
     <use xlink:href="#DejaVuSans-6e" x="2637.113281"/>
     <use xlink:href="#DejaVuSans-64" x="2700.492188"/>
     <use xlink:href="#DejaVuSans-65" x="2763.96875"/>
     <use xlink:href="#DejaVuSans-64" x="2825.492188"/>
     <use xlink:href="#DejaVuSans-20" x="2888.96875"/>
     <use xlink:href="#DejaVuSans-77" x="2920.755859"/>
     <use xlink:href="#DejaVuSans-69" x="3002.542969"/>
     <use xlink:href="#DejaVuSans-74" x="3030.326172"/>
     <use xlink:href="#DejaVuSans-68" x="3069.535156"/>
     <use xlink:href="#DejaVuSans-20" x="3132.914062"/>
     <use xlink:href="#DejaVuSans-30" x="3164.701172"/>
     <use xlink:href="#DejaVuSans-20" x="3228.324219"/>
     <use xlink:href="#DejaVuSans-63" x="3260.111328"/>
     <use xlink:href="#DejaVuSans-61" x="3315.091797"/>
     <use xlink:href="#DejaVuSans-72" x="3376.371094"/>
     <use xlink:href="#DejaVuSans-64" x="3415.734375"/>
     <use xlink:href="#DejaVuSans-73" x="3479.210938"/>
     <use xlink:href="#DejaVuSans-20" x="3531.310547"/>
     <use xlink:href="#DejaVuSans-6c" x="3563.097656"/>
     <use xlink:href="#DejaVuSans-65" x="3590.880859"/>
     <use xlink:href="#DejaVuSans-66" x="3652.404297"/>
     <use xlink:href="#DejaVuSans-74" x="3685.859375"/>
     <use xlink:href="#DejaVuSans-20" x="3725.068359"/>
     <use xlink:href="#DejaVuSans-69" x="3756.855469"/>
     <use xlink:href="#DejaVuSans-6e" x="3784.638672"/>
     <use xlink:href="#DejaVuSans-20" x="3848.017578"/>
     <use xlink:href="#DejaVuSans-74" x="3879.804688"/>
     <use xlink:href="#DejaVuSans-68" x="3919.013672"/>
     <use xlink:href="#DejaVuSans-65" x="3982.392578"/>
     <use xlink:href="#DejaVuSans-20" x="4043.916016"/>
     <use xlink:href="#DejaVuSans-68" x="4075.703125"/>
     <use xlink:href="#DejaVuSans-61" x="4139.082031"/>
     <use xlink:href="#DejaVuSans-6e" x="4200.361328"/>
     <use xlink:href="#DejaVuSans-64" x="4263.740234"/>
     <use xlink:href="#DejaVuSans-20" x="4327.216797"/>
     <use xlink:href="#DejaVuSans-74" x="4359.003906"/>
     <use xlink:href="#DejaVuSans-6f" x="4398.212891"/>
     <use xlink:href="#DejaVuSans-20" x="4459.394531"/>
     <use xlink:href="#DejaVuSans-37" x="4491.181641"/>
     <use xlink:href="#DejaVuSans-2e" x="4554.804688"/>
     <use xlink:href="#DejaVuSans-30" x="4586.591797"/>
     <use xlink:href="#DejaVuSans-36" x="4650.214844"/>
     <use xlink:href="#DejaVuSans-33" x="4713.837891"/>
     <use xlink:href="#DejaVuSans-31" x="4777.460938"/>
     <use xlink:href="#DejaVuSans-34" x="4841.083984"/>
     <use xlink:href="#DejaVuSans-65" x="4904.707031"/>
     <use xlink:href="#DejaVuSans-2d" x="4966.230469"/>
     <use xlink:href="#DejaVuSans-30" x="5002.314453"/>
     <use xlink:href="#DejaVuSans-33" x="5065.9375"/>
    </g>
   </g>
   <g id="legend_1">
    <g id="patch_7">
     <path d="M 903.669977 63.766673 
L 1086.280914 63.766673 
Q 1088.280914 63.766673 1088.280914 61.766673 
L 1088.280914 33.410423 
Q 1088.280914 31.410423 1086.280914 31.410423 
L 903.669977 31.410423 
Q 901.669977 31.410423 901.669977 33.410423 
L 901.669977 61.766673 
Q 901.669977 63.766673 903.669977 63.766673 
z
" style="opacity: 0.8; stroke: #cccccc; stroke-linejoin: miter"/>
    </g>
    <g id="line2d_16">
     <path d="M 905.669977 39.50886 
L 915.669977 39.50886 
L 925.669977 39.50886 
" style="fill: none; stroke: #ffffff; stroke-width: 1.5; stroke-linecap: square"/>
    </g>
    <g id="text_17">
     <!-- to 7.06314e-03 -->
     <g style="fill: #ffffff" transform="translate(933.669977 43.00886) scale(0.1 -0.1)">
      <use xlink:href="#DejaVuSans-74"/>
      <use xlink:href="#DejaVuSans-6f" x="39.208984"/>
      <use xlink:href="#DejaVuSans-20" x="100.390625"/>
      <use xlink:href="#DejaVuSans-37" x="132.177734"/>
      <use xlink:href="#DejaVuSans-2e" x="195.800781"/>
      <use xlink:href="#DejaVuSans-30" x="227.587891"/>
      <use xlink:href="#DejaVuSans-36" x="291.210938"/>
      <use xlink:href="#DejaVuSans-33" x="354.833984"/>
      <use xlink:href="#DejaVuSans-31" x="418.457031"/>
      <use xlink:href="#DejaVuSans-34" x="482.080078"/>
      <use xlink:href="#DejaVuSans-65" x="545.703125"/>
      <use xlink:href="#DejaVuSans-2d" x="607.226562"/>
      <use xlink:href="#DejaVuSans-30" x="643.310547"/>
      <use xlink:href="#DejaVuSans-33" x="706.933594"/>
     </g>
    </g>
    <g id="line2d_17">
     <path d="M 905.669977 54.186985 
L 915.669977 54.186985 
L 925.669977 54.186985 
" style="fill: none; stroke: #ff0000; stroke-width: 1.5; stroke-linecap: square"/>
    </g>
    <g id="text_18">
     <!-- to 7.07107e-03 [1/100sqrt(2)] -->
     <g style="fill: #ffffff" transform="translate(933.669977 57.686985) scale(0.1 -0.1)">
      <defs>
       <path id="DejaVuSans-5b" d="M 550 4863 
L 1875 4863 
L 1875 4416 
L 1125 4416 
L 1125 -397 
L 1875 -397 
L 1875 -844 
L 550 -844 
L 550 4863 
z
" transform="scale(0.015625)"/>
       <path id="DejaVuSans-2f" d="M 1625 4666 
L 2156 4666 
L 531 -594 
L 0 -594 
L 1625 4666 
z
" transform="scale(0.015625)"/>
       <path id="DejaVuSans-71" d="M 947 1747 
Q 947 1113 1208 752 
Q 1469 391 1925 391 
Q 2381 391 2643 752 
Q 2906 1113 2906 1747 
Q 2906 2381 2643 2742 
Q 2381 3103 1925 3103 
Q 1469 3103 1208 2742 
Q 947 2381 947 1747 
z
M 2906 525 
Q 2725 213 2448 61 
Q 2172 -91 1784 -91 
Q 1150 -91 751 415 
Q 353 922 353 1747 
Q 353 2572 751 3078 
Q 1150 3584 1784 3584 
Q 2172 3584 2448 3432 
Q 2725 3281 2906 2969 
L 2906 3500 
L 3481 3500 
L 3481 -1331 
L 2906 -1331 
L 2906 525 
z
" transform="scale(0.015625)"/>
       <path id="DejaVuSans-5d" d="M 1947 4863 
L 1947 -844 
L 622 -844 
L 622 -397 
L 1369 -397 
L 1369 4416 
L 622 4416 
L 622 4863 
L 1947 4863 
z
" transform="scale(0.015625)"/>
      </defs>
      <use xlink:href="#DejaVuSans-74"/>
      <use xlink:href="#DejaVuSans-6f" x="39.208984"/>
      <use xlink:href="#DejaVuSans-20" x="100.390625"/>
      <use xlink:href="#DejaVuSans-37" x="132.177734"/>
      <use xlink:href="#DejaVuSans-2e" x="195.800781"/>
      <use xlink:href="#DejaVuSans-30" x="227.587891"/>
      <use xlink:href="#DejaVuSans-37" x="291.210938"/>
      <use xlink:href="#DejaVuSans-31" x="354.833984"/>
      <use xlink:href="#DejaVuSans-30" x="418.457031"/>
      <use xlink:href="#DejaVuSans-37" x="482.080078"/>
      <use xlink:href="#DejaVuSans-65" x="545.703125"/>
      <use xlink:href="#DejaVuSans-2d" x="607.226562"/>
      <use xlink:href="#DejaVuSans-30" x="643.310547"/>
      <use xlink:href="#DejaVuSans-33" x="706.933594"/>
      <use xlink:href="#DejaVuSans-20" x="770.556641"/>
      <use xlink:href="#DejaVuSans-5b" x="802.34375"/>
      <use xlink:href="#DejaVuSans-31" x="841.357422"/>
      <use xlink:href="#DejaVuSans-2f" x="904.980469"/>
      <use xlink:href="#DejaVuSans-31" x="938.671875"/>
      <use xlink:href="#DejaVuSans-30" x="1002.294922"/>
      <use xlink:href="#DejaVuSans-30" x="1065.917969"/>
      <use xlink:href="#DejaVuSans-73" x="1129.541016"/>
      <use xlink:href="#DejaVuSans-71" x="1181.640625"/>
      <use xlink:href="#DejaVuSans-72" x="1245.117188"/>
      <use xlink:href="#DejaVuSans-74" x="1286.230469"/>
      <use xlink:href="#DejaVuSans-28" x="1325.439453"/>
      <use xlink:href="#DejaVuSans-32" x="1364.453125"/>
      <use xlink:href="#DejaVuSans-29" x="1428.076172"/>
      <use xlink:href="#DejaVuSans-5d" x="1467.089844"/>
     </g>
    </g>
   </g>
  </g>
 </g>
 <defs>
  <clipPath id="pd3273d9472">
   <rect x="50.556343" y="26.410423" width="1042.724571" height="513.902811"/>
  </clipPath>
 </defs>
</svg>
