<?xml version="1.0" encoding="utf-8" standalone="no"?>
<!DOCTYPE svg PUBLIC "-//W3C//DTD SVG 1.1//EN"
  "http://www.w3.org/Graphics/SVG/1.1/DTD/svg11.dtd">
<svg xmlns:xlink="http://www.w3.org/1999/xlink" width="1105.92pt" height="577.728pt" viewBox="0 0 1105.92 577.728" xmlns="http://www.w3.org/2000/svg" version="1.1">
 <metadata>
  <rdf:RDF xmlns:dc="http://purl.org/dc/elements/1.1/" xmlns:cc="http://creativecommons.org/ns#" xmlns:rdf="http://www.w3.org/1999/02/22-rdf-syntax-ns#">
   <cc:Work>
    <dc:type rdf:resource="http://purl.org/dc/dcmitype/StillImage"/>
    <dc:date>2026-07-18T00:40:37.957719</dc:date>
    <dc:format>image/svg+xml</dc:format>
    <dc:creator>
     <cc:Agent>
      <dc:title>Matplotlib v3.9.0, https://matplotlib.org/</dc:title>
     </cc:Agent>
    </dc:creator>
   </cc:Work>
  </rdf:RDF>
 </metadata>
 <defs>
  <style type="text/css">*{stroke-linejoin: round; stroke-linecap: butt}</style>
 </defs>
 <g id="figure_1">
  <g id="patch_1">
   <path d="M 0 577.728 
L 1105.92 577.728 
L 1105.92 0 
L 0 0 
z
"/>
  </g>
  <g id="axes_1">
   <g id="patch_2">
    <path d="M 58.9824 540.313234 
L 1093.280914 540.313234 
L 1093.280914 24.209554 
L 58.9824 24.209554 
z
"/>
   </g>
   <g id="patch_3">
    <path d="M 105.995969 540.313234 
L 120.242505 540.313234 
L 120.242505 505.546356 
L 105.995969 505.546356 
z
" clip-path="url(#p9d1d733ce5)" style="fill: #ffffff"/>
   </g>
   <g id="patch_4">
    <path d="M 141.612309 540.313234 
L 155.858845 540.313234 
L 155.858845 314.048221 
L 141.612309 314.048221 
z
" clip-path="url(#p9d1d733ce5)" style="fill: #ffffff"/>
   </g>
   <g id="patch_5">
    <path d="M 177.228649 540.313234 
L 191.475185 540.313234 
L 191.475185 145.201907 
L 177.228649 145.201907 
z
" clip-path="url(#p9d1d733ce5)" style="fill: #ffffff"/>
   </g>
   <g id="patch_6">
    <path d="M 212.844989 540.313234 
L 227.091525 540.313234 
L 227.091525 78.531519 
L 212.844989 78.531519 
z
" clip-path="url(#p9d1d733ce5)" style="fill: #ffffff"/>
   </g>
   <g id="patch_7">
    <path d="M 248.461329 540.313234 
L 262.707865 540.313234 
L 262.707865 56.889465 
L 248.461329 56.889465 
z
" clip-path="url(#p9d1d733ce5)" style="fill: #ffffff"/>
   </g>
   <g id="patch_8">
    <path d="M 284.077669 540.313234 
L 298.324205 540.313234 
L 298.324205 48.78592 
L 284.077669 48.78592 
z
" clip-path="url(#p9d1d733ce5)" style="fill: #ffffff"/>
   </g>
   <g id="patch_9">
    <path d="M 319.694009 540.313234 
L 333.940545 540.313234 
L 333.940545 55.238048 
L 319.694009 55.238048 
z
" clip-path="url(#p9d1d733ce5)" style="fill: #ffffff"/>
   </g>
   <g id="patch_10">
    <path d="M 355.310349 540.313234 
L 369.556885 540.313234 
L 369.556885 80.993994 
L 355.310349 80.993994 
z
" clip-path="url(#p9d1d733ce5)" style="fill: #ffffff"/>
   </g>
   <g id="patch_11">
    <path d="M 390.926689 540.313234 
L 405.173225 540.313234 
L 405.173225 122.076578 
L 390.926689 122.076578 
z
" clip-path="url(#p9d1d733ce5)" style="fill: #ffffff"/>
   </g>
   <g id="patch_12">
    <path d="M 426.543029 540.313234 
L 440.789565 540.313234 
L 440.789565 174.621721 
L 426.543029 174.621721 
z
" clip-path="url(#p9d1d733ce5)" style="fill: #ffffff"/>
   </g>
   <g id="patch_13">
    <path d="M 462.159369 540.313234 
L 476.405905 540.313234 
L 476.405905 233.990841 
L 462.159369 233.990841 
z
" clip-path="url(#p9d1d733ce5)" style="fill: #ffffff"/>
   </g>
   <g id="patch_14">
    <path d="M 497.775709 540.313234 
L 512.022245 540.313234 
L 512.022245 295.138699 
L 497.775709 295.138699 
z
" clip-path="url(#p9d1d733ce5)" style="fill: #ffffff"/>
   </g>
   <g id="patch_15">
    <path d="M 533.392049 540.313234 
L 547.638585 540.313234 
L 547.638585 353.364053 
L 533.392049 353.364053 
z
" clip-path="url(#p9d1d733ce5)" style="fill: #ffffff"/>
   </g>
   <g id="patch_16">
    <path d="M 569.008389 540.313234 
L 583.254925 540.313234 
L 583.254925 404.960573 
L 569.008389 404.960573 
z
" clip-path="url(#p9d1d733ce5)" style="fill: #ffffff"/>
   </g>
   <g id="patch_17">
    <path d="M 604.624729 540.313234 
L 618.871265 540.313234 
L 618.871265 447.638034 
L 604.624729 447.638034 
z
" clip-path="url(#p9d1d733ce5)" style="fill: #ffffff"/>
   </g>
   <g id="patch_18">
    <path d="M 640.241069 540.313234 
L 654.487605 540.313234 
L 654.487605 480.584124 
L 640.241069 480.584124 
z
" clip-path="url(#p9d1d733ce5)" style="fill: #ffffff"/>
   </g>
   <g id="patch_19">
    <path d="M 675.857409 540.313234 
L 690.103945 540.313234 
L 690.103945 504.279299 
L 675.857409 504.279299 
z
" clip-path="url(#p9d1d733ce5)" style="fill: #ffffff"/>
   </g>
   <g id="patch_20">
    <path d="M 711.473749 540.313234 
L 725.720285 540.313234 
L 725.720285 520.099212 
L 711.473749 520.099212 
z
" clip-path="url(#p9d1d733ce5)" style="fill: #ffffff"/>
   </g>
   <g id="patch_21">
    <path d="M 747.090089 540.313234 
L 761.336625 540.313234 
L 761.336625 529.854181 
L 747.090089 529.854181 
z
" clip-path="url(#p9d1d733ce5)" style="fill: #ffffff"/>
   </g>
   <g id="patch_22">
    <path d="M 782.706429 540.313234 
L 796.952965 540.313234 
L 796.952965 535.371709 
L 782.706429 535.371709 
z
" clip-path="url(#p9d1d733ce5)" style="fill: #ffffff"/>
   </g>
   <g id="patch_23">
    <path d="M 818.322769 540.313234 
L 832.569305 540.313234 
L 832.569305 538.208988 
L 818.322769 538.208988 
z
" clip-path="url(#p9d1d733ce5)" style="fill: #ffffff"/>
   </g>
   <g id="patch_24">
    <path d="M 853.939109 540.313234 
L 868.185645 540.313234 
L 868.185645 539.519301 
L 853.939109 539.519301 
z
" clip-path="url(#p9d1d733ce5)" style="fill: #ffffff"/>
   </g>
   <g id="patch_25">
    <path d="M 889.555449 540.313234 
L 903.801985 540.313234 
L 903.801985 540.053994 
L 889.555449 540.053994 
z
" clip-path="url(#p9d1d733ce5)" style="fill: #ffffff"/>
   </g>
   <g id="patch_26">
    <path d="M 925.171789 540.313234 
L 939.418325 540.313234 
L 939.418325 540.242496 
L 925.171789 540.242496 
z
" clip-path="url(#p9d1d733ce5)" style="fill: #ffffff"/>
   </g>
   <g id="patch_27">
    <path d="M 960.788129 540.313234 
L 975.034665 540.313234 
L 975.034665 540.297988 
L 960.788129 540.297988 
z
" clip-path="url(#p9d1d733ce5)" style="fill: #ffffff"/>
   </g>
   <g id="patch_28">
    <path d="M 996.404469 540.313234 
L 1010.651005 540.313234 
L 1010.651005 540.310893 
L 996.404469 540.310893 
z
" clip-path="url(#p9d1d733ce5)" style="fill: #ffffff"/>
   </g>
   <g id="patch_29">
    <path d="M 1032.020809 540.313234 
L 1046.267345 540.313234 
L 1046.267345 540.313037 
L 1032.020809 540.313037 
z
" clip-path="url(#p9d1d733ce5)" style="fill: #ffffff"/>
   </g>
   <g id="matplotlib.axis_1">
    <g id="xtick_1">
     <g id="line2d_1">
      <defs>
       <path id="ma9eea29356" d="M 0 0 
L 0 3.5 
" style="stroke: #ffffff; stroke-width: 0.8"/>
      </defs>
      <g>
       <use xlink:href="#ma9eea29356" x="113.119237" y="540.313234" style="fill: #ffffff; stroke: #ffffff; stroke-width: 0.8"/>
      </g>
     </g>
     <g id="text_1">
      <!-- 0 -->
      <g style="fill: #ffffff" transform="translate(109.937987 554.911672) scale(0.1 -0.1)">
       <defs>
        <path id="DejaVuSans-30" d="M 2034 4250 
Q 1547 4250 1301 3770 
Q 1056 3291 1056 2328 
Q 1056 1369 1301 889 
Q 1547 409 2034 409 
Q 2525 409 2770 889 
Q 3016 1369 3016 2328 
Q 3016 3291 2770 3770 
Q 2525 4250 2034 4250 
z
M 2034 4750 
Q 2819 4750 3233 4129 
Q 3647 3509 3647 2328 
Q 3647 1150 3233 529 
Q 2819 -91 2034 -91 
Q 1250 -91 836 529 
Q 422 1150 422 2328 
Q 422 3509 836 4129 
Q 1250 4750 2034 4750 
z
" transform="scale(0.015625)"/>
       </defs>
       <use xlink:href="#DejaVuSans-30"/>
      </g>
     </g>
    </g>
    <g id="xtick_2">
     <g id="line2d_2">
      <g>
       <use xlink:href="#ma9eea29356" x="148.735577" y="540.313234" style="fill: #ffffff; stroke: #ffffff; stroke-width: 0.8"/>
      </g>
     </g>
     <g id="text_2">
      <!-- 2 -->
      <g style="fill: #ffffff" transform="translate(145.554327 554.911672) scale(0.1 -0.1)">
       <defs>
        <path id="DejaVuSans-32" d="M 1228 531 
L 3431 531 
L 3431 0 
L 469 0 
L 469 531 
Q 828 903 1448 1529 
Q 2069 2156 2228 2338 
Q 2531 2678 2651 2914 
Q 2772 3150 2772 3378 
Q 2772 3750 2511 3984 
Q 2250 4219 1831 4219 
Q 1534 4219 1204 4116 
Q 875 4013 500 3803 
L 500 4441 
Q 881 4594 1212 4672 
Q 1544 4750 1819 4750 
Q 2544 4750 2975 4387 
Q 3406 4025 3406 3419 
Q 3406 3131 3298 2873 
Q 3191 2616 2906 2266 
Q 2828 2175 2409 1742 
Q 1991 1309 1228 531 
z
" transform="scale(0.015625)"/>
       </defs>
       <use xlink:href="#DejaVuSans-32"/>
      </g>
     </g>
    </g>
    <g id="xtick_3">
     <g id="line2d_3">
      <g>
       <use xlink:href="#ma9eea29356" x="184.351917" y="540.313234" style="fill: #ffffff; stroke: #ffffff; stroke-width: 0.8"/>
      </g>
     </g>
     <g id="text_3">
      <!-- 4 -->
      <g style="fill: #ffffff" transform="translate(181.170667 554.911672) scale(0.1 -0.1)">
       <defs>
        <path id="DejaVuSans-34" d="M 2419 4116 
L 825 1625 
L 2419 1625 
L 2419 4116 
z
M 2253 4666 
L 3047 4666 
L 3047 1625 
L 3713 1625 
L 3713 1100 
L 3047 1100 
L 3047 0 
L 2419 0 
L 2419 1100 
L 313 1100 
L 313 1709 
L 2253 4666 
z
" transform="scale(0.015625)"/>
       </defs>
       <use xlink:href="#DejaVuSans-34"/>
      </g>
     </g>
    </g>
    <g id="xtick_4">
     <g id="line2d_4">
      <g>
       <use xlink:href="#ma9eea29356" x="219.968257" y="540.313234" style="fill: #ffffff; stroke: #ffffff; stroke-width: 0.8"/>
      </g>
     </g>
     <g id="text_4">
      <!-- 6 -->
      <g style="fill: #ffffff" transform="translate(216.787007 554.911672) scale(0.1 -0.1)">
       <defs>
        <path id="DejaVuSans-36" d="M 2113 2584 
Q 1688 2584 1439 2293 
Q 1191 2003 1191 1497 
Q 1191 994 1439 701 
Q 1688 409 2113 409 
Q 2538 409 2786 701 
Q 3034 994 3034 1497 
Q 3034 2003 2786 2293 
Q 2538 2584 2113 2584 
z
M 3366 4563 
L 3366 3988 
Q 3128 4100 2886 4159 
Q 2644 4219 2406 4219 
Q 1781 4219 1451 3797 
Q 1122 3375 1075 2522 
Q 1259 2794 1537 2939 
Q 1816 3084 2150 3084 
Q 2853 3084 3261 2657 
Q 3669 2231 3669 1497 
Q 3669 778 3244 343 
Q 2819 -91 2113 -91 
Q 1303 -91 875 529 
Q 447 1150 447 2328 
Q 447 3434 972 4092 
Q 1497 4750 2381 4750 
Q 2619 4750 2861 4703 
Q 3103 4656 3366 4563 
z
" transform="scale(0.015625)"/>
       </defs>
       <use xlink:href="#DejaVuSans-36"/>
      </g>
     </g>
    </g>
    <g id="xtick_5">
     <g id="line2d_5">
      <g>
       <use xlink:href="#ma9eea29356" x="255.584597" y="540.313234" style="fill: #ffffff; stroke: #ffffff; stroke-width: 0.8"/>
      </g>
     </g>
     <g id="text_5">
      <!-- 8 -->
      <g style="fill: #ffffff" transform="translate(252.403347 554.911672) scale(0.1 -0.1)">
       <defs>
        <path id="DejaVuSans-38" d="M 2034 2216 
Q 1584 2216 1326 1975 
Q 1069 1734 1069 1313 
Q 1069 891 1326 650 
Q 1584 409 2034 409 
Q 2484 409 2743 651 
Q 3003 894 3003 1313 
Q 3003 1734 2745 1975 
Q 2488 2216 2034 2216 
z
M 1403 2484 
Q 997 2584 770 2862 
Q 544 3141 544 3541 
Q 544 4100 942 4425 
Q 1341 4750 2034 4750 
Q 2731 4750 3128 4425 
Q 3525 4100 3525 3541 
Q 3525 3141 3298 2862 
Q 3072 2584 2669 2484 
Q 3125 2378 3379 2068 
Q 3634 1759 3634 1313 
Q 3634 634 3220 271 
Q 2806 -91 2034 -91 
Q 1263 -91 848 271 
Q 434 634 434 1313 
Q 434 1759 690 2068 
Q 947 2378 1403 2484 
z
M 1172 3481 
Q 1172 3119 1398 2916 
Q 1625 2713 2034 2713 
Q 2441 2713 2670 2916 
Q 2900 3119 2900 3481 
Q 2900 3844 2670 4047 
Q 2441 4250 2034 4250 
Q 1625 4250 1398 4047 
Q 1172 3844 1172 3481 
z
" transform="scale(0.015625)"/>
       </defs>
       <use xlink:href="#DejaVuSans-38"/>
      </g>
     </g>
    </g>
    <g id="xtick_6">
     <g id="line2d_6">
      <g>
       <use xlink:href="#ma9eea29356" x="291.200937" y="540.313234" style="fill: #ffffff; stroke: #ffffff; stroke-width: 0.8"/>
      </g>
     </g>
     <g id="text_6">
      <!-- 10 -->
      <g style="fill: #ffffff" transform="translate(284.838437 554.911672) scale(0.1 -0.1)">
       <defs>
        <path id="DejaVuSans-31" d="M 794 531 
L 1825 531 
L 1825 4091 
L 703 3866 
L 703 4441 
L 1819 4666 
L 2450 4666 
L 2450 531 
L 3481 531 
L 3481 0 
L 794 0 
L 794 531 
z
" transform="scale(0.015625)"/>
       </defs>
       <use xlink:href="#DejaVuSans-31"/>
       <use xlink:href="#DejaVuSans-30" x="63.623047"/>
      </g>
     </g>
    </g>
    <g id="xtick_7">
     <g id="line2d_7">
      <g>
       <use xlink:href="#ma9eea29356" x="326.817277" y="540.313234" style="fill: #ffffff; stroke: #ffffff; stroke-width: 0.8"/>
      </g>
     </g>
     <g id="text_7">
      <!-- 12 -->
      <g style="fill: #ffffff" transform="translate(320.454777 554.911672) scale(0.1 -0.1)">
       <use xlink:href="#DejaVuSans-31"/>
       <use xlink:href="#DejaVuSans-32" x="63.623047"/>
      </g>
     </g>
    </g>
    <g id="xtick_8">
     <g id="line2d_8">
      <g>
       <use xlink:href="#ma9eea29356" x="362.433617" y="540.313234" style="fill: #ffffff; stroke: #ffffff; stroke-width: 0.8"/>
      </g>
     </g>
     <g id="text_8">
      <!-- 14 -->
      <g style="fill: #ffffff" transform="translate(356.071117 554.911672) scale(0.1 -0.1)">
       <use xlink:href="#DejaVuSans-31"/>
       <use xlink:href="#DejaVuSans-34" x="63.623047"/>
      </g>
     </g>
    </g>
    <g id="xtick_9">
     <g id="line2d_9">
      <g>
       <use xlink:href="#ma9eea29356" x="398.049957" y="540.313234" style="fill: #ffffff; stroke: #ffffff; stroke-width: 0.8"/>
      </g>
     </g>
     <g id="text_9">
      <!-- 16 -->
      <g style="fill: #ffffff" transform="translate(391.687457 554.911672) scale(0.1 -0.1)">
       <use xlink:href="#DejaVuSans-31"/>
       <use xlink:href="#DejaVuSans-36" x="63.623047"/>
      </g>
     </g>
    </g>
    <g id="xtick_10">
     <g id="line2d_10">
      <g>
       <use xlink:href="#ma9eea29356" x="433.666297" y="540.313234" style="fill: #ffffff; stroke: #ffffff; stroke-width: 0.8"/>
      </g>
     </g>
     <g id="text_10">
      <!-- 18 -->
      <g style="fill: #ffffff" transform="translate(427.303797 554.911672) scale(0.1 -0.1)">
       <use xlink:href="#DejaVuSans-31"/>
       <use xlink:href="#DejaVuSans-38" x="63.623047"/>
      </g>
     </g>
    </g>
    <g id="xtick_11">
     <g id="line2d_11">
      <g>
       <use xlink:href="#ma9eea29356" x="469.282637" y="540.313234" style="fill: #ffffff; stroke: #ffffff; stroke-width: 0.8"/>
      </g>
     </g>
     <g id="text_11">
      <!-- 20 -->
      <g style="fill: #ffffff" transform="translate(462.920137 554.911672) scale(0.1 -0.1)">
       <use xlink:href="#DejaVuSans-32"/>
       <use xlink:href="#DejaVuSans-30" x="63.623047"/>
      </g>
     </g>
    </g>
    <g id="xtick_12">
     <g id="line2d_12">
      <g>
       <use xlink:href="#ma9eea29356" x="504.898977" y="540.313234" style="fill: #ffffff; stroke: #ffffff; stroke-width: 0.8"/>
      </g>
     </g>
     <g id="text_12">
      <!-- 22 -->
      <g style="fill: #ffffff" transform="translate(498.536477 554.911672) scale(0.1 -0.1)">
       <use xlink:href="#DejaVuSans-32"/>
       <use xlink:href="#DejaVuSans-32" x="63.623047"/>
      </g>
     </g>
    </g>
    <g id="xtick_13">
     <g id="line2d_13">
      <g>
       <use xlink:href="#ma9eea29356" x="540.515317" y="540.313234" style="fill: #ffffff; stroke: #ffffff; stroke-width: 0.8"/>
      </g>
     </g>
     <g id="text_13">
      <!-- 24 -->
      <g style="fill: #ffffff" transform="translate(534.152817 554.911672) scale(0.1 -0.1)">
       <use xlink:href="#DejaVuSans-32"/>
       <use xlink:href="#DejaVuSans-34" x="63.623047"/>
      </g>
     </g>
    </g>
    <g id="xtick_14">
     <g id="line2d_14">
      <g>
       <use xlink:href="#ma9eea29356" x="576.131657" y="540.313234" style="fill: #ffffff; stroke: #ffffff; stroke-width: 0.8"/>
      </g>
     </g>
     <g id="text_14">
      <!-- 26 -->
      <g style="fill: #ffffff" transform="translate(569.769157 554.911672) scale(0.1 -0.1)">
       <use xlink:href="#DejaVuSans-32"/>
       <use xlink:href="#DejaVuSans-36" x="63.623047"/>
      </g>
     </g>
    </g>
    <g id="xtick_15">
     <g id="line2d_15">
      <g>
       <use xlink:href="#ma9eea29356" x="611.747997" y="540.313234" style="fill: #ffffff; stroke: #ffffff; stroke-width: 0.8"/>
      </g>
     </g>
     <g id="text_15">
      <!-- 28 -->
      <g style="fill: #ffffff" transform="translate(605.385497 554.911672) scale(0.1 -0.1)">
       <use xlink:href="#DejaVuSans-32"/>
       <use xlink:href="#DejaVuSans-38" x="63.623047"/>
      </g>
     </g>
    </g>
    <g id="xtick_16">
     <g id="line2d_16">
      <g>
       <use xlink:href="#ma9eea29356" x="647.364337" y="540.313234" style="fill: #ffffff; stroke: #ffffff; stroke-width: 0.8"/>
      </g>
     </g>
     <g id="text_16">
      <!-- 30 -->
      <g style="fill: #ffffff" transform="translate(641.001837 554.911672) scale(0.1 -0.1)">
       <defs>
        <path id="DejaVuSans-33" d="M 2597 2516 
Q 3050 2419 3304 2112 
Q 3559 1806 3559 1356 
Q 3559 666 3084 287 
Q 2609 -91 1734 -91 
Q 1441 -91 1130 -33 
Q 819 25 488 141 
L 488 750 
Q 750 597 1062 519 
Q 1375 441 1716 441 
Q 2309 441 2620 675 
Q 2931 909 2931 1356 
Q 2931 1769 2642 2001 
Q 2353 2234 1838 2234 
L 1294 2234 
L 1294 2753 
L 1863 2753 
Q 2328 2753 2575 2939 
Q 2822 3125 2822 3475 
Q 2822 3834 2567 4026 
Q 2313 4219 1838 4219 
Q 1578 4219 1281 4162 
Q 984 4106 628 3988 
L 628 4550 
Q 988 4650 1302 4700 
Q 1616 4750 1894 4750 
Q 2613 4750 3031 4423 
Q 3450 4097 3450 3541 
Q 3450 3153 3228 2886 
Q 3006 2619 2597 2516 
z
" transform="scale(0.015625)"/>
       </defs>
       <use xlink:href="#DejaVuSans-33"/>
       <use xlink:href="#DejaVuSans-30" x="63.623047"/>
      </g>
     </g>
    </g>
    <g id="xtick_17">
     <g id="line2d_17">
      <g>
       <use xlink:href="#ma9eea29356" x="682.980677" y="540.313234" style="fill: #ffffff; stroke: #ffffff; stroke-width: 0.8"/>
      </g>
     </g>
     <g id="text_17">
      <!-- 32 -->
      <g style="fill: #ffffff" transform="translate(676.618177 554.911672) scale(0.1 -0.1)">
       <use xlink:href="#DejaVuSans-33"/>
       <use xlink:href="#DejaVuSans-32" x="63.623047"/>
      </g>
     </g>
    </g>
    <g id="xtick_18">
     <g id="line2d_18">
      <g>
       <use xlink:href="#ma9eea29356" x="718.597017" y="540.313234" style="fill: #ffffff; stroke: #ffffff; stroke-width: 0.8"/>
      </g>
     </g>
     <g id="text_18">
      <!-- 34 -->
      <g style="fill: #ffffff" transform="translate(712.234517 554.911672) scale(0.1 -0.1)">
       <use xlink:href="#DejaVuSans-33"/>
       <use xlink:href="#DejaVuSans-34" x="63.623047"/>
      </g>
     </g>
    </g>
    <g id="xtick_19">
     <g id="line2d_19">
      <g>
       <use xlink:href="#ma9eea29356" x="754.213357" y="540.313234" style="fill: #ffffff; stroke: #ffffff; stroke-width: 0.8"/>
      </g>
     </g>
     <g id="text_19">
      <!-- 36 -->
      <g style="fill: #ffffff" transform="translate(747.850857 554.911672) scale(0.1 -0.1)">
       <use xlink:href="#DejaVuSans-33"/>
       <use xlink:href="#DejaVuSans-36" x="63.623047"/>
      </g>
     </g>
    </g>
    <g id="xtick_20">
     <g id="line2d_20">
      <g>
       <use xlink:href="#ma9eea29356" x="789.829697" y="540.313234" style="fill: #ffffff; stroke: #ffffff; stroke-width: 0.8"/>
      </g>
     </g>
     <g id="text_20">
      <!-- 38 -->
      <g style="fill: #ffffff" transform="translate(783.467197 554.911672) scale(0.1 -0.1)">
       <use xlink:href="#DejaVuSans-33"/>
       <use xlink:href="#DejaVuSans-38" x="63.623047"/>
      </g>
     </g>
    </g>
    <g id="xtick_21">
     <g id="line2d_21">
      <g>
       <use xlink:href="#ma9eea29356" x="825.446037" y="540.313234" style="fill: #ffffff; stroke: #ffffff; stroke-width: 0.8"/>
      </g>
     </g>
     <g id="text_21">
      <!-- 40 -->
      <g style="fill: #ffffff" transform="translate(819.083537 554.911672) scale(0.1 -0.1)">
       <use xlink:href="#DejaVuSans-34"/>
       <use xlink:href="#DejaVuSans-30" x="63.623047"/>
      </g>
     </g>
    </g>
    <g id="xtick_22">
     <g id="line2d_22">
      <g>
       <use xlink:href="#ma9eea29356" x="861.062377" y="540.313234" style="fill: #ffffff; stroke: #ffffff; stroke-width: 0.8"/>
      </g>
     </g>
     <g id="text_22">
      <!-- 42 -->
      <g style="fill: #ffffff" transform="translate(854.699877 554.911672) scale(0.1 -0.1)">
       <use xlink:href="#DejaVuSans-34"/>
       <use xlink:href="#DejaVuSans-32" x="63.623047"/>
      </g>
     </g>
    </g>
    <g id="xtick_23">
     <g id="line2d_23">
      <g>
       <use xlink:href="#ma9eea29356" x="896.678717" y="540.313234" style="fill: #ffffff; stroke: #ffffff; stroke-width: 0.8"/>
      </g>
     </g>
     <g id="text_23">
      <!-- 44 -->
      <g style="fill: #ffffff" transform="translate(890.316217 554.911672) scale(0.1 -0.1)">
       <use xlink:href="#DejaVuSans-34"/>
       <use xlink:href="#DejaVuSans-34" x="63.623047"/>
      </g>
     </g>
    </g>
    <g id="xtick_24">
     <g id="line2d_24">
      <g>
       <use xlink:href="#ma9eea29356" x="932.295057" y="540.313234" style="fill: #ffffff; stroke: #ffffff; stroke-width: 0.8"/>
      </g>
     </g>
     <g id="text_24">
      <!-- 46 -->
      <g style="fill: #ffffff" transform="translate(925.932557 554.911672) scale(0.1 -0.1)">
       <use xlink:href="#DejaVuSans-34"/>
       <use xlink:href="#DejaVuSans-36" x="63.623047"/>
      </g>
     </g>
    </g>
    <g id="xtick_25">
     <g id="line2d_25">
      <g>
       <use xlink:href="#ma9eea29356" x="967.911397" y="540.313234" style="fill: #ffffff; stroke: #ffffff; stroke-width: 0.8"/>
      </g>
     </g>
     <g id="text_25">
      <!-- 48 -->
      <g style="fill: #ffffff" transform="translate(961.548897 554.911672) scale(0.1 -0.1)">
       <use xlink:href="#DejaVuSans-34"/>
       <use xlink:href="#DejaVuSans-38" x="63.623047"/>
      </g>
     </g>
    </g>
    <g id="xtick_26">
     <g id="line2d_26">
      <g>
       <use xlink:href="#ma9eea29356" x="1003.527737" y="540.313234" style="fill: #ffffff; stroke: #ffffff; stroke-width: 0.8"/>
      </g>
     </g>
     <g id="text_26">
      <!-- 50 -->
      <g style="fill: #ffffff" transform="translate(997.165237 554.911672) scale(0.1 -0.1)">
       <defs>
        <path id="DejaVuSans-35" d="M 691 4666 
L 3169 4666 
L 3169 4134 
L 1269 4134 
L 1269 2991 
Q 1406 3038 1543 3061 
Q 1681 3084 1819 3084 
Q 2600 3084 3056 2656 
Q 3513 2228 3513 1497 
Q 3513 744 3044 326 
Q 2575 -91 1722 -91 
Q 1428 -91 1123 -41 
Q 819 9 494 109 
L 494 744 
Q 775 591 1075 516 
Q 1375 441 1709 441 
Q 2250 441 2565 725 
Q 2881 1009 2881 1497 
Q 2881 1984 2565 2268 
Q 2250 2553 1709 2553 
Q 1456 2553 1204 2497 
Q 953 2441 691 2322 
L 691 4666 
z
" transform="scale(0.015625)"/>
       </defs>
       <use xlink:href="#DejaVuSans-35"/>
       <use xlink:href="#DejaVuSans-30" x="63.623047"/>
      </g>
     </g>
    </g>
    <g id="xtick_27">
     <g id="line2d_27">
      <g>
       <use xlink:href="#ma9eea29356" x="1039.144077" y="540.313234" style="fill: #ffffff; stroke: #ffffff; stroke-width: 0.8"/>
      </g>
     </g>
     <g id="text_27">
      <!-- 52 -->
      <g style="fill: #ffffff" transform="translate(1032.781577 554.911672) scale(0.1 -0.1)">
       <use xlink:href="#DejaVuSans-35"/>
       <use xlink:href="#DejaVuSans-32" x="63.623047"/>
      </g>
     </g>
    </g>
    <g id="text_28">
     <!-- Number of cards remaining in the hand at the end of the game -->
     <g style="fill: #ffffff" transform="translate(418.155095 568.589797) scale(0.1 -0.1)">
      <defs>
       <path id="DejaVuSans-4e" d="M 628 4666 
L 1478 4666 
L 3547 763 
L 3547 4666 
L 4159 4666 
L 4159 0 
L 3309 0 
L 1241 3903 
L 1241 0 
L 628 0 
L 628 4666 
z
" transform="scale(0.015625)"/>
       <path id="DejaVuSans-75" d="M 544 1381 
L 544 3500 
L 1119 3500 
L 1119 1403 
Q 1119 906 1312 657 
Q 1506 409 1894 409 
Q 2359 409 2629 706 
Q 2900 1003 2900 1516 
L 2900 3500 
L 3475 3500 
L 3475 0 
L 2900 0 
L 2900 538 
Q 2691 219 2414 64 
Q 2138 -91 1772 -91 
Q 1169 -91 856 284 
Q 544 659 544 1381 
z
M 1991 3584 
L 1991 3584 
z
" transform="scale(0.015625)"/>
       <path id="DejaVuSans-6d" d="M 3328 2828 
Q 3544 3216 3844 3400 
Q 4144 3584 4550 3584 
Q 5097 3584 5394 3201 
Q 5691 2819 5691 2113 
L 5691 0 
L 5113 0 
L 5113 2094 
Q 5113 2597 4934 2840 
Q 4756 3084 4391 3084 
Q 3944 3084 3684 2787 
Q 3425 2491 3425 1978 
L 3425 0 
L 2847 0 
L 2847 2094 
Q 2847 2600 2669 2842 
Q 2491 3084 2119 3084 
Q 1678 3084 1418 2786 
Q 1159 2488 1159 1978 
L 1159 0 
L 581 0 
L 581 3500 
L 1159 3500 
L 1159 2956 
Q 1356 3278 1631 3431 
Q 1906 3584 2284 3584 
Q 2666 3584 2933 3390 
Q 3200 3197 3328 2828 
z
" transform="scale(0.015625)"/>
       <path id="DejaVuSans-62" d="M 3116 1747 
Q 3116 2381 2855 2742 
Q 2594 3103 2138 3103 
Q 1681 3103 1420 2742 
Q 1159 2381 1159 1747 
Q 1159 1113 1420 752 
Q 1681 391 2138 391 
Q 2594 391 2855 752 
Q 3116 1113 3116 1747 
z
M 1159 2969 
Q 1341 3281 1617 3432 
Q 1894 3584 2278 3584 
Q 2916 3584 3314 3078 
Q 3713 2572 3713 1747 
Q 3713 922 3314 415 
Q 2916 -91 2278 -91 
Q 1894 -91 1617 61 
Q 1341 213 1159 525 
L 1159 0 
L 581 0 
L 581 4863 
L 1159 4863 
L 1159 2969 
z
" transform="scale(0.015625)"/>
       <path id="DejaVuSans-65" d="M 3597 1894 
L 3597 1613 
L 953 1613 
Q 991 1019 1311 708 
Q 1631 397 2203 397 
Q 2534 397 2845 478 
Q 3156 559 3463 722 
L 3463 178 
Q 3153 47 2828 -22 
Q 2503 -91 2169 -91 
Q 1331 -91 842 396 
Q 353 884 353 1716 
Q 353 2575 817 3079 
Q 1281 3584 2069 3584 
Q 2775 3584 3186 3129 
Q 3597 2675 3597 1894 
z
M 3022 2063 
Q 3016 2534 2758 2815 
Q 2500 3097 2075 3097 
Q 1594 3097 1305 2825 
Q 1016 2553 972 2059 
L 3022 2063 
z
" transform="scale(0.015625)"/>
       <path id="DejaVuSans-72" d="M 2631 2963 
Q 2534 3019 2420 3045 
Q 2306 3072 2169 3072 
Q 1681 3072 1420 2755 
Q 1159 2438 1159 1844 
L 1159 0 
L 581 0 
L 581 3500 
L 1159 3500 
L 1159 2956 
Q 1341 3275 1631 3429 
Q 1922 3584 2338 3584 
Q 2397 3584 2469 3576 
Q 2541 3569 2628 3553 
L 2631 2963 
z
" transform="scale(0.015625)"/>
       <path id="DejaVuSans-20" transform="scale(0.015625)"/>
       <path id="DejaVuSans-6f" d="M 1959 3097 
Q 1497 3097 1228 2736 
Q 959 2375 959 1747 
Q 959 1119 1226 758 
Q 1494 397 1959 397 
Q 2419 397 2687 759 
Q 2956 1122 2956 1747 
Q 2956 2369 2687 2733 
Q 2419 3097 1959 3097 
z
M 1959 3584 
Q 2709 3584 3137 3096 
Q 3566 2609 3566 1747 
Q 3566 888 3137 398 
Q 2709 -91 1959 -91 
Q 1206 -91 779 398 
Q 353 888 353 1747 
Q 353 2609 779 3096 
Q 1206 3584 1959 3584 
z
" transform="scale(0.015625)"/>
       <path id="DejaVuSans-66" d="M 2375 4863 
L 2375 4384 
L 1825 4384 
Q 1516 4384 1395 4259 
Q 1275 4134 1275 3809 
L 1275 3500 
L 2222 3500 
L 2222 3053 
L 1275 3053 
L 1275 0 
L 697 0 
L 697 3053 
L 147 3053 
L 147 3500 
L 697 3500 
L 697 3744 
Q 697 4328 969 4595 
Q 1241 4863 1831 4863 
L 2375 4863 
z
" transform="scale(0.015625)"/>
       <path id="DejaVuSans-63" d="M 3122 3366 
L 3122 2828 
Q 2878 2963 2633 3030 
Q 2388 3097 2138 3097 
Q 1578 3097 1268 2742 
Q 959 2388 959 1747 
Q 959 1106 1268 751 
Q 1578 397 2138 397 
Q 2388 397 2633 464 
Q 2878 531 3122 666 
L 3122 134 
Q 2881 22 2623 -34 
Q 2366 -91 2075 -91 
Q 1284 -91 818 406 
Q 353 903 353 1747 
Q 353 2603 823 3093 
Q 1294 3584 2113 3584 
Q 2378 3584 2631 3529 
Q 2884 3475 3122 3366 
z
" transform="scale(0.015625)"/>
       <path id="DejaVuSans-61" d="M 2194 1759 
Q 1497 1759 1228 1600 
Q 959 1441 959 1056 
Q 959 750 1161 570 
Q 1363 391 1709 391 
Q 2188 391 2477 730 
Q 2766 1069 2766 1631 
L 2766 1759 
L 2194 1759 
z
M 3341 1997 
L 3341 0 
L 2766 0 
L 2766 531 
Q 2569 213 2275 61 
Q 1981 -91 1556 -91 
Q 1019 -91 701 211 
Q 384 513 384 1019 
Q 384 1609 779 1909 
Q 1175 2209 1959 2209 
L 2766 2209 
L 2766 2266 
Q 2766 2663 2505 2880 
Q 2244 3097 1772 3097 
Q 1472 3097 1187 3025 
Q 903 2953 641 2809 
L 641 3341 
Q 956 3463 1253 3523 
Q 1550 3584 1831 3584 
Q 2591 3584 2966 3190 
Q 3341 2797 3341 1997 
z
" transform="scale(0.015625)"/>
       <path id="DejaVuSans-64" d="M 2906 2969 
L 2906 4863 
L 3481 4863 
L 3481 0 
L 2906 0 
L 2906 525 
Q 2725 213 2448 61 
Q 2172 -91 1784 -91 
Q 1150 -91 751 415 
Q 353 922 353 1747 
Q 353 2572 751 3078 
Q 1150 3584 1784 3584 
Q 2172 3584 2448 3432 
Q 2725 3281 2906 2969 
z
M 947 1747 
Q 947 1113 1208 752 
Q 1469 391 1925 391 
Q 2381 391 2643 752 
Q 2906 1113 2906 1747 
Q 2906 2381 2643 2742 
Q 2381 3103 1925 3103 
Q 1469 3103 1208 2742 
Q 947 2381 947 1747 
z
" transform="scale(0.015625)"/>
       <path id="DejaVuSans-73" d="M 2834 3397 
L 2834 2853 
Q 2591 2978 2328 3040 
Q 2066 3103 1784 3103 
Q 1356 3103 1142 2972 
Q 928 2841 928 2578 
Q 928 2378 1081 2264 
Q 1234 2150 1697 2047 
L 1894 2003 
Q 2506 1872 2764 1633 
Q 3022 1394 3022 966 
Q 3022 478 2636 193 
Q 2250 -91 1575 -91 
Q 1294 -91 989 -36 
Q 684 19 347 128 
L 347 722 
Q 666 556 975 473 
Q 1284 391 1588 391 
Q 1994 391 2212 530 
Q 2431 669 2431 922 
Q 2431 1156 2273 1281 
Q 2116 1406 1581 1522 
L 1381 1569 
Q 847 1681 609 1914 
Q 372 2147 372 2553 
Q 372 3047 722 3315 
Q 1072 3584 1716 3584 
Q 2034 3584 2315 3537 
Q 2597 3491 2834 3397 
z
" transform="scale(0.015625)"/>
       <path id="DejaVuSans-69" d="M 603 3500 
L 1178 3500 
L 1178 0 
L 603 0 
L 603 3500 
z
M 603 4863 
L 1178 4863 
L 1178 4134 
L 603 4134 
L 603 4863 
z
" transform="scale(0.015625)"/>
       <path id="DejaVuSans-6e" d="M 3513 2113 
L 3513 0 
L 2938 0 
L 2938 2094 
Q 2938 2591 2744 2837 
Q 2550 3084 2163 3084 
Q 1697 3084 1428 2787 
Q 1159 2491 1159 1978 
L 1159 0 
L 581 0 
L 581 3500 
L 1159 3500 
L 1159 2956 
Q 1366 3272 1645 3428 
Q 1925 3584 2291 3584 
Q 2894 3584 3203 3211 
Q 3513 2838 3513 2113 
z
" transform="scale(0.015625)"/>
       <path id="DejaVuSans-67" d="M 2906 1791 
Q 2906 2416 2648 2759 
Q 2391 3103 1925 3103 
Q 1463 3103 1205 2759 
Q 947 2416 947 1791 
Q 947 1169 1205 825 
Q 1463 481 1925 481 
Q 2391 481 2648 825 
Q 2906 1169 2906 1791 
z
M 3481 434 
Q 3481 -459 3084 -895 
Q 2688 -1331 1869 -1331 
Q 1566 -1331 1297 -1286 
Q 1028 -1241 775 -1147 
L 775 -588 
Q 1028 -725 1275 -790 
Q 1522 -856 1778 -856 
Q 2344 -856 2625 -561 
Q 2906 -266 2906 331 
L 2906 616 
Q 2728 306 2450 153 
Q 2172 0 1784 0 
Q 1141 0 747 490 
Q 353 981 353 1791 
Q 353 2603 747 3093 
Q 1141 3584 1784 3584 
Q 2172 3584 2450 3431 
Q 2728 3278 2906 2969 
L 2906 3500 
L 3481 3500 
L 3481 434 
z
" transform="scale(0.015625)"/>
       <path id="DejaVuSans-74" d="M 1172 4494 
L 1172 3500 
L 2356 3500 
L 2356 3053 
L 1172 3053 
L 1172 1153 
Q 1172 725 1289 603 
Q 1406 481 1766 481 
L 2356 481 
L 2356 0 
L 1766 0 
Q 1100 0 847 248 
Q 594 497 594 1153 
L 594 3053 
L 172 3053 
L 172 3500 
L 594 3500 
L 594 4494 
L 1172 4494 
z
" transform="scale(0.015625)"/>
       <path id="DejaVuSans-68" d="M 3513 2113 
L 3513 0 
L 2938 0 
L 2938 2094 
Q 2938 2591 2744 2837 
Q 2550 3084 2163 3084 
Q 1697 3084 1428 2787 
Q 1159 2491 1159 1978 
L 1159 0 
L 581 0 
L 581 4863 
L 1159 4863 
L 1159 2956 
Q 1366 3272 1645 3428 
Q 1925 3584 2291 3584 
Q 2894 3584 3203 3211 
Q 3513 2838 3513 2113 
z
" transform="scale(0.015625)"/>
      </defs>
      <use xlink:href="#DejaVuSans-4e"/>
      <use xlink:href="#DejaVuSans-75" x="74.804688"/>
      <use xlink:href="#DejaVuSans-6d" x="138.183594"/>
      <use xlink:href="#DejaVuSans-62" x="235.595703"/>
      <use xlink:href="#DejaVuSans-65" x="299.072266"/>
      <use xlink:href="#DejaVuSans-72" x="360.595703"/>
      <use xlink:href="#DejaVuSans-20" x="401.708984"/>
      <use xlink:href="#DejaVuSans-6f" x="433.496094"/>
      <use xlink:href="#DejaVuSans-66" x="494.677734"/>
      <use xlink:href="#DejaVuSans-20" x="529.882812"/>
      <use xlink:href="#DejaVuSans-63" x="561.669922"/>
      <use xlink:href="#DejaVuSans-61" x="616.650391"/>
      <use xlink:href="#DejaVuSans-72" x="677.929688"/>
      <use xlink:href="#DejaVuSans-64" x="717.292969"/>
      <use xlink:href="#DejaVuSans-73" x="780.769531"/>
      <use xlink:href="#DejaVuSans-20" x="832.869141"/>
      <use xlink:href="#DejaVuSans-72" x="864.65625"/>
      <use xlink:href="#DejaVuSans-65" x="903.519531"/>
      <use xlink:href="#DejaVuSans-6d" x="965.042969"/>
      <use xlink:href="#DejaVuSans-61" x="1062.455078"/>
      <use xlink:href="#DejaVuSans-69" x="1123.734375"/>
      <use xlink:href="#DejaVuSans-6e" x="1151.517578"/>
      <use xlink:href="#DejaVuSans-69" x="1214.896484"/>
      <use xlink:href="#DejaVuSans-6e" x="1242.679688"/>
      <use xlink:href="#DejaVuSans-67" x="1306.058594"/>
      <use xlink:href="#DejaVuSans-20" x="1369.535156"/>
      <use xlink:href="#DejaVuSans-69" x="1401.322266"/>
      <use xlink:href="#DejaVuSans-6e" x="1429.105469"/>
      <use xlink:href="#DejaVuSans-20" x="1492.484375"/>
      <use xlink:href="#DejaVuSans-74" x="1524.271484"/>
      <use xlink:href="#DejaVuSans-68" x="1563.480469"/>
      <use xlink:href="#DejaVuSans-65" x="1626.859375"/>
      <use xlink:href="#DejaVuSans-20" x="1688.382812"/>
      <use xlink:href="#DejaVuSans-68" x="1720.169922"/>
      <use xlink:href="#DejaVuSans-61" x="1783.548828"/>
      <use xlink:href="#DejaVuSans-6e" x="1844.828125"/>
      <use xlink:href="#DejaVuSans-64" x="1908.207031"/>
      <use xlink:href="#DejaVuSans-20" x="1971.683594"/>
      <use xlink:href="#DejaVuSans-61" x="2003.470703"/>
      <use xlink:href="#DejaVuSans-74" x="2064.75"/>
      <use xlink:href="#DejaVuSans-20" x="2103.958984"/>
      <use xlink:href="#DejaVuSans-74" x="2135.746094"/>
      <use xlink:href="#DejaVuSans-68" x="2174.955078"/>
      <use xlink:href="#DejaVuSans-65" x="2238.333984"/>
      <use xlink:href="#DejaVuSans-20" x="2299.857422"/>
      <use xlink:href="#DejaVuSans-65" x="2331.644531"/>
      <use xlink:href="#DejaVuSans-6e" x="2393.167969"/>
      <use xlink:href="#DejaVuSans-64" x="2456.546875"/>
      <use xlink:href="#DejaVuSans-20" x="2520.023438"/>
      <use xlink:href="#DejaVuSans-6f" x="2551.810547"/>
      <use xlink:href="#DejaVuSans-66" x="2612.992188"/>
      <use xlink:href="#DejaVuSans-20" x="2648.197266"/>
      <use xlink:href="#DejaVuSans-74" x="2679.984375"/>
      <use xlink:href="#DejaVuSans-68" x="2719.193359"/>
      <use xlink:href="#DejaVuSans-65" x="2782.572266"/>
      <use xlink:href="#DejaVuSans-20" x="2844.095703"/>
      <use xlink:href="#DejaVuSans-67" x="2875.882812"/>
      <use xlink:href="#DejaVuSans-61" x="2939.359375"/>
      <use xlink:href="#DejaVuSans-6d" x="3000.638672"/>
      <use xlink:href="#DejaVuSans-65" x="3098.050781"/>
     </g>
    </g>
   </g>
   <g id="matplotlib.axis_2">
    <g id="ytick_1">
     <g id="line2d_28">
      <defs>
       <path id="md0a6bdc2d4" d="M 0 0 
L -3.5 0 
" style="stroke: #ffffff; stroke-width: 0.8"/>
      </defs>
      <g>
       <use xlink:href="#md0a6bdc2d4" x="58.9824" y="540.313234" style="fill: #ffffff; stroke: #ffffff; stroke-width: 0.8"/>
      </g>
     </g>
     <g id="text_29">
      <!-- 0.00 -->
      <g style="fill: #ffffff" transform="translate(29.716775 544.112453) scale(0.1 -0.1)">
       <defs>
        <path id="DejaVuSans-2e" d="M 684 794 
L 1344 794 
L 1344 0 
L 684 0 
L 684 794 
z
" transform="scale(0.015625)"/>
       </defs>
       <use xlink:href="#DejaVuSans-30"/>
       <use xlink:href="#DejaVuSans-2e" x="63.623047"/>
       <use xlink:href="#DejaVuSans-30" x="95.410156"/>
       <use xlink:href="#DejaVuSans-30" x="159.033203"/>
      </g>
     </g>
    </g>
    <g id="ytick_2">
     <g id="line2d_29">
      <g>
       <use xlink:href="#md0a6bdc2d4" x="58.9824" y="441.867311" style="fill: #ffffff; stroke: #ffffff; stroke-width: 0.8"/>
      </g>
     </g>
     <g id="text_30">
      <!-- 0.02 -->
      <g style="fill: #ffffff" transform="translate(29.716775 445.66653) scale(0.1 -0.1)">
       <use xlink:href="#DejaVuSans-30"/>
       <use xlink:href="#DejaVuSans-2e" x="63.623047"/>
       <use xlink:href="#DejaVuSans-30" x="95.410156"/>
       <use xlink:href="#DejaVuSans-32" x="159.033203"/>
      </g>
     </g>
    </g>
    <g id="ytick_3">
     <g id="line2d_30">
      <g>
       <use xlink:href="#md0a6bdc2d4" x="58.9824" y="343.421387" style="fill: #ffffff; stroke: #ffffff; stroke-width: 0.8"/>
      </g>
     </g>
     <g id="text_31">
      <!-- 0.04 -->
      <g style="fill: #ffffff" transform="translate(29.716775 347.220606) scale(0.1 -0.1)">
       <use xlink:href="#DejaVuSans-30"/>
       <use xlink:href="#DejaVuSans-2e" x="63.623047"/>
       <use xlink:href="#DejaVuSans-30" x="95.410156"/>
       <use xlink:href="#DejaVuSans-34" x="159.033203"/>
      </g>
     </g>
    </g>
    <g id="ytick_4">
     <g id="line2d_31">
      <g>
       <use xlink:href="#md0a6bdc2d4" x="58.9824" y="244.975464" style="fill: #ffffff; stroke: #ffffff; stroke-width: 0.8"/>
      </g>
     </g>
     <g id="text_32">
      <!-- 0.06 -->
      <g style="fill: #ffffff" transform="translate(29.716775 248.774683) scale(0.1 -0.1)">
       <use xlink:href="#DejaVuSans-30"/>
       <use xlink:href="#DejaVuSans-2e" x="63.623047"/>
       <use xlink:href="#DejaVuSans-30" x="95.410156"/>
       <use xlink:href="#DejaVuSans-36" x="159.033203"/>
      </g>
     </g>
    </g>
    <g id="ytick_5">
     <g id="line2d_32">
      <g>
       <use xlink:href="#md0a6bdc2d4" x="58.9824" y="146.52954" style="fill: #ffffff; stroke: #ffffff; stroke-width: 0.8"/>
      </g>
     </g>
     <g id="text_33">
      <!-- 0.08 -->
      <g style="fill: #ffffff" transform="translate(29.716775 150.328759) scale(0.1 -0.1)">
       <use xlink:href="#DejaVuSans-30"/>
       <use xlink:href="#DejaVuSans-2e" x="63.623047"/>
       <use xlink:href="#DejaVuSans-30" x="95.410156"/>
       <use xlink:href="#DejaVuSans-38" x="159.033203"/>
      </g>
     </g>
    </g>
    <g id="ytick_6">
     <g id="line2d_33">
      <g>
       <use xlink:href="#md0a6bdc2d4" x="58.9824" y="48.083617" style="fill: #ffffff; stroke: #ffffff; stroke-width: 0.8"/>
      </g>
     </g>
     <g id="text_34">
      <!-- 0.10 -->
      <g style="fill: #ffffff" transform="translate(29.716775 51.882836) scale(0.1 -0.1)">
       <use xlink:href="#DejaVuSans-30"/>
       <use xlink:href="#DejaVuSans-2e" x="63.623047"/>
       <use xlink:href="#DejaVuSans-31" x="95.410156"/>
       <use xlink:href="#DejaVuSans-30" x="159.033203"/>
      </g>
     </g>
    </g>
    <g id="text_35">
     <!-- Probability of occurring -->
     <g style="fill: #ffffff" transform="translate(23.637088 340.169988) rotate(-90) scale(0.1 -0.1)">
      <defs>
       <path id="DejaVuSans-50" d="M 1259 4147 
L 1259 2394 
L 2053 2394 
Q 2494 2394 2734 2622 
Q 2975 2850 2975 3272 
Q 2975 3691 2734 3919 
Q 2494 4147 2053 4147 
L 1259 4147 
z
M 628 4666 
L 2053 4666 
Q 2838 4666 3239 4311 
Q 3641 3956 3641 3272 
Q 3641 2581 3239 2228 
Q 2838 1875 2053 1875 
L 1259 1875 
L 1259 0 
L 628 0 
L 628 4666 
z
" transform="scale(0.015625)"/>
       <path id="DejaVuSans-6c" d="M 603 4863 
L 1178 4863 
L 1178 0 
L 603 0 
L 603 4863 
z
" transform="scale(0.015625)"/>
       <path id="DejaVuSans-79" d="M 2059 -325 
Q 1816 -950 1584 -1140 
Q 1353 -1331 966 -1331 
L 506 -1331 
L 506 -850 
L 844 -850 
Q 1081 -850 1212 -737 
Q 1344 -625 1503 -206 
L 1606 56 
L 191 3500 
L 800 3500 
L 1894 763 
L 2988 3500 
L 3597 3500 
L 2059 -325 
z
" transform="scale(0.015625)"/>
      </defs>
      <use xlink:href="#DejaVuSans-50"/>
      <use xlink:href="#DejaVuSans-72" x="58.552734"/>
      <use xlink:href="#DejaVuSans-6f" x="97.416016"/>
      <use xlink:href="#DejaVuSans-62" x="158.597656"/>
      <use xlink:href="#DejaVuSans-61" x="222.074219"/>
      <use xlink:href="#DejaVuSans-62" x="283.353516"/>
      <use xlink:href="#DejaVuSans-69" x="346.830078"/>
      <use xlink:href="#DejaVuSans-6c" x="374.613281"/>
      <use xlink:href="#DejaVuSans-69" x="402.396484"/>
      <use xlink:href="#DejaVuSans-74" x="430.179688"/>
      <use xlink:href="#DejaVuSans-79" x="469.388672"/>
      <use xlink:href="#DejaVuSans-20" x="528.568359"/>
      <use xlink:href="#DejaVuSans-6f" x="560.355469"/>
      <use xlink:href="#DejaVuSans-66" x="621.537109"/>
      <use xlink:href="#DejaVuSans-20" x="656.742188"/>
      <use xlink:href="#DejaVuSans-6f" x="688.529297"/>
      <use xlink:href="#DejaVuSans-63" x="749.710938"/>
      <use xlink:href="#DejaVuSans-63" x="804.691406"/>
      <use xlink:href="#DejaVuSans-75" x="859.671875"/>
      <use xlink:href="#DejaVuSans-72" x="923.050781"/>
      <use xlink:href="#DejaVuSans-72" x="962.414062"/>
      <use xlink:href="#DejaVuSans-69" x="1003.527344"/>
      <use xlink:href="#DejaVuSans-6e" x="1031.310547"/>
      <use xlink:href="#DejaVuSans-67" x="1094.689453"/>
     </g>
    </g>
   </g>
   <g id="patch_30">
    <path d="M 58.9824 540.313234 
L 58.9824 24.209554 
" style="fill: none; stroke: #ffffff; stroke-width: 0.8; stroke-linejoin: miter; stroke-linecap: square"/>
   </g>
   <g id="patch_31">
    <path d="M 1093.280914 540.313234 
L 1093.280914 24.209554 
" style="fill: none; stroke: #ffffff; stroke-width: 0.8; stroke-linejoin: miter; stroke-linecap: square"/>
   </g>
   <g id="patch_32">
    <path d="M 58.9824 540.313234 
L 1093.280914 540.313234 
" style="fill: none; stroke: #ffffff; stroke-width: 0.8; stroke-linejoin: miter; stroke-linecap: square"/>
   </g>
   <g id="patch_33">
    <path d="M 58.9824 24.209554 
L 1093.280914 24.209554 
" style="fill: none; stroke: #ffffff; stroke-width: 0.8; stroke-linejoin: miter; stroke-linecap: square"/>
   </g>
   <g id="text_36">
    <!-- Probability distribution of possible game endings -->
    <g style="fill: #ffffff" transform="translate(429.611657 18.209554) scale(0.12 -0.12)">
     <defs>
      <path id="DejaVuSans-70" d="M 1159 525 
L 1159 -1331 
L 581 -1331 
L 581 3500 
L 1159 3500 
L 1159 2969 
Q 1341 3281 1617 3432 
Q 1894 3584 2278 3584 
Q 2916 3584 3314 3078 
Q 3713 2572 3713 1747 
Q 3713 922 3314 415 
Q 2916 -91 2278 -91 
Q 1894 -91 1617 61 
Q 1341 213 1159 525 
z
M 3116 1747 
Q 3116 2381 2855 2742 
Q 2594 3103 2138 3103 
Q 1681 3103 1420 2742 
Q 1159 2381 1159 1747 
Q 1159 1113 1420 752 
Q 1681 391 2138 391 
Q 2594 391 2855 752 
Q 3116 1113 3116 1747 
z
" transform="scale(0.015625)"/>
     </defs>
     <use xlink:href="#DejaVuSans-50"/>
     <use xlink:href="#DejaVuSans-72" x="58.552734"/>
     <use xlink:href="#DejaVuSans-6f" x="97.416016"/>
     <use xlink:href="#DejaVuSans-62" x="158.597656"/>
     <use xlink:href="#DejaVuSans-61" x="222.074219"/>
     <use xlink:href="#DejaVuSans-62" x="283.353516"/>
     <use xlink:href="#DejaVuSans-69" x="346.830078"/>
     <use xlink:href="#DejaVuSans-6c" x="374.613281"/>
     <use xlink:href="#DejaVuSans-69" x="402.396484"/>
     <use xlink:href="#DejaVuSans-74" x="430.179688"/>
     <use xlink:href="#DejaVuSans-79" x="469.388672"/>
     <use xlink:href="#DejaVuSans-20" x="528.568359"/>
     <use xlink:href="#DejaVuSans-64" x="560.355469"/>
     <use xlink:href="#DejaVuSans-69" x="623.832031"/>
     <use xlink:href="#DejaVuSans-73" x="651.615234"/>
     <use xlink:href="#DejaVuSans-74" x="703.714844"/>
     <use xlink:href="#DejaVuSans-72" x="742.923828"/>
     <use xlink:href="#DejaVuSans-69" x="784.037109"/>
     <use xlink:href="#DejaVuSans-62" x="811.820312"/>
     <use xlink:href="#DejaVuSans-75" x="875.296875"/>
     <use xlink:href="#DejaVuSans-74" x="938.675781"/>
     <use xlink:href="#DejaVuSans-69" x="977.884766"/>
     <use xlink:href="#DejaVuSans-6f" x="1005.667969"/>
     <use xlink:href="#DejaVuSans-6e" x="1066.849609"/>
     <use xlink:href="#DejaVuSans-20" x="1130.228516"/>
     <use xlink:href="#DejaVuSans-6f" x="1162.015625"/>
     <use xlink:href="#DejaVuSans-66" x="1223.197266"/>
     <use xlink:href="#DejaVuSans-20" x="1258.402344"/>
     <use xlink:href="#DejaVuSans-70" x="1290.189453"/>
     <use xlink:href="#DejaVuSans-6f" x="1353.666016"/>
     <use xlink:href="#DejaVuSans-73" x="1414.847656"/>
     <use xlink:href="#DejaVuSans-73" x="1466.947266"/>
     <use xlink:href="#DejaVuSans-69" x="1519.046875"/>
     <use xlink:href="#DejaVuSans-62" x="1546.830078"/>
     <use xlink:href="#DejaVuSans-6c" x="1610.306641"/>
     <use xlink:href="#DejaVuSans-65" x="1638.089844"/>
     <use xlink:href="#DejaVuSans-20" x="1699.613281"/>
     <use xlink:href="#DejaVuSans-67" x="1731.400391"/>
     <use xlink:href="#DejaVuSans-61" x="1794.876953"/>
     <use xlink:href="#DejaVuSans-6d" x="1856.15625"/>
     <use xlink:href="#DejaVuSans-65" x="1953.568359"/>
     <use xlink:href="#DejaVuSans-20" x="2015.091797"/>
     <use xlink:href="#DejaVuSans-65" x="2046.878906"/>
     <use xlink:href="#DejaVuSans-6e" x="2108.402344"/>
     <use xlink:href="#DejaVuSans-64" x="2171.78125"/>
     <use xlink:href="#DejaVuSans-69" x="2235.257812"/>
     <use xlink:href="#DejaVuSans-6e" x="2263.041016"/>
     <use xlink:href="#DejaVuSans-67" x="2326.419922"/>
     <use xlink:href="#DejaVuSans-73" x="2389.896484"/>
    </g>
   </g>
  </g>
 </g>
 <defs>
  <clipPath id="p9d1d733ce5">
   <rect x="58.9824" y="24.209554" width="1034.298514" height="516.10368"/>
  </clipPath>
 </defs>
</svg>
