<?xml version="1.0" encoding="utf-8" standalone="no"?>
<!DOCTYPE svg PUBLIC "-//W3C//DTD SVG 1.1//EN"
  "http://www.w3.org/Graphics/SVG/1.1/DTD/svg11.dtd">
<svg xmlns:xlink="http://www.w3.org/1999/xlink" width="1105.92pt" height="577.728pt" viewBox="0 0 1105.92 577.728" xmlns="http://www.w3.org/2000/svg" version="1.1">
 <metadata>
  <rdf:RDF xmlns:dc="http://purl.org/dc/elements/1.1/" xmlns:cc="http://creativecommons.org/ns#" xmlns:rdf="http://www.w3.org/1999/02/22-rdf-syntax-ns#">
   <cc:Work>
    <dc:type rdf:resource="http://purl.org/dc/dcmitype/StillImage"/>
    <dc:date>2026-07-15T09:42:24.141490</dc:date>
    <dc:format>image/svg+xml</dc:format>
    <dc:creator>
     <cc:Agent>
      <dc:title>Matplotlib v3.9.0, https://matplotlib.org/</dc:title>
     </cc:Agent>
    </dc:creator>
   </cc:Work>
  </rdf:RDF>
 </metadata>
 <defs>
  <style type="text/css">*{stroke-linejoin: round; stroke-linecap: butt}</style>
 </defs>
 <g id="figure_1">
  <g id="patch_1">
   <path d="M 0 577.728 
L 1105.92 577.728 
L 1105.92 0 
L 0 0 
z
" style="fill: #ffffff"/>
  </g>
  <g id="axes_1">
   <g id="patch_2">
    <path d="M 44.2368 541.413669 
L 1099.600457 541.413669 
L 1099.600457 26.410423 
L 44.2368 26.410423 
z
" style="fill: #ffffff"/>
   </g>
   <g id="matplotlib.axis_1">
    <g id="xtick_1">
     <g id="line2d_1">
      <defs>
       <path id="m7655835b74" d="M 0 0 
L 0 3.5 
" style="stroke: #000000; stroke-width: 0.8"/>
      </defs>
      <g>
       <use xlink:href="#m7655835b74" x="92.207875" y="541.413669" style="stroke: #000000; stroke-width: 0.8"/>
      </g>
     </g>
     <g id="text_1">
      <!-- 2 -->
      <g transform="translate(89.026625 556.012106) scale(0.1 -0.1)">
       <defs>
        <path id="DejaVuSans-32" d="M 1228 531 
L 3431 531 
L 3431 0 
L 469 0 
L 469 531 
Q 828 903 1448 1529 
Q 2069 2156 2228 2338 
Q 2531 2678 2651 2914 
Q 2772 3150 2772 3378 
Q 2772 3750 2511 3984 
Q 2250 4219 1831 4219 
Q 1534 4219 1204 4116 
Q 875 4013 500 3803 
L 500 4441 
Q 881 4594 1212 4672 
Q 1544 4750 1819 4750 
Q 2544 4750 2975 4387 
Q 3406 4025 3406 3419 
Q 3406 3131 3298 2873 
Q 3191 2616 2906 2266 
Q 2828 2175 2409 1742 
Q 1991 1309 1228 531 
z
" transform="scale(0.015625)"/>
       </defs>
       <use xlink:href="#DejaVuSans-32"/>
      </g>
     </g>
    </g>
    <g id="xtick_2">
     <g id="line2d_2">
      <g>
       <use xlink:href="#m7655835b74" x="305.412655" y="541.413669" style="stroke: #000000; stroke-width: 0.8"/>
      </g>
     </g>
     <g id="text_2">
      <!-- 4 -->
      <g transform="translate(302.231405 556.012106) scale(0.1 -0.1)">
       <defs>
        <path id="DejaVuSans-34" d="M 2419 4116 
L 825 1625 
L 2419 1625 
L 2419 4116 
z
M 2253 4666 
L 3047 4666 
L 3047 1625 
L 3713 1625 
L 3713 1100 
L 3047 1100 
L 3047 0 
L 2419 0 
L 2419 1100 
L 313 1100 
L 313 1709 
L 2253 4666 
z
" transform="scale(0.015625)"/>
       </defs>
       <use xlink:href="#DejaVuSans-34"/>
      </g>
     </g>
    </g>
    <g id="xtick_3">
     <g id="line2d_3">
      <g>
       <use xlink:href="#m7655835b74" x="518.617434" y="541.413669" style="stroke: #000000; stroke-width: 0.8"/>
      </g>
     </g>
     <g id="text_3">
      <!-- 6 -->
      <g transform="translate(515.436184 556.012106) scale(0.1 -0.1)">
       <defs>
        <path id="DejaVuSans-36" d="M 2113 2584 
Q 1688 2584 1439 2293 
Q 1191 2003 1191 1497 
Q 1191 994 1439 701 
Q 1688 409 2113 409 
Q 2538 409 2786 701 
Q 3034 994 3034 1497 
Q 3034 2003 2786 2293 
Q 2538 2584 2113 2584 
z
M 3366 4563 
L 3366 3988 
Q 3128 4100 2886 4159 
Q 2644 4219 2406 4219 
Q 1781 4219 1451 3797 
Q 1122 3375 1075 2522 
Q 1259 2794 1537 2939 
Q 1816 3084 2150 3084 
Q 2853 3084 3261 2657 
Q 3669 2231 3669 1497 
Q 3669 778 3244 343 
Q 2819 -91 2113 -91 
Q 1303 -91 875 529 
Q 447 1150 447 2328 
Q 447 3434 972 4092 
Q 1497 4750 2381 4750 
Q 2619 4750 2861 4703 
Q 3103 4656 3366 4563 
z
" transform="scale(0.015625)"/>
       </defs>
       <use xlink:href="#DejaVuSans-36"/>
      </g>
     </g>
    </g>
    <g id="xtick_4">
     <g id="line2d_4">
      <g>
       <use xlink:href="#m7655835b74" x="731.822213" y="541.413669" style="stroke: #000000; stroke-width: 0.8"/>
      </g>
     </g>
     <g id="text_4">
      <!-- 8 -->
      <g transform="translate(728.640963 556.012106) scale(0.1 -0.1)">
       <defs>
        <path id="DejaVuSans-38" d="M 2034 2216 
Q 1584 2216 1326 1975 
Q 1069 1734 1069 1313 
Q 1069 891 1326 650 
Q 1584 409 2034 409 
Q 2484 409 2743 651 
Q 3003 894 3003 1313 
Q 3003 1734 2745 1975 
Q 2488 2216 2034 2216 
z
M 1403 2484 
Q 997 2584 770 2862 
Q 544 3141 544 3541 
Q 544 4100 942 4425 
Q 1341 4750 2034 4750 
Q 2731 4750 3128 4425 
Q 3525 4100 3525 3541 
Q 3525 3141 3298 2862 
Q 3072 2584 2669 2484 
Q 3125 2378 3379 2068 
Q 3634 1759 3634 1313 
Q 3634 634 3220 271 
Q 2806 -91 2034 -91 
Q 1263 -91 848 271 
Q 434 634 434 1313 
Q 434 1759 690 2068 
Q 947 2378 1403 2484 
z
M 1172 3481 
Q 1172 3119 1398 2916 
Q 1625 2713 2034 2713 
Q 2441 2713 2670 2916 
Q 2900 3119 2900 3481 
Q 2900 3844 2670 4047 
Q 2441 4250 2034 4250 
Q 1625 4250 1398 4047 
Q 1172 3844 1172 3481 
z
" transform="scale(0.015625)"/>
       </defs>
       <use xlink:href="#DejaVuSans-38"/>
      </g>
     </g>
    </g>
    <g id="xtick_5">
     <g id="line2d_5">
      <g>
       <use xlink:href="#m7655835b74" x="945.026992" y="541.413669" style="stroke: #000000; stroke-width: 0.8"/>
      </g>
     </g>
     <g id="text_5">
      <!-- 10 -->
      <g transform="translate(938.664492 556.012106) scale(0.1 -0.1)">
       <defs>
        <path id="DejaVuSans-31" d="M 794 531 
L 1825 531 
L 1825 4091 
L 703 3866 
L 703 4441 
L 1819 4666 
L 2450 4666 
L 2450 531 
L 3481 531 
L 3481 0 
L 794 0 
L 794 531 
z
" transform="scale(0.015625)"/>
        <path id="DejaVuSans-30" d="M 2034 4250 
Q 1547 4250 1301 3770 
Q 1056 3291 1056 2328 
Q 1056 1369 1301 889 
Q 1547 409 2034 409 
Q 2525 409 2770 889 
Q 3016 1369 3016 2328 
Q 3016 3291 2770 3770 
Q 2525 4250 2034 4250 
z
M 2034 4750 
Q 2819 4750 3233 4129 
Q 3647 3509 3647 2328 
Q 3647 1150 3233 529 
Q 2819 -91 2034 -91 
Q 1250 -91 836 529 
Q 422 1150 422 2328 
Q 422 3509 836 4129 
Q 1250 4750 2034 4750 
z
" transform="scale(0.015625)"/>
       </defs>
       <use xlink:href="#DejaVuSans-31"/>
       <use xlink:href="#DejaVuSans-30" x="63.623047"/>
      </g>
     </g>
    </g>
    <g id="text_6">
     <!-- log10(Number of runs) -->
     <g transform="translate(514.95066 569.690231) scale(0.1 -0.1)">
      <defs>
       <path id="DejaVuSans-6c" d="M 603 4863 
L 1178 4863 
L 1178 0 
L 603 0 
L 603 4863 
z
" transform="scale(0.015625)"/>
       <path id="DejaVuSans-6f" d="M 1959 3097 
Q 1497 3097 1228 2736 
Q 959 2375 959 1747 
Q 959 1119 1226 758 
Q 1494 397 1959 397 
Q 2419 397 2687 759 
Q 2956 1122 2956 1747 
Q 2956 2369 2687 2733 
Q 2419 3097 1959 3097 
z
M 1959 3584 
Q 2709 3584 3137 3096 
Q 3566 2609 3566 1747 
Q 3566 888 3137 398 
Q 2709 -91 1959 -91 
Q 1206 -91 779 398 
Q 353 888 353 1747 
Q 353 2609 779 3096 
Q 1206 3584 1959 3584 
z
" transform="scale(0.015625)"/>
       <path id="DejaVuSans-67" d="M 2906 1791 
Q 2906 2416 2648 2759 
Q 2391 3103 1925 3103 
Q 1463 3103 1205 2759 
Q 947 2416 947 1791 
Q 947 1169 1205 825 
Q 1463 481 1925 481 
Q 2391 481 2648 825 
Q 2906 1169 2906 1791 
z
M 3481 434 
Q 3481 -459 3084 -895 
Q 2688 -1331 1869 -1331 
Q 1566 -1331 1297 -1286 
Q 1028 -1241 775 -1147 
L 775 -588 
Q 1028 -725 1275 -790 
Q 1522 -856 1778 -856 
Q 2344 -856 2625 -561 
Q 2906 -266 2906 331 
L 2906 616 
Q 2728 306 2450 153 
Q 2172 0 1784 0 
Q 1141 0 747 490 
Q 353 981 353 1791 
Q 353 2603 747 3093 
Q 1141 3584 1784 3584 
Q 2172 3584 2450 3431 
Q 2728 3278 2906 2969 
L 2906 3500 
L 3481 3500 
L 3481 434 
z
" transform="scale(0.015625)"/>
       <path id="DejaVuSans-28" d="M 1984 4856 
Q 1566 4138 1362 3434 
Q 1159 2731 1159 2009 
Q 1159 1288 1364 580 
Q 1569 -128 1984 -844 
L 1484 -844 
Q 1016 -109 783 600 
Q 550 1309 550 2009 
Q 550 2706 781 3412 
Q 1013 4119 1484 4856 
L 1984 4856 
z
" transform="scale(0.015625)"/>
       <path id="DejaVuSans-4e" d="M 628 4666 
L 1478 4666 
L 3547 763 
L 3547 4666 
L 4159 4666 
L 4159 0 
L 3309 0 
L 1241 3903 
L 1241 0 
L 628 0 
L 628 4666 
z
" transform="scale(0.015625)"/>
       <path id="DejaVuSans-75" d="M 544 1381 
L 544 3500 
L 1119 3500 
L 1119 1403 
Q 1119 906 1312 657 
Q 1506 409 1894 409 
Q 2359 409 2629 706 
Q 2900 1003 2900 1516 
L 2900 3500 
L 3475 3500 
L 3475 0 
L 2900 0 
L 2900 538 
Q 2691 219 2414 64 
Q 2138 -91 1772 -91 
Q 1169 -91 856 284 
Q 544 659 544 1381 
z
M 1991 3584 
L 1991 3584 
z
" transform="scale(0.015625)"/>
       <path id="DejaVuSans-6d" d="M 3328 2828 
Q 3544 3216 3844 3400 
Q 4144 3584 4550 3584 
Q 5097 3584 5394 3201 
Q 5691 2819 5691 2113 
L 5691 0 
L 5113 0 
L 5113 2094 
Q 5113 2597 4934 2840 
Q 4756 3084 4391 3084 
Q 3944 3084 3684 2787 
Q 3425 2491 3425 1978 
L 3425 0 
L 2847 0 
L 2847 2094 
Q 2847 2600 2669 2842 
Q 2491 3084 2119 3084 
Q 1678 3084 1418 2786 
Q 1159 2488 1159 1978 
L 1159 0 
L 581 0 
L 581 3500 
L 1159 3500 
L 1159 2956 
Q 1356 3278 1631 3431 
Q 1906 3584 2284 3584 
Q 2666 3584 2933 3390 
Q 3200 3197 3328 2828 
z
" transform="scale(0.015625)"/>
       <path id="DejaVuSans-62" d="M 3116 1747 
Q 3116 2381 2855 2742 
Q 2594 3103 2138 3103 
Q 1681 3103 1420 2742 
Q 1159 2381 1159 1747 
Q 1159 1113 1420 752 
Q 1681 391 2138 391 
Q 2594 391 2855 752 
Q 3116 1113 3116 1747 
z
M 1159 2969 
Q 1341 3281 1617 3432 
Q 1894 3584 2278 3584 
Q 2916 3584 3314 3078 
Q 3713 2572 3713 1747 
Q 3713 922 3314 415 
Q 2916 -91 2278 -91 
Q 1894 -91 1617 61 
Q 1341 213 1159 525 
L 1159 0 
L 581 0 
L 581 4863 
L 1159 4863 
L 1159 2969 
z
" transform="scale(0.015625)"/>
       <path id="DejaVuSans-65" d="M 3597 1894 
L 3597 1613 
L 953 1613 
Q 991 1019 1311 708 
Q 1631 397 2203 397 
Q 2534 397 2845 478 
Q 3156 559 3463 722 
L 3463 178 
Q 3153 47 2828 -22 
Q 2503 -91 2169 -91 
Q 1331 -91 842 396 
Q 353 884 353 1716 
Q 353 2575 817 3079 
Q 1281 3584 2069 3584 
Q 2775 3584 3186 3129 
Q 3597 2675 3597 1894 
z
M 3022 2063 
Q 3016 2534 2758 2815 
Q 2500 3097 2075 3097 
Q 1594 3097 1305 2825 
Q 1016 2553 972 2059 
L 3022 2063 
z
" transform="scale(0.015625)"/>
       <path id="DejaVuSans-72" d="M 2631 2963 
Q 2534 3019 2420 3045 
Q 2306 3072 2169 3072 
Q 1681 3072 1420 2755 
Q 1159 2438 1159 1844 
L 1159 0 
L 581 0 
L 581 3500 
L 1159 3500 
L 1159 2956 
Q 1341 3275 1631 3429 
Q 1922 3584 2338 3584 
Q 2397 3584 2469 3576 
Q 2541 3569 2628 3553 
L 2631 2963 
z
" transform="scale(0.015625)"/>
       <path id="DejaVuSans-20" transform="scale(0.015625)"/>
       <path id="DejaVuSans-66" d="M 2375 4863 
L 2375 4384 
L 1825 4384 
Q 1516 4384 1395 4259 
Q 1275 4134 1275 3809 
L 1275 3500 
L 2222 3500 
L 2222 3053 
L 1275 3053 
L 1275 0 
L 697 0 
L 697 3053 
L 147 3053 
L 147 3500 
L 697 3500 
L 697 3744 
Q 697 4328 969 4595 
Q 1241 4863 1831 4863 
L 2375 4863 
z
" transform="scale(0.015625)"/>
       <path id="DejaVuSans-6e" d="M 3513 2113 
L 3513 0 
L 2938 0 
L 2938 2094 
Q 2938 2591 2744 2837 
Q 2550 3084 2163 3084 
Q 1697 3084 1428 2787 
Q 1159 2491 1159 1978 
L 1159 0 
L 581 0 
L 581 3500 
L 1159 3500 
L 1159 2956 
Q 1366 3272 1645 3428 
Q 1925 3584 2291 3584 
Q 2894 3584 3203 3211 
Q 3513 2838 3513 2113 
z
" transform="scale(0.015625)"/>
       <path id="DejaVuSans-73" d="M 2834 3397 
L 2834 2853 
Q 2591 2978 2328 3040 
Q 2066 3103 1784 3103 
Q 1356 3103 1142 2972 
Q 928 2841 928 2578 
Q 928 2378 1081 2264 
Q 1234 2150 1697 2047 
L 1894 2003 
Q 2506 1872 2764 1633 
Q 3022 1394 3022 966 
Q 3022 478 2636 193 
Q 2250 -91 1575 -91 
Q 1294 -91 989 -36 
Q 684 19 347 128 
L 347 722 
Q 666 556 975 473 
Q 1284 391 1588 391 
Q 1994 391 2212 530 
Q 2431 669 2431 922 
Q 2431 1156 2273 1281 
Q 2116 1406 1581 1522 
L 1381 1569 
Q 847 1681 609 1914 
Q 372 2147 372 2553 
Q 372 3047 722 3315 
Q 1072 3584 1716 3584 
Q 2034 3584 2315 3537 
Q 2597 3491 2834 3397 
z
" transform="scale(0.015625)"/>
       <path id="DejaVuSans-29" d="M 513 4856 
L 1013 4856 
Q 1481 4119 1714 3412 
Q 1947 2706 1947 2009 
Q 1947 1309 1714 600 
Q 1481 -109 1013 -844 
L 513 -844 
Q 928 -128 1133 580 
Q 1338 1288 1338 2009 
Q 1338 2731 1133 3434 
Q 928 4138 513 4856 
z
" transform="scale(0.015625)"/>
      </defs>
      <use xlink:href="#DejaVuSans-6c"/>
      <use xlink:href="#DejaVuSans-6f" x="27.783203"/>
      <use xlink:href="#DejaVuSans-67" x="88.964844"/>
      <use xlink:href="#DejaVuSans-31" x="152.441406"/>
      <use xlink:href="#DejaVuSans-30" x="216.064453"/>
      <use xlink:href="#DejaVuSans-28" x="279.6875"/>
      <use xlink:href="#DejaVuSans-4e" x="318.701172"/>
      <use xlink:href="#DejaVuSans-75" x="393.505859"/>
      <use xlink:href="#DejaVuSans-6d" x="456.884766"/>
      <use xlink:href="#DejaVuSans-62" x="554.296875"/>
      <use xlink:href="#DejaVuSans-65" x="617.773438"/>
      <use xlink:href="#DejaVuSans-72" x="679.296875"/>
      <use xlink:href="#DejaVuSans-20" x="720.410156"/>
      <use xlink:href="#DejaVuSans-6f" x="752.197266"/>
      <use xlink:href="#DejaVuSans-66" x="813.378906"/>
      <use xlink:href="#DejaVuSans-20" x="848.583984"/>
      <use xlink:href="#DejaVuSans-72" x="880.371094"/>
      <use xlink:href="#DejaVuSans-75" x="921.484375"/>
      <use xlink:href="#DejaVuSans-6e" x="984.863281"/>
      <use xlink:href="#DejaVuSans-73" x="1048.242188"/>
      <use xlink:href="#DejaVuSans-29" x="1100.341797"/>
     </g>
    </g>
   </g>
   <g id="matplotlib.axis_2">
    <g id="ytick_1">
     <g id="line2d_6">
      <defs>
       <path id="maa7dd6f88b" d="M 0 0 
L -3.5 0 
" style="stroke: #000000; stroke-width: 0.8"/>
      </defs>
      <g>
       <use xlink:href="#maa7dd6f88b" x="44.2368" y="492.513115" style="stroke: #000000; stroke-width: 0.8"/>
      </g>
     </g>
     <g id="text_7">
      <!-- −7 -->
      <g transform="translate(22.494613 496.312333) scale(0.1 -0.1)">
       <defs>
        <path id="DejaVuSans-2212" d="M 678 2272 
L 4684 2272 
L 4684 1741 
L 678 1741 
L 678 2272 
z
" transform="scale(0.015625)"/>
        <path id="DejaVuSans-37" d="M 525 4666 
L 3525 4666 
L 3525 4397 
L 1831 0 
L 1172 0 
L 2766 4134 
L 525 4134 
L 525 4666 
z
" transform="scale(0.015625)"/>
       </defs>
       <use xlink:href="#DejaVuSans-2212"/>
       <use xlink:href="#DejaVuSans-37" x="83.789062"/>
      </g>
     </g>
    </g>
    <g id="ytick_2">
     <g id="line2d_7">
      <g>
       <use xlink:href="#maa7dd6f88b" x="44.2368" y="393.431087" style="stroke: #000000; stroke-width: 0.8"/>
      </g>
     </g>
     <g id="text_8">
      <!-- −6 -->
      <g transform="translate(22.494613 397.230306) scale(0.1 -0.1)">
       <use xlink:href="#DejaVuSans-2212"/>
       <use xlink:href="#DejaVuSans-36" x="83.789062"/>
      </g>
     </g>
    </g>
    <g id="ytick_3">
     <g id="line2d_8">
      <g>
       <use xlink:href="#maa7dd6f88b" x="44.2368" y="294.34906" style="stroke: #000000; stroke-width: 0.8"/>
      </g>
     </g>
     <g id="text_9">
      <!-- −5 -->
      <g transform="translate(22.494613 298.148279) scale(0.1 -0.1)">
       <defs>
        <path id="DejaVuSans-35" d="M 691 4666 
L 3169 4666 
L 3169 4134 
L 1269 4134 
L 1269 2991 
Q 1406 3038 1543 3061 
Q 1681 3084 1819 3084 
Q 2600 3084 3056 2656 
Q 3513 2228 3513 1497 
Q 3513 744 3044 326 
Q 2575 -91 1722 -91 
Q 1428 -91 1123 -41 
Q 819 9 494 109 
L 494 744 
Q 775 591 1075 516 
Q 1375 441 1709 441 
Q 2250 441 2565 725 
Q 2881 1009 2881 1497 
Q 2881 1984 2565 2268 
Q 2250 2553 1709 2553 
Q 1456 2553 1204 2497 
Q 953 2441 691 2322 
L 691 4666 
z
" transform="scale(0.015625)"/>
       </defs>
       <use xlink:href="#DejaVuSans-2212"/>
       <use xlink:href="#DejaVuSans-35" x="83.789062"/>
      </g>
     </g>
    </g>
    <g id="ytick_4">
     <g id="line2d_9">
      <g>
       <use xlink:href="#maa7dd6f88b" x="44.2368" y="195.267033" style="stroke: #000000; stroke-width: 0.8"/>
      </g>
     </g>
     <g id="text_10">
      <!-- −4 -->
      <g transform="translate(22.494613 199.066252) scale(0.1 -0.1)">
       <use xlink:href="#DejaVuSans-2212"/>
       <use xlink:href="#DejaVuSans-34" x="83.789062"/>
      </g>
     </g>
    </g>
    <g id="ytick_5">
     <g id="line2d_10">
      <g>
       <use xlink:href="#maa7dd6f88b" x="44.2368" y="96.185006" style="stroke: #000000; stroke-width: 0.8"/>
      </g>
     </g>
     <g id="text_11">
      <!-- −3 -->
      <g transform="translate(22.494613 99.984224) scale(0.1 -0.1)">
       <defs>
        <path id="DejaVuSans-33" d="M 2597 2516 
Q 3050 2419 3304 2112 
Q 3559 1806 3559 1356 
Q 3559 666 3084 287 
Q 2609 -91 1734 -91 
Q 1441 -91 1130 -33 
Q 819 25 488 141 
L 488 750 
Q 750 597 1062 519 
Q 1375 441 1716 441 
Q 2309 441 2620 675 
Q 2931 909 2931 1356 
Q 2931 1769 2642 2001 
Q 2353 2234 1838 2234 
L 1294 2234 
L 1294 2753 
L 1863 2753 
Q 2328 2753 2575 2939 
Q 2822 3125 2822 3475 
Q 2822 3834 2567 4026 
Q 2313 4219 1838 4219 
Q 1578 4219 1281 4162 
Q 984 4106 628 3988 
L 628 4550 
Q 988 4650 1302 4700 
Q 1616 4750 1894 4750 
Q 2613 4750 3031 4423 
Q 3450 4097 3450 3541 
Q 3450 3153 3228 2886 
Q 3006 2619 2597 2516 
z
" transform="scale(0.015625)"/>
       </defs>
       <use xlink:href="#DejaVuSans-2212"/>
       <use xlink:href="#DejaVuSans-33" x="83.789062"/>
      </g>
     </g>
    </g>
    <g id="text_12">
     <!-- log10(|proportion - final proportion|) -->
     <g transform="translate(16.1368 374.595639) rotate(-90) scale(0.1 -0.1)">
      <defs>
       <path id="DejaVuSans-7c" d="M 1344 4891 
L 1344 -1509 
L 813 -1509 
L 813 4891 
L 1344 4891 
z
" transform="scale(0.015625)"/>
       <path id="DejaVuSans-70" d="M 1159 525 
L 1159 -1331 
L 581 -1331 
L 581 3500 
L 1159 3500 
L 1159 2969 
Q 1341 3281 1617 3432 
Q 1894 3584 2278 3584 
Q 2916 3584 3314 3078 
Q 3713 2572 3713 1747 
Q 3713 922 3314 415 
Q 2916 -91 2278 -91 
Q 1894 -91 1617 61 
Q 1341 213 1159 525 
z
M 3116 1747 
Q 3116 2381 2855 2742 
Q 2594 3103 2138 3103 
Q 1681 3103 1420 2742 
Q 1159 2381 1159 1747 
Q 1159 1113 1420 752 
Q 1681 391 2138 391 
Q 2594 391 2855 752 
Q 3116 1113 3116 1747 
z
" transform="scale(0.015625)"/>
       <path id="DejaVuSans-74" d="M 1172 4494 
L 1172 3500 
L 2356 3500 
L 2356 3053 
L 1172 3053 
L 1172 1153 
Q 1172 725 1289 603 
Q 1406 481 1766 481 
L 2356 481 
L 2356 0 
L 1766 0 
Q 1100 0 847 248 
Q 594 497 594 1153 
L 594 3053 
L 172 3053 
L 172 3500 
L 594 3500 
L 594 4494 
L 1172 4494 
z
" transform="scale(0.015625)"/>
       <path id="DejaVuSans-69" d="M 603 3500 
L 1178 3500 
L 1178 0 
L 603 0 
L 603 3500 
z
M 603 4863 
L 1178 4863 
L 1178 4134 
L 603 4134 
L 603 4863 
z
" transform="scale(0.015625)"/>
       <path id="DejaVuSans-2d" d="M 313 2009 
L 1997 2009 
L 1997 1497 
L 313 1497 
L 313 2009 
z
" transform="scale(0.015625)"/>
       <path id="DejaVuSans-61" d="M 2194 1759 
Q 1497 1759 1228 1600 
Q 959 1441 959 1056 
Q 959 750 1161 570 
Q 1363 391 1709 391 
Q 2188 391 2477 730 
Q 2766 1069 2766 1631 
L 2766 1759 
L 2194 1759 
z
M 3341 1997 
L 3341 0 
L 2766 0 
L 2766 531 
Q 2569 213 2275 61 
Q 1981 -91 1556 -91 
Q 1019 -91 701 211 
Q 384 513 384 1019 
Q 384 1609 779 1909 
Q 1175 2209 1959 2209 
L 2766 2209 
L 2766 2266 
Q 2766 2663 2505 2880 
Q 2244 3097 1772 3097 
Q 1472 3097 1187 3025 
Q 903 2953 641 2809 
L 641 3341 
Q 956 3463 1253 3523 
Q 1550 3584 1831 3584 
Q 2591 3584 2966 3190 
Q 3341 2797 3341 1997 
z
" transform="scale(0.015625)"/>
      </defs>
      <use xlink:href="#DejaVuSans-6c"/>
      <use xlink:href="#DejaVuSans-6f" x="27.783203"/>
      <use xlink:href="#DejaVuSans-67" x="88.964844"/>
      <use xlink:href="#DejaVuSans-31" x="152.441406"/>
      <use xlink:href="#DejaVuSans-30" x="216.064453"/>
      <use xlink:href="#DejaVuSans-28" x="279.6875"/>
      <use xlink:href="#DejaVuSans-7c" x="318.701172"/>
      <use xlink:href="#DejaVuSans-70" x="352.392578"/>
      <use xlink:href="#DejaVuSans-72" x="415.869141"/>
      <use xlink:href="#DejaVuSans-6f" x="454.732422"/>
      <use xlink:href="#DejaVuSans-70" x="515.914062"/>
      <use xlink:href="#DejaVuSans-6f" x="579.390625"/>
      <use xlink:href="#DejaVuSans-72" x="640.572266"/>
      <use xlink:href="#DejaVuSans-74" x="681.685547"/>
      <use xlink:href="#DejaVuSans-69" x="720.894531"/>
      <use xlink:href="#DejaVuSans-6f" x="748.677734"/>
      <use xlink:href="#DejaVuSans-6e" x="809.859375"/>
      <use xlink:href="#DejaVuSans-20" x="873.238281"/>
      <use xlink:href="#DejaVuSans-2d" x="905.025391"/>
      <use xlink:href="#DejaVuSans-20" x="941.109375"/>
      <use xlink:href="#DejaVuSans-66" x="972.896484"/>
      <use xlink:href="#DejaVuSans-69" x="1008.101562"/>
      <use xlink:href="#DejaVuSans-6e" x="1035.884766"/>
      <use xlink:href="#DejaVuSans-61" x="1099.263672"/>
      <use xlink:href="#DejaVuSans-6c" x="1160.542969"/>
      <use xlink:href="#DejaVuSans-20" x="1188.326172"/>
      <use xlink:href="#DejaVuSans-70" x="1220.113281"/>
      <use xlink:href="#DejaVuSans-72" x="1283.589844"/>
      <use xlink:href="#DejaVuSans-6f" x="1322.453125"/>
      <use xlink:href="#DejaVuSans-70" x="1383.634766"/>
      <use xlink:href="#DejaVuSans-6f" x="1447.111328"/>
      <use xlink:href="#DejaVuSans-72" x="1508.292969"/>
      <use xlink:href="#DejaVuSans-74" x="1549.40625"/>
      <use xlink:href="#DejaVuSans-69" x="1588.615234"/>
      <use xlink:href="#DejaVuSans-6f" x="1616.398438"/>
      <use xlink:href="#DejaVuSans-6e" x="1677.580078"/>
      <use xlink:href="#DejaVuSans-7c" x="1740.958984"/>
      <use xlink:href="#DejaVuSans-29" x="1774.650391"/>
     </g>
    </g>
   </g>
   <g id="line2d_11">
    <path d="M 92.207875 49.819661 
L 124.298392 49.819661 
L 143.070141 49.819661 
L 156.388909 49.819661 
L 166.719748 49.819661 
L 175.160658 49.819661 
L 182.297346 78.487703 
L 188.479426 131.776782 
L 193.932407 136.043136 
L 198.810265 215.357813 
L 230.900782 80.574729 
L 249.672531 75.853693 
L 262.991299 168.26222 
L 273.322138 181.624696 
L 281.763048 159.545954 
L 288.899735 215.357813 
L 295.081816 215.625913 
L 300.534797 150.212627 
L 305.412655 153.706947 
L 337.503171 284.081938 
L 356.27492 184.189207 
L 369.593688 162.792238 
L 379.924527 179.967991 
L 388.365437 170.127059 
L 395.502125 174.323727 
L 401.684205 174.323727 
L 407.137186 157.510303 
L 412.015044 164.864467 
L 444.105561 237.696876 
L 462.87731 199.496513 
L 476.196078 207.534653 
L 486.526917 235.449639 
L 494.967827 266.793124 
L 502.104515 329.208087 
L 508.286595 230.64858 
L 513.739576 208.989621 
L 518.617434 233.954814 
L 550.707951 308.516533 
L 569.4797 351.679997 
L 582.798468 518.00443 
L 593.129306 285.459625 
L 601.570217 294.949784 
L 608.706904 332.47167 
L 614.888984 334.534184 
L 620.341966 355.465745 
L 625.219823 291.863224 
L 657.31034 272.295519 
L 676.082089 261.088625 
L 689.400857 310.977968 
L 699.731696 313.994445 
L 708.172606 303.890005 
L 715.309294 323.731852 
L 721.491374 312.755765 
L 726.944355 318.74575 
L 731.822213 317.532418 
L 763.91273 346.080992 
L 782.684479 328.40487 
L 796.003247 380.269447 
L 806.334086 410.197641 
L 814.774996 442.19818 
L 821.911684 500.08159 
L 828.093764 413.162828 
L 833.546745 408.522353 
L 838.424603 392.355953 
L 870.515119 379.437711 
L 889.286868 437.830034 
L 902.605636 383.462271 
L 912.936475 403.995874 
L 921.377385 433.670623 
L 928.514073 475.440195 
L 934.696153 513.309525 
L 940.149134 472.609429 
L 945.026992 487.636493 
L 977.117509 431.535662 
L 995.889258 410.420583 
L 1009.208026 448.253919 
L 1019.538865 430.042997 
L 1027.979775 439.897425 
L 1035.116463 461.253673 
L 1041.298543 467.876617 
L 1046.751524 462.038719 
" clip-path="url(#p8b6d0e245c)" style="fill: none; stroke: #000000; stroke-width: 1.5; stroke-linecap: square"/>
   </g>
   <g id="line2d_12">
    <path d="M 92.207875 49.9425 
L 124.298392 49.9425 
L 143.070141 49.9425 
L 156.388909 49.9425 
L 166.719748 49.9425 
L 175.160658 49.9425 
L 182.297346 78.727179 
L 188.479426 132.608685 
L 193.932407 135.142832 
L 198.810265 209.963578 
L 230.900782 80.82614 
L 249.672531 76.078913 
L 262.991299 170.230147 
L 273.322138 184.332206 
L 281.763048 158.003058 
L 288.899735 209.963578 
L 295.081816 221.836073 
L 300.534797 148.966268 
L 305.412655 152.356792 
L 337.503171 262.284191 
L 356.27492 181.490403 
L 369.593688 161.130747 
L 379.924527 177.514314 
L 388.365437 168.163735 
L 395.502125 172.164245 
L 401.684205 172.164245 
L 407.137186 156.037491 
L 412.015044 163.122643 
L 444.105561 248.634468 
L 462.87731 203.66742 
L 476.196078 202.991564 
L 486.526917 245.758179 
L 494.967827 291.846353 
L 502.104515 334.592746 
L 508.286595 223.143804 
L 513.739576 204.298513 
L 518.617434 225.903524 
L 550.707951 275.302762 
L 569.4797 318.277971 
L 582.798468 302.274721 
L 593.129306 263.109042 
L 601.570217 268.499218 
L 608.706904 284.759472 
L 614.888984 329.259827 
L 620.341966 316.641943 
L 625.219823 266.802549 
L 657.31034 254.803795 
L 676.082089 247.025493 
L 689.400857 276.422849 
L 699.731696 277.748058 
L 708.172606 273.102641 
L 715.309294 281.675198 
L 721.491374 277.210178 
L 726.944355 279.7305 
L 731.822213 279.236356 
L 763.91273 321.121293 
L 782.684479 335.521534 
L 796.003247 309.603037 
L 806.334086 305.619201 
L 814.774996 303.676874 
L 821.911684 302.422785 
L 828.093764 298.857415 
L 833.546745 305.769812 
L 838.424603 307.610394 
L 870.515119 309.765892 
L 889.286868 300.196059 
L 902.605636 295.954371 
L 912.936475 298.146093 
L 921.377385 300.018148 
L 928.514073 301.232096 
L 934.696153 302.307714 
L 940.149134 301.18107 
L 945.026992 302.569053 
L 977.117509 304.163487 
L 995.889258 305.599635 
L 1009.208026 303.451563 
L 1019.538865 304.242262 
L 1027.979775 303.77149 
L 1035.116463 303.065556 
L 1041.298543 302.910411 
L 1046.751524 303.045863 
L 1051.629382 301.989583 
" clip-path="url(#p8b6d0e245c)" style="fill: none; stroke: #8b0000; stroke-width: 1.5; stroke-linecap: square"/>
   </g>
   <g id="patch_3">
    <path d="M 44.2368 541.413669 
L 44.2368 26.410423 
" style="fill: none; stroke: #000000; stroke-width: 0.8; stroke-linejoin: miter; stroke-linecap: square"/>
   </g>
   <g id="patch_4">
    <path d="M 1099.600457 541.413669 
L 1099.600457 26.410423 
" style="fill: none; stroke: #000000; stroke-width: 0.8; stroke-linejoin: miter; stroke-linecap: square"/>
   </g>
   <g id="patch_5">
    <path d="M 44.2368 541.413669 
L 1099.600457 541.413669 
" style="fill: none; stroke: #000000; stroke-width: 0.8; stroke-linejoin: miter; stroke-linecap: square"/>
   </g>
   <g id="patch_6">
    <path d="M 44.2368 26.410423 
L 1099.600457 26.410423 
" style="fill: none; stroke: #000000; stroke-width: 0.8; stroke-linejoin: miter; stroke-linecap: square"/>
   </g>
   <g id="text_13">
    <!-- Convergence of the proportion of games that have ended with 0 cards left in the hand to 7.06269e-03 -->
    <g transform="translate(264.145816 20.410423) scale(0.12 -0.12)">
     <defs>
      <path id="DejaVuSans-43" d="M 4122 4306 
L 4122 3641 
Q 3803 3938 3442 4084 
Q 3081 4231 2675 4231 
Q 1875 4231 1450 3742 
Q 1025 3253 1025 2328 
Q 1025 1406 1450 917 
Q 1875 428 2675 428 
Q 3081 428 3442 575 
Q 3803 722 4122 1019 
L 4122 359 
Q 3791 134 3420 21 
Q 3050 -91 2638 -91 
Q 1578 -91 968 557 
Q 359 1206 359 2328 
Q 359 3453 968 4101 
Q 1578 4750 2638 4750 
Q 3056 4750 3426 4639 
Q 3797 4528 4122 4306 
z
" transform="scale(0.015625)"/>
      <path id="DejaVuSans-76" d="M 191 3500 
L 800 3500 
L 1894 563 
L 2988 3500 
L 3597 3500 
L 2284 0 
L 1503 0 
L 191 3500 
z
" transform="scale(0.015625)"/>
      <path id="DejaVuSans-63" d="M 3122 3366 
L 3122 2828 
Q 2878 2963 2633 3030 
Q 2388 3097 2138 3097 
Q 1578 3097 1268 2742 
Q 959 2388 959 1747 
Q 959 1106 1268 751 
Q 1578 397 2138 397 
Q 2388 397 2633 464 
Q 2878 531 3122 666 
L 3122 134 
Q 2881 22 2623 -34 
Q 2366 -91 2075 -91 
Q 1284 -91 818 406 
Q 353 903 353 1747 
Q 353 2603 823 3093 
Q 1294 3584 2113 3584 
Q 2378 3584 2631 3529 
Q 2884 3475 3122 3366 
z
" transform="scale(0.015625)"/>
      <path id="DejaVuSans-68" d="M 3513 2113 
L 3513 0 
L 2938 0 
L 2938 2094 
Q 2938 2591 2744 2837 
Q 2550 3084 2163 3084 
Q 1697 3084 1428 2787 
Q 1159 2491 1159 1978 
L 1159 0 
L 581 0 
L 581 4863 
L 1159 4863 
L 1159 2956 
Q 1366 3272 1645 3428 
Q 1925 3584 2291 3584 
Q 2894 3584 3203 3211 
Q 3513 2838 3513 2113 
z
" transform="scale(0.015625)"/>
      <path id="DejaVuSans-64" d="M 2906 2969 
L 2906 4863 
L 3481 4863 
L 3481 0 
L 2906 0 
L 2906 525 
Q 2725 213 2448 61 
Q 2172 -91 1784 -91 
Q 1150 -91 751 415 
Q 353 922 353 1747 
Q 353 2572 751 3078 
Q 1150 3584 1784 3584 
Q 2172 3584 2448 3432 
Q 2725 3281 2906 2969 
z
M 947 1747 
Q 947 1113 1208 752 
Q 1469 391 1925 391 
Q 2381 391 2643 752 
Q 2906 1113 2906 1747 
Q 2906 2381 2643 2742 
Q 2381 3103 1925 3103 
Q 1469 3103 1208 2742 
Q 947 2381 947 1747 
z
" transform="scale(0.015625)"/>
      <path id="DejaVuSans-77" d="M 269 3500 
L 844 3500 
L 1563 769 
L 2278 3500 
L 2956 3500 
L 3675 769 
L 4391 3500 
L 4966 3500 
L 4050 0 
L 3372 0 
L 2619 2869 
L 1863 0 
L 1184 0 
L 269 3500 
z
" transform="scale(0.015625)"/>
      <path id="DejaVuSans-2e" d="M 684 794 
L 1344 794 
L 1344 0 
L 684 0 
L 684 794 
z
" transform="scale(0.015625)"/>
      <path id="DejaVuSans-39" d="M 703 97 
L 703 672 
Q 941 559 1184 500 
Q 1428 441 1663 441 
Q 2288 441 2617 861 
Q 2947 1281 2994 2138 
Q 2813 1869 2534 1725 
Q 2256 1581 1919 1581 
Q 1219 1581 811 2004 
Q 403 2428 403 3163 
Q 403 3881 828 4315 
Q 1253 4750 1959 4750 
Q 2769 4750 3195 4129 
Q 3622 3509 3622 2328 
Q 3622 1225 3098 567 
Q 2575 -91 1691 -91 
Q 1453 -91 1209 -44 
Q 966 3 703 97 
z
M 1959 2075 
Q 2384 2075 2632 2365 
Q 2881 2656 2881 3163 
Q 2881 3666 2632 3958 
Q 2384 4250 1959 4250 
Q 1534 4250 1286 3958 
Q 1038 3666 1038 3163 
Q 1038 2656 1286 2365 
Q 1534 2075 1959 2075 
z
" transform="scale(0.015625)"/>
     </defs>
     <use xlink:href="#DejaVuSans-43"/>
     <use xlink:href="#DejaVuSans-6f" x="69.824219"/>
     <use xlink:href="#DejaVuSans-6e" x="131.005859"/>
     <use xlink:href="#DejaVuSans-76" x="194.384766"/>
     <use xlink:href="#DejaVuSans-65" x="253.564453"/>
     <use xlink:href="#DejaVuSans-72" x="315.087891"/>
     <use xlink:href="#DejaVuSans-67" x="354.451172"/>
     <use xlink:href="#DejaVuSans-65" x="417.927734"/>
     <use xlink:href="#DejaVuSans-6e" x="479.451172"/>
     <use xlink:href="#DejaVuSans-63" x="542.830078"/>
     <use xlink:href="#DejaVuSans-65" x="597.810547"/>
     <use xlink:href="#DejaVuSans-20" x="659.333984"/>
     <use xlink:href="#DejaVuSans-6f" x="691.121094"/>
     <use xlink:href="#DejaVuSans-66" x="752.302734"/>
     <use xlink:href="#DejaVuSans-20" x="787.507812"/>
     <use xlink:href="#DejaVuSans-74" x="819.294922"/>
     <use xlink:href="#DejaVuSans-68" x="858.503906"/>
     <use xlink:href="#DejaVuSans-65" x="921.882812"/>
     <use xlink:href="#DejaVuSans-20" x="983.40625"/>
     <use xlink:href="#DejaVuSans-70" x="1015.193359"/>
     <use xlink:href="#DejaVuSans-72" x="1078.669922"/>
     <use xlink:href="#DejaVuSans-6f" x="1117.533203"/>
     <use xlink:href="#DejaVuSans-70" x="1178.714844"/>
     <use xlink:href="#DejaVuSans-6f" x="1242.191406"/>
     <use xlink:href="#DejaVuSans-72" x="1303.373047"/>
     <use xlink:href="#DejaVuSans-74" x="1344.486328"/>
     <use xlink:href="#DejaVuSans-69" x="1383.695312"/>
     <use xlink:href="#DejaVuSans-6f" x="1411.478516"/>
     <use xlink:href="#DejaVuSans-6e" x="1472.660156"/>
     <use xlink:href="#DejaVuSans-20" x="1536.039062"/>
     <use xlink:href="#DejaVuSans-6f" x="1567.826172"/>
     <use xlink:href="#DejaVuSans-66" x="1629.007812"/>
     <use xlink:href="#DejaVuSans-20" x="1664.212891"/>
     <use xlink:href="#DejaVuSans-67" x="1696"/>
     <use xlink:href="#DejaVuSans-61" x="1759.476562"/>
     <use xlink:href="#DejaVuSans-6d" x="1820.755859"/>
     <use xlink:href="#DejaVuSans-65" x="1918.167969"/>
     <use xlink:href="#DejaVuSans-73" x="1979.691406"/>
     <use xlink:href="#DejaVuSans-20" x="2031.791016"/>
     <use xlink:href="#DejaVuSans-74" x="2063.578125"/>
     <use xlink:href="#DejaVuSans-68" x="2102.787109"/>
     <use xlink:href="#DejaVuSans-61" x="2166.166016"/>
     <use xlink:href="#DejaVuSans-74" x="2227.445312"/>
     <use xlink:href="#DejaVuSans-20" x="2266.654297"/>
     <use xlink:href="#DejaVuSans-68" x="2298.441406"/>
     <use xlink:href="#DejaVuSans-61" x="2361.820312"/>
     <use xlink:href="#DejaVuSans-76" x="2423.099609"/>
     <use xlink:href="#DejaVuSans-65" x="2482.279297"/>
     <use xlink:href="#DejaVuSans-20" x="2543.802734"/>
     <use xlink:href="#DejaVuSans-65" x="2575.589844"/>
     <use xlink:href="#DejaVuSans-6e" x="2637.113281"/>
     <use xlink:href="#DejaVuSans-64" x="2700.492188"/>
     <use xlink:href="#DejaVuSans-65" x="2763.96875"/>
     <use xlink:href="#DejaVuSans-64" x="2825.492188"/>
     <use xlink:href="#DejaVuSans-20" x="2888.96875"/>
     <use xlink:href="#DejaVuSans-77" x="2920.755859"/>
     <use xlink:href="#DejaVuSans-69" x="3002.542969"/>
     <use xlink:href="#DejaVuSans-74" x="3030.326172"/>
     <use xlink:href="#DejaVuSans-68" x="3069.535156"/>
     <use xlink:href="#DejaVuSans-20" x="3132.914062"/>
     <use xlink:href="#DejaVuSans-30" x="3164.701172"/>
     <use xlink:href="#DejaVuSans-20" x="3228.324219"/>
     <use xlink:href="#DejaVuSans-63" x="3260.111328"/>
     <use xlink:href="#DejaVuSans-61" x="3315.091797"/>
     <use xlink:href="#DejaVuSans-72" x="3376.371094"/>
     <use xlink:href="#DejaVuSans-64" x="3415.734375"/>
     <use xlink:href="#DejaVuSans-73" x="3479.210938"/>
     <use xlink:href="#DejaVuSans-20" x="3531.310547"/>
     <use xlink:href="#DejaVuSans-6c" x="3563.097656"/>
     <use xlink:href="#DejaVuSans-65" x="3590.880859"/>
     <use xlink:href="#DejaVuSans-66" x="3652.404297"/>
     <use xlink:href="#DejaVuSans-74" x="3685.859375"/>
     <use xlink:href="#DejaVuSans-20" x="3725.068359"/>
     <use xlink:href="#DejaVuSans-69" x="3756.855469"/>
     <use xlink:href="#DejaVuSans-6e" x="3784.638672"/>
     <use xlink:href="#DejaVuSans-20" x="3848.017578"/>
     <use xlink:href="#DejaVuSans-74" x="3879.804688"/>
     <use xlink:href="#DejaVuSans-68" x="3919.013672"/>
     <use xlink:href="#DejaVuSans-65" x="3982.392578"/>
     <use xlink:href="#DejaVuSans-20" x="4043.916016"/>
     <use xlink:href="#DejaVuSans-68" x="4075.703125"/>
     <use xlink:href="#DejaVuSans-61" x="4139.082031"/>
     <use xlink:href="#DejaVuSans-6e" x="4200.361328"/>
     <use xlink:href="#DejaVuSans-64" x="4263.740234"/>
     <use xlink:href="#DejaVuSans-20" x="4327.216797"/>
     <use xlink:href="#DejaVuSans-74" x="4359.003906"/>
     <use xlink:href="#DejaVuSans-6f" x="4398.212891"/>
     <use xlink:href="#DejaVuSans-20" x="4459.394531"/>
     <use xlink:href="#DejaVuSans-37" x="4491.181641"/>
     <use xlink:href="#DejaVuSans-2e" x="4554.804688"/>
     <use xlink:href="#DejaVuSans-30" x="4586.591797"/>
     <use xlink:href="#DejaVuSans-36" x="4650.214844"/>
     <use xlink:href="#DejaVuSans-32" x="4713.837891"/>
     <use xlink:href="#DejaVuSans-36" x="4777.460938"/>
     <use xlink:href="#DejaVuSans-39" x="4841.083984"/>
     <use xlink:href="#DejaVuSans-65" x="4904.707031"/>
     <use xlink:href="#DejaVuSans-2d" x="4966.230469"/>
     <use xlink:href="#DejaVuSans-30" x="5002.314453"/>
     <use xlink:href="#DejaVuSans-33" x="5065.9375"/>
    </g>
   </g>
   <g id="legend_1">
    <g id="patch_7">
     <path d="M 909.98952 63.766673 
L 1092.600457 63.766673 
Q 1094.600457 63.766673 1094.600457 61.766673 
L 1094.600457 33.410423 
Q 1094.600457 31.410423 1092.600457 31.410423 
L 909.98952 31.410423 
Q 907.98952 31.410423 907.98952 33.410423 
L 907.98952 61.766673 
Q 907.98952 63.766673 909.98952 63.766673 
z
" style="fill: #ffffff; opacity: 0.8; stroke: #cccccc; stroke-linejoin: miter"/>
    </g>
    <g id="line2d_13">
     <path d="M 911.98952 39.50886 
L 921.98952 39.50886 
L 931.98952 39.50886 
" style="fill: none; stroke: #000000; stroke-width: 1.5; stroke-linecap: square"/>
    </g>
    <g id="text_14">
     <!-- to 7.06269e-03 -->
     <g transform="translate(939.98952 43.00886) scale(0.1 -0.1)">
      <use xlink:href="#DejaVuSans-74"/>
      <use xlink:href="#DejaVuSans-6f" x="39.208984"/>
      <use xlink:href="#DejaVuSans-20" x="100.390625"/>
      <use xlink:href="#DejaVuSans-37" x="132.177734"/>
      <use xlink:href="#DejaVuSans-2e" x="195.800781"/>
      <use xlink:href="#DejaVuSans-30" x="227.587891"/>
      <use xlink:href="#DejaVuSans-36" x="291.210938"/>
      <use xlink:href="#DejaVuSans-32" x="354.833984"/>
      <use xlink:href="#DejaVuSans-36" x="418.457031"/>
      <use xlink:href="#DejaVuSans-39" x="482.080078"/>
      <use xlink:href="#DejaVuSans-65" x="545.703125"/>
      <use xlink:href="#DejaVuSans-2d" x="607.226562"/>
      <use xlink:href="#DejaVuSans-30" x="643.310547"/>
      <use xlink:href="#DejaVuSans-33" x="706.933594"/>
     </g>
    </g>
    <g id="line2d_14">
     <path d="M 911.98952 54.186985 
L 921.98952 54.186985 
L 931.98952 54.186985 
" style="fill: none; stroke: #8b0000; stroke-width: 1.5; stroke-linecap: square"/>
    </g>
    <g id="text_15">
     <!-- to 7.07107e-03 [1/100sqrt(2)] -->
     <g transform="translate(939.98952 57.686985) scale(0.1 -0.1)">
      <defs>
       <path id="DejaVuSans-5b" d="M 550 4863 
L 1875 4863 
L 1875 4416 
L 1125 4416 
L 1125 -397 
L 1875 -397 
L 1875 -844 
L 550 -844 
L 550 4863 
z
" transform="scale(0.015625)"/>
       <path id="DejaVuSans-2f" d="M 1625 4666 
L 2156 4666 
L 531 -594 
L 0 -594 
L 1625 4666 
z
" transform="scale(0.015625)"/>
       <path id="DejaVuSans-71" d="M 947 1747 
Q 947 1113 1208 752 
Q 1469 391 1925 391 
Q 2381 391 2643 752 
Q 2906 1113 2906 1747 
Q 2906 2381 2643 2742 
Q 2381 3103 1925 3103 
Q 1469 3103 1208 2742 
Q 947 2381 947 1747 
z
M 2906 525 
Q 2725 213 2448 61 
Q 2172 -91 1784 -91 
Q 1150 -91 751 415 
Q 353 922 353 1747 
Q 353 2572 751 3078 
Q 1150 3584 1784 3584 
Q 2172 3584 2448 3432 
Q 2725 3281 2906 2969 
L 2906 3500 
L 3481 3500 
L 3481 -1331 
L 2906 -1331 
L 2906 525 
z
" transform="scale(0.015625)"/>
       <path id="DejaVuSans-5d" d="M 1947 4863 
L 1947 -844 
L 622 -844 
L 622 -397 
L 1369 -397 
L 1369 4416 
L 622 4416 
L 622 4863 
L 1947 4863 
z
" transform="scale(0.015625)"/>
      </defs>
      <use xlink:href="#DejaVuSans-74"/>
      <use xlink:href="#DejaVuSans-6f" x="39.208984"/>
      <use xlink:href="#DejaVuSans-20" x="100.390625"/>
      <use xlink:href="#DejaVuSans-37" x="132.177734"/>
      <use xlink:href="#DejaVuSans-2e" x="195.800781"/>
      <use xlink:href="#DejaVuSans-30" x="227.587891"/>
      <use xlink:href="#DejaVuSans-37" x="291.210938"/>
      <use xlink:href="#DejaVuSans-31" x="354.833984"/>
      <use xlink:href="#DejaVuSans-30" x="418.457031"/>
      <use xlink:href="#DejaVuSans-37" x="482.080078"/>
      <use xlink:href="#DejaVuSans-65" x="545.703125"/>
      <use xlink:href="#DejaVuSans-2d" x="607.226562"/>
      <use xlink:href="#DejaVuSans-30" x="643.310547"/>
      <use xlink:href="#DejaVuSans-33" x="706.933594"/>
      <use xlink:href="#DejaVuSans-20" x="770.556641"/>
      <use xlink:href="#DejaVuSans-5b" x="802.34375"/>
      <use xlink:href="#DejaVuSans-31" x="841.357422"/>
      <use xlink:href="#DejaVuSans-2f" x="904.980469"/>
      <use xlink:href="#DejaVuSans-31" x="938.671875"/>
      <use xlink:href="#DejaVuSans-30" x="1002.294922"/>
      <use xlink:href="#DejaVuSans-30" x="1065.917969"/>
      <use xlink:href="#DejaVuSans-73" x="1129.541016"/>
      <use xlink:href="#DejaVuSans-71" x="1181.640625"/>
      <use xlink:href="#DejaVuSans-72" x="1245.117188"/>
      <use xlink:href="#DejaVuSans-74" x="1286.230469"/>
      <use xlink:href="#DejaVuSans-28" x="1325.439453"/>
      <use xlink:href="#DejaVuSans-32" x="1364.453125"/>
      <use xlink:href="#DejaVuSans-29" x="1428.076172"/>
      <use xlink:href="#DejaVuSans-5d" x="1467.089844"/>
     </g>
    </g>
   </g>
  </g>
 </g>
 <defs>
  <clipPath id="p8b6d0e245c">
   <rect x="44.2368" y="26.410423" width="1055.363657" height="515.003246"/>
  </clipPath>
 </defs>
</svg>
