<?xml version="1.0" encoding="utf-8" standalone="no"?>
<!DOCTYPE svg PUBLIC "-//W3C//DTD SVG 1.1//EN"
  "http://www.w3.org/Graphics/SVG/1.1/DTD/svg11.dtd">
<svg xmlns:xlink="http://www.w3.org/1999/xlink" width="1105.92pt" height="577.728pt" viewBox="0 0 1105.92 577.728" xmlns="http://www.w3.org/2000/svg" version="1.1">
 <metadata>
  <rdf:RDF xmlns:dc="http://purl.org/dc/elements/1.1/" xmlns:cc="http://creativecommons.org/ns#" xmlns:rdf="http://www.w3.org/1999/02/22-rdf-syntax-ns#">
   <cc:Work>
    <dc:type rdf:resource="http://purl.org/dc/dcmitype/StillImage"/>
    <dc:date>2026-07-16T21:58:46.753653</dc:date>
    <dc:format>image/svg+xml</dc:format>
    <dc:creator>
     <cc:Agent>
      <dc:title>Matplotlib v3.9.0, https://matplotlib.org/</dc:title>
     </cc:Agent>
    </dc:creator>
   </cc:Work>
  </rdf:RDF>
 </metadata>
 <defs>
  <style type="text/css">*{stroke-linejoin: round; stroke-linecap: butt}</style>
 </defs>
 <g id="figure_1">
  <g id="patch_1">
   <path d="M 0 577.728 
L 1105.92 577.728 
L 1105.92 0 
L 0 0 
z
" style="fill: #ffffff"/>
  </g>
  <g id="axes_1">
   <g id="patch_2">
    <path d="M 50.556343 539.2128 
L 1095.387429 539.2128 
L 1095.387429 25.309989 
L 50.556343 25.309989 
z
" style="fill: #ffffff"/>
   </g>
   <g id="matplotlib.axis_1">
    <g id="xtick_1">
     <g id="line2d_1">
      <defs>
       <path id="m71a721cc43" d="M 0 0 
L 0 3.5 
" style="stroke: #000000; stroke-width: 0.8"/>
      </defs>
      <g>
       <use xlink:href="#m71a721cc43" x="98.048665" y="539.2128" style="stroke: #000000; stroke-width: 0.8"/>
      </g>
     </g>
     <g id="text_1">
      <!-- 2 -->
      <g transform="translate(94.867415 553.811237) scale(0.1 -0.1)">
       <defs>
        <path id="DejaVuSans-32" d="M 1228 531 
L 3431 531 
L 3431 0 
L 469 0 
L 469 531 
Q 828 903 1448 1529 
Q 2069 2156 2228 2338 
Q 2531 2678 2651 2914 
Q 2772 3150 2772 3378 
Q 2772 3750 2511 3984 
Q 2250 4219 1831 4219 
Q 1534 4219 1204 4116 
Q 875 4013 500 3803 
L 500 4441 
Q 881 4594 1212 4672 
Q 1544 4750 1819 4750 
Q 2544 4750 2975 4387 
Q 3406 4025 3406 3419 
Q 3406 3131 3298 2873 
Q 3191 2616 2906 2266 
Q 2828 2175 2409 1742 
Q 1991 1309 1228 531 
z
" transform="scale(0.015625)"/>
       </defs>
       <use xlink:href="#DejaVuSans-32"/>
      </g>
     </g>
    </g>
    <g id="xtick_2">
     <g id="line2d_2">
      <g>
       <use xlink:href="#m71a721cc43" x="288.017953" y="539.2128" style="stroke: #000000; stroke-width: 0.8"/>
      </g>
     </g>
     <g id="text_2">
      <!-- 4 -->
      <g transform="translate(284.836703 553.811237) scale(0.1 -0.1)">
       <defs>
        <path id="DejaVuSans-34" d="M 2419 4116 
L 825 1625 
L 2419 1625 
L 2419 4116 
z
M 2253 4666 
L 3047 4666 
L 3047 1625 
L 3713 1625 
L 3713 1100 
L 3047 1100 
L 3047 0 
L 2419 0 
L 2419 1100 
L 313 1100 
L 313 1709 
L 2253 4666 
z
" transform="scale(0.015625)"/>
       </defs>
       <use xlink:href="#DejaVuSans-34"/>
      </g>
     </g>
    </g>
    <g id="xtick_3">
     <g id="line2d_3">
      <g>
       <use xlink:href="#m71a721cc43" x="477.987242" y="539.2128" style="stroke: #000000; stroke-width: 0.8"/>
      </g>
     </g>
     <g id="text_3">
      <!-- 6 -->
      <g transform="translate(474.805992 553.811237) scale(0.1 -0.1)">
       <defs>
        <path id="DejaVuSans-36" d="M 2113 2584 
Q 1688 2584 1439 2293 
Q 1191 2003 1191 1497 
Q 1191 994 1439 701 
Q 1688 409 2113 409 
Q 2538 409 2786 701 
Q 3034 994 3034 1497 
Q 3034 2003 2786 2293 
Q 2538 2584 2113 2584 
z
M 3366 4563 
L 3366 3988 
Q 3128 4100 2886 4159 
Q 2644 4219 2406 4219 
Q 1781 4219 1451 3797 
Q 1122 3375 1075 2522 
Q 1259 2794 1537 2939 
Q 1816 3084 2150 3084 
Q 2853 3084 3261 2657 
Q 3669 2231 3669 1497 
Q 3669 778 3244 343 
Q 2819 -91 2113 -91 
Q 1303 -91 875 529 
Q 447 1150 447 2328 
Q 447 3434 972 4092 
Q 1497 4750 2381 4750 
Q 2619 4750 2861 4703 
Q 3103 4656 3366 4563 
z
" transform="scale(0.015625)"/>
       </defs>
       <use xlink:href="#DejaVuSans-36"/>
      </g>
     </g>
    </g>
    <g id="xtick_4">
     <g id="line2d_4">
      <g>
       <use xlink:href="#m71a721cc43" x="667.95653" y="539.2128" style="stroke: #000000; stroke-width: 0.8"/>
      </g>
     </g>
     <g id="text_4">
      <!-- 8 -->
      <g transform="translate(664.77528 553.811237) scale(0.1 -0.1)">
       <defs>
        <path id="DejaVuSans-38" d="M 2034 2216 
Q 1584 2216 1326 1975 
Q 1069 1734 1069 1313 
Q 1069 891 1326 650 
Q 1584 409 2034 409 
Q 2484 409 2743 651 
Q 3003 894 3003 1313 
Q 3003 1734 2745 1975 
Q 2488 2216 2034 2216 
z
M 1403 2484 
Q 997 2584 770 2862 
Q 544 3141 544 3541 
Q 544 4100 942 4425 
Q 1341 4750 2034 4750 
Q 2731 4750 3128 4425 
Q 3525 4100 3525 3541 
Q 3525 3141 3298 2862 
Q 3072 2584 2669 2484 
Q 3125 2378 3379 2068 
Q 3634 1759 3634 1313 
Q 3634 634 3220 271 
Q 2806 -91 2034 -91 
Q 1263 -91 848 271 
Q 434 634 434 1313 
Q 434 1759 690 2068 
Q 947 2378 1403 2484 
z
M 1172 3481 
Q 1172 3119 1398 2916 
Q 1625 2713 2034 2713 
Q 2441 2713 2670 2916 
Q 2900 3119 2900 3481 
Q 2900 3844 2670 4047 
Q 2441 4250 2034 4250 
Q 1625 4250 1398 4047 
Q 1172 3844 1172 3481 
z
" transform="scale(0.015625)"/>
       </defs>
       <use xlink:href="#DejaVuSans-38"/>
      </g>
     </g>
    </g>
    <g id="xtick_5">
     <g id="line2d_5">
      <g>
       <use xlink:href="#m71a721cc43" x="857.925818" y="539.2128" style="stroke: #000000; stroke-width: 0.8"/>
      </g>
     </g>
     <g id="text_5">
      <!-- 10 -->
      <g transform="translate(851.563318 553.811237) scale(0.1 -0.1)">
       <defs>
        <path id="DejaVuSans-31" d="M 794 531 
L 1825 531 
L 1825 4091 
L 703 3866 
L 703 4441 
L 1819 4666 
L 2450 4666 
L 2450 531 
L 3481 531 
L 3481 0 
L 794 0 
L 794 531 
z
" transform="scale(0.015625)"/>
        <path id="DejaVuSans-30" d="M 2034 4250 
Q 1547 4250 1301 3770 
Q 1056 3291 1056 2328 
Q 1056 1369 1301 889 
Q 1547 409 2034 409 
Q 2525 409 2770 889 
Q 3016 1369 3016 2328 
Q 3016 3291 2770 3770 
Q 2525 4250 2034 4250 
z
M 2034 4750 
Q 2819 4750 3233 4129 
Q 3647 3509 3647 2328 
Q 3647 1150 3233 529 
Q 2819 -91 2034 -91 
Q 1250 -91 836 529 
Q 422 1150 422 2328 
Q 422 3509 836 4129 
Q 1250 4750 2034 4750 
z
" transform="scale(0.015625)"/>
       </defs>
       <use xlink:href="#DejaVuSans-31"/>
       <use xlink:href="#DejaVuSans-30" x="63.623047"/>
      </g>
     </g>
    </g>
    <g id="xtick_6">
     <g id="line2d_6">
      <g>
       <use xlink:href="#m71a721cc43" x="1047.895106" y="539.2128" style="stroke: #000000; stroke-width: 0.8"/>
      </g>
     </g>
     <g id="text_6">
      <!-- 12 -->
      <g transform="translate(1041.532606 553.811237) scale(0.1 -0.1)">
       <use xlink:href="#DejaVuSans-31"/>
       <use xlink:href="#DejaVuSans-32" x="63.623047"/>
      </g>
     </g>
    </g>
    <g id="text_7">
     <!-- log10(Number of runs) -->
     <g transform="translate(516.003917 567.489362) scale(0.1 -0.1)">
      <defs>
       <path id="DejaVuSans-6c" d="M 603 4863 
L 1178 4863 
L 1178 0 
L 603 0 
L 603 4863 
z
" transform="scale(0.015625)"/>
       <path id="DejaVuSans-6f" d="M 1959 3097 
Q 1497 3097 1228 2736 
Q 959 2375 959 1747 
Q 959 1119 1226 758 
Q 1494 397 1959 397 
Q 2419 397 2687 759 
Q 2956 1122 2956 1747 
Q 2956 2369 2687 2733 
Q 2419 3097 1959 3097 
z
M 1959 3584 
Q 2709 3584 3137 3096 
Q 3566 2609 3566 1747 
Q 3566 888 3137 398 
Q 2709 -91 1959 -91 
Q 1206 -91 779 398 
Q 353 888 353 1747 
Q 353 2609 779 3096 
Q 1206 3584 1959 3584 
z
" transform="scale(0.015625)"/>
       <path id="DejaVuSans-67" d="M 2906 1791 
Q 2906 2416 2648 2759 
Q 2391 3103 1925 3103 
Q 1463 3103 1205 2759 
Q 947 2416 947 1791 
Q 947 1169 1205 825 
Q 1463 481 1925 481 
Q 2391 481 2648 825 
Q 2906 1169 2906 1791 
z
M 3481 434 
Q 3481 -459 3084 -895 
Q 2688 -1331 1869 -1331 
Q 1566 -1331 1297 -1286 
Q 1028 -1241 775 -1147 
L 775 -588 
Q 1028 -725 1275 -790 
Q 1522 -856 1778 -856 
Q 2344 -856 2625 -561 
Q 2906 -266 2906 331 
L 2906 616 
Q 2728 306 2450 153 
Q 2172 0 1784 0 
Q 1141 0 747 490 
Q 353 981 353 1791 
Q 353 2603 747 3093 
Q 1141 3584 1784 3584 
Q 2172 3584 2450 3431 
Q 2728 3278 2906 2969 
L 2906 3500 
L 3481 3500 
L 3481 434 
z
" transform="scale(0.015625)"/>
       <path id="DejaVuSans-28" d="M 1984 4856 
Q 1566 4138 1362 3434 
Q 1159 2731 1159 2009 
Q 1159 1288 1364 580 
Q 1569 -128 1984 -844 
L 1484 -844 
Q 1016 -109 783 600 
Q 550 1309 550 2009 
Q 550 2706 781 3412 
Q 1013 4119 1484 4856 
L 1984 4856 
z
" transform="scale(0.015625)"/>
       <path id="DejaVuSans-4e" d="M 628 4666 
L 1478 4666 
L 3547 763 
L 3547 4666 
L 4159 4666 
L 4159 0 
L 3309 0 
L 1241 3903 
L 1241 0 
L 628 0 
L 628 4666 
z
" transform="scale(0.015625)"/>
       <path id="DejaVuSans-75" d="M 544 1381 
L 544 3500 
L 1119 3500 
L 1119 1403 
Q 1119 906 1312 657 
Q 1506 409 1894 409 
Q 2359 409 2629 706 
Q 2900 1003 2900 1516 
L 2900 3500 
L 3475 3500 
L 3475 0 
L 2900 0 
L 2900 538 
Q 2691 219 2414 64 
Q 2138 -91 1772 -91 
Q 1169 -91 856 284 
Q 544 659 544 1381 
z
M 1991 3584 
L 1991 3584 
z
" transform="scale(0.015625)"/>
       <path id="DejaVuSans-6d" d="M 3328 2828 
Q 3544 3216 3844 3400 
Q 4144 3584 4550 3584 
Q 5097 3584 5394 3201 
Q 5691 2819 5691 2113 
L 5691 0 
L 5113 0 
L 5113 2094 
Q 5113 2597 4934 2840 
Q 4756 3084 4391 3084 
Q 3944 3084 3684 2787 
Q 3425 2491 3425 1978 
L 3425 0 
L 2847 0 
L 2847 2094 
Q 2847 2600 2669 2842 
Q 2491 3084 2119 3084 
Q 1678 3084 1418 2786 
Q 1159 2488 1159 1978 
L 1159 0 
L 581 0 
L 581 3500 
L 1159 3500 
L 1159 2956 
Q 1356 3278 1631 3431 
Q 1906 3584 2284 3584 
Q 2666 3584 2933 3390 
Q 3200 3197 3328 2828 
z
" transform="scale(0.015625)"/>
       <path id="DejaVuSans-62" d="M 3116 1747 
Q 3116 2381 2855 2742 
Q 2594 3103 2138 3103 
Q 1681 3103 1420 2742 
Q 1159 2381 1159 1747 
Q 1159 1113 1420 752 
Q 1681 391 2138 391 
Q 2594 391 2855 752 
Q 3116 1113 3116 1747 
z
M 1159 2969 
Q 1341 3281 1617 3432 
Q 1894 3584 2278 3584 
Q 2916 3584 3314 3078 
Q 3713 2572 3713 1747 
Q 3713 922 3314 415 
Q 2916 -91 2278 -91 
Q 1894 -91 1617 61 
Q 1341 213 1159 525 
L 1159 0 
L 581 0 
L 581 4863 
L 1159 4863 
L 1159 2969 
z
" transform="scale(0.015625)"/>
       <path id="DejaVuSans-65" d="M 3597 1894 
L 3597 1613 
L 953 1613 
Q 991 1019 1311 708 
Q 1631 397 2203 397 
Q 2534 397 2845 478 
Q 3156 559 3463 722 
L 3463 178 
Q 3153 47 2828 -22 
Q 2503 -91 2169 -91 
Q 1331 -91 842 396 
Q 353 884 353 1716 
Q 353 2575 817 3079 
Q 1281 3584 2069 3584 
Q 2775 3584 3186 3129 
Q 3597 2675 3597 1894 
z
M 3022 2063 
Q 3016 2534 2758 2815 
Q 2500 3097 2075 3097 
Q 1594 3097 1305 2825 
Q 1016 2553 972 2059 
L 3022 2063 
z
" transform="scale(0.015625)"/>
       <path id="DejaVuSans-72" d="M 2631 2963 
Q 2534 3019 2420 3045 
Q 2306 3072 2169 3072 
Q 1681 3072 1420 2755 
Q 1159 2438 1159 1844 
L 1159 0 
L 581 0 
L 581 3500 
L 1159 3500 
L 1159 2956 
Q 1341 3275 1631 3429 
Q 1922 3584 2338 3584 
Q 2397 3584 2469 3576 
Q 2541 3569 2628 3553 
L 2631 2963 
z
" transform="scale(0.015625)"/>
       <path id="DejaVuSans-20" transform="scale(0.015625)"/>
       <path id="DejaVuSans-66" d="M 2375 4863 
L 2375 4384 
L 1825 4384 
Q 1516 4384 1395 4259 
Q 1275 4134 1275 3809 
L 1275 3500 
L 2222 3500 
L 2222 3053 
L 1275 3053 
L 1275 0 
L 697 0 
L 697 3053 
L 147 3053 
L 147 3500 
L 697 3500 
L 697 3744 
Q 697 4328 969 4595 
Q 1241 4863 1831 4863 
L 2375 4863 
z
" transform="scale(0.015625)"/>
       <path id="DejaVuSans-6e" d="M 3513 2113 
L 3513 0 
L 2938 0 
L 2938 2094 
Q 2938 2591 2744 2837 
Q 2550 3084 2163 3084 
Q 1697 3084 1428 2787 
Q 1159 2491 1159 1978 
L 1159 0 
L 581 0 
L 581 3500 
L 1159 3500 
L 1159 2956 
Q 1366 3272 1645 3428 
Q 1925 3584 2291 3584 
Q 2894 3584 3203 3211 
Q 3513 2838 3513 2113 
z
" transform="scale(0.015625)"/>
       <path id="DejaVuSans-73" d="M 2834 3397 
L 2834 2853 
Q 2591 2978 2328 3040 
Q 2066 3103 1784 3103 
Q 1356 3103 1142 2972 
Q 928 2841 928 2578 
Q 928 2378 1081 2264 
Q 1234 2150 1697 2047 
L 1894 2003 
Q 2506 1872 2764 1633 
Q 3022 1394 3022 966 
Q 3022 478 2636 193 
Q 2250 -91 1575 -91 
Q 1294 -91 989 -36 
Q 684 19 347 128 
L 347 722 
Q 666 556 975 473 
Q 1284 391 1588 391 
Q 1994 391 2212 530 
Q 2431 669 2431 922 
Q 2431 1156 2273 1281 
Q 2116 1406 1581 1522 
L 1381 1569 
Q 847 1681 609 1914 
Q 372 2147 372 2553 
Q 372 3047 722 3315 
Q 1072 3584 1716 3584 
Q 2034 3584 2315 3537 
Q 2597 3491 2834 3397 
z
" transform="scale(0.015625)"/>
       <path id="DejaVuSans-29" d="M 513 4856 
L 1013 4856 
Q 1481 4119 1714 3412 
Q 1947 2706 1947 2009 
Q 1947 1309 1714 600 
Q 1481 -109 1013 -844 
L 513 -844 
Q 928 -128 1133 580 
Q 1338 1288 1338 2009 
Q 1338 2731 1133 3434 
Q 928 4138 513 4856 
z
" transform="scale(0.015625)"/>
      </defs>
      <use xlink:href="#DejaVuSans-6c"/>
      <use xlink:href="#DejaVuSans-6f" x="27.783203"/>
      <use xlink:href="#DejaVuSans-67" x="88.964844"/>
      <use xlink:href="#DejaVuSans-31" x="152.441406"/>
      <use xlink:href="#DejaVuSans-30" x="216.064453"/>
      <use xlink:href="#DejaVuSans-28" x="279.6875"/>
      <use xlink:href="#DejaVuSans-4e" x="318.701172"/>
      <use xlink:href="#DejaVuSans-75" x="393.505859"/>
      <use xlink:href="#DejaVuSans-6d" x="456.884766"/>
      <use xlink:href="#DejaVuSans-62" x="554.296875"/>
      <use xlink:href="#DejaVuSans-65" x="617.773438"/>
      <use xlink:href="#DejaVuSans-72" x="679.296875"/>
      <use xlink:href="#DejaVuSans-20" x="720.410156"/>
      <use xlink:href="#DejaVuSans-6f" x="752.197266"/>
      <use xlink:href="#DejaVuSans-66" x="813.378906"/>
      <use xlink:href="#DejaVuSans-20" x="848.583984"/>
      <use xlink:href="#DejaVuSans-72" x="880.371094"/>
      <use xlink:href="#DejaVuSans-75" x="921.484375"/>
      <use xlink:href="#DejaVuSans-6e" x="984.863281"/>
      <use xlink:href="#DejaVuSans-73" x="1048.242188"/>
      <use xlink:href="#DejaVuSans-29" x="1100.341797"/>
     </g>
    </g>
   </g>
   <g id="matplotlib.axis_2">
    <g id="ytick_1">
     <g id="line2d_7">
      <defs>
       <path id="m0578bfd2ef" d="M 0 0 
L -3.5 0 
" style="stroke: #000000; stroke-width: 0.8"/>
      </defs>
      <g>
       <use xlink:href="#m0578bfd2ef" x="50.556343" y="490.24253" style="stroke: #000000; stroke-width: 0.8"/>
      </g>
     </g>
     <g id="text_8">
      <!-- −9 -->
      <g transform="translate(28.814155 494.041749) scale(0.1 -0.1)">
       <defs>
        <path id="DejaVuSans-2212" d="M 678 2272 
L 4684 2272 
L 4684 1741 
L 678 1741 
L 678 2272 
z
" transform="scale(0.015625)"/>
        <path id="DejaVuSans-39" d="M 703 97 
L 703 672 
Q 941 559 1184 500 
Q 1428 441 1663 441 
Q 2288 441 2617 861 
Q 2947 1281 2994 2138 
Q 2813 1869 2534 1725 
Q 2256 1581 1919 1581 
Q 1219 1581 811 2004 
Q 403 2428 403 3163 
Q 403 3881 828 4315 
Q 1253 4750 1959 4750 
Q 2769 4750 3195 4129 
Q 3622 3509 3622 2328 
Q 3622 1225 3098 567 
Q 2575 -91 1691 -91 
Q 1453 -91 1209 -44 
Q 966 3 703 97 
z
M 1959 2075 
Q 2384 2075 2632 2365 
Q 2881 2656 2881 3163 
Q 2881 3666 2632 3958 
Q 2384 4250 1959 4250 
Q 1534 4250 1286 3958 
Q 1038 3666 1038 3163 
Q 1038 2656 1286 2365 
Q 1534 2075 1959 2075 
z
" transform="scale(0.015625)"/>
       </defs>
       <use xlink:href="#DejaVuSans-2212"/>
       <use xlink:href="#DejaVuSans-39" x="83.789062"/>
      </g>
     </g>
    </g>
    <g id="ytick_2">
     <g id="line2d_8">
      <g>
       <use xlink:href="#m0578bfd2ef" x="50.556343" y="423.706679" style="stroke: #000000; stroke-width: 0.8"/>
      </g>
     </g>
     <g id="text_9">
      <!-- −8 -->
      <g transform="translate(28.814155 427.505898) scale(0.1 -0.1)">
       <use xlink:href="#DejaVuSans-2212"/>
       <use xlink:href="#DejaVuSans-38" x="83.789062"/>
      </g>
     </g>
    </g>
    <g id="ytick_3">
     <g id="line2d_9">
      <g>
       <use xlink:href="#m0578bfd2ef" x="50.556343" y="357.170828" style="stroke: #000000; stroke-width: 0.8"/>
      </g>
     </g>
     <g id="text_10">
      <!-- −7 -->
      <g transform="translate(28.814155 360.970047) scale(0.1 -0.1)">
       <defs>
        <path id="DejaVuSans-37" d="M 525 4666 
L 3525 4666 
L 3525 4397 
L 1831 0 
L 1172 0 
L 2766 4134 
L 525 4134 
L 525 4666 
z
" transform="scale(0.015625)"/>
       </defs>
       <use xlink:href="#DejaVuSans-2212"/>
       <use xlink:href="#DejaVuSans-37" x="83.789062"/>
      </g>
     </g>
    </g>
    <g id="ytick_4">
     <g id="line2d_10">
      <g>
       <use xlink:href="#m0578bfd2ef" x="50.556343" y="290.634977" style="stroke: #000000; stroke-width: 0.8"/>
      </g>
     </g>
     <g id="text_11">
      <!-- −6 -->
      <g transform="translate(28.814155 294.434196) scale(0.1 -0.1)">
       <use xlink:href="#DejaVuSans-2212"/>
       <use xlink:href="#DejaVuSans-36" x="83.789062"/>
      </g>
     </g>
    </g>
    <g id="ytick_5">
     <g id="line2d_11">
      <g>
       <use xlink:href="#m0578bfd2ef" x="50.556343" y="224.099126" style="stroke: #000000; stroke-width: 0.8"/>
      </g>
     </g>
     <g id="text_12">
      <!-- −5 -->
      <g transform="translate(28.814155 227.898345) scale(0.1 -0.1)">
       <defs>
        <path id="DejaVuSans-35" d="M 691 4666 
L 3169 4666 
L 3169 4134 
L 1269 4134 
L 1269 2991 
Q 1406 3038 1543 3061 
Q 1681 3084 1819 3084 
Q 2600 3084 3056 2656 
Q 3513 2228 3513 1497 
Q 3513 744 3044 326 
Q 2575 -91 1722 -91 
Q 1428 -91 1123 -41 
Q 819 9 494 109 
L 494 744 
Q 775 591 1075 516 
Q 1375 441 1709 441 
Q 2250 441 2565 725 
Q 2881 1009 2881 1497 
Q 2881 1984 2565 2268 
Q 2250 2553 1709 2553 
Q 1456 2553 1204 2497 
Q 953 2441 691 2322 
L 691 4666 
z
" transform="scale(0.015625)"/>
       </defs>
       <use xlink:href="#DejaVuSans-2212"/>
       <use xlink:href="#DejaVuSans-35" x="83.789062"/>
      </g>
     </g>
    </g>
    <g id="ytick_6">
     <g id="line2d_12">
      <g>
       <use xlink:href="#m0578bfd2ef" x="50.556343" y="157.563275" style="stroke: #000000; stroke-width: 0.8"/>
      </g>
     </g>
     <g id="text_13">
      <!-- −4 -->
      <g transform="translate(28.814155 161.362494) scale(0.1 -0.1)">
       <use xlink:href="#DejaVuSans-2212"/>
       <use xlink:href="#DejaVuSans-34" x="83.789062"/>
      </g>
     </g>
    </g>
    <g id="ytick_7">
     <g id="line2d_13">
      <g>
       <use xlink:href="#m0578bfd2ef" x="50.556343" y="91.027424" style="stroke: #000000; stroke-width: 0.8"/>
      </g>
     </g>
     <g id="text_14">
      <!-- −3 -->
      <g transform="translate(28.814155 94.826643) scale(0.1 -0.1)">
       <defs>
        <path id="DejaVuSans-33" d="M 2597 2516 
Q 3050 2419 3304 2112 
Q 3559 1806 3559 1356 
Q 3559 666 3084 287 
Q 2609 -91 1734 -91 
Q 1441 -91 1130 -33 
Q 819 25 488 141 
L 488 750 
Q 750 597 1062 519 
Q 1375 441 1716 441 
Q 2309 441 2620 675 
Q 2931 909 2931 1356 
Q 2931 1769 2642 2001 
Q 2353 2234 1838 2234 
L 1294 2234 
L 1294 2753 
L 1863 2753 
Q 2328 2753 2575 2939 
Q 2822 3125 2822 3475 
Q 2822 3834 2567 4026 
Q 2313 4219 1838 4219 
Q 1578 4219 1281 4162 
Q 984 4106 628 3988 
L 628 4550 
Q 988 4650 1302 4700 
Q 1616 4750 1894 4750 
Q 2613 4750 3031 4423 
Q 3450 4097 3450 3541 
Q 3450 3153 3228 2886 
Q 3006 2619 2597 2516 
z
" transform="scale(0.015625)"/>
       </defs>
       <use xlink:href="#DejaVuSans-2212"/>
       <use xlink:href="#DejaVuSans-33" x="83.789062"/>
      </g>
     </g>
    </g>
    <g id="text_15">
     <!-- log10(|proportion - final proportion|) -->
     <g transform="translate(22.456343 372.944988) rotate(-90) scale(0.1 -0.1)">
      <defs>
       <path id="DejaVuSans-7c" d="M 1344 4891 
L 1344 -1509 
L 813 -1509 
L 813 4891 
L 1344 4891 
z
" transform="scale(0.015625)"/>
       <path id="DejaVuSans-70" d="M 1159 525 
L 1159 -1331 
L 581 -1331 
L 581 3500 
L 1159 3500 
L 1159 2969 
Q 1341 3281 1617 3432 
Q 1894 3584 2278 3584 
Q 2916 3584 3314 3078 
Q 3713 2572 3713 1747 
Q 3713 922 3314 415 
Q 2916 -91 2278 -91 
Q 1894 -91 1617 61 
Q 1341 213 1159 525 
z
M 3116 1747 
Q 3116 2381 2855 2742 
Q 2594 3103 2138 3103 
Q 1681 3103 1420 2742 
Q 1159 2381 1159 1747 
Q 1159 1113 1420 752 
Q 1681 391 2138 391 
Q 2594 391 2855 752 
Q 3116 1113 3116 1747 
z
" transform="scale(0.015625)"/>
       <path id="DejaVuSans-74" d="M 1172 4494 
L 1172 3500 
L 2356 3500 
L 2356 3053 
L 1172 3053 
L 1172 1153 
Q 1172 725 1289 603 
Q 1406 481 1766 481 
L 2356 481 
L 2356 0 
L 1766 0 
Q 1100 0 847 248 
Q 594 497 594 1153 
L 594 3053 
L 172 3053 
L 172 3500 
L 594 3500 
L 594 4494 
L 1172 4494 
z
" transform="scale(0.015625)"/>
       <path id="DejaVuSans-69" d="M 603 3500 
L 1178 3500 
L 1178 0 
L 603 0 
L 603 3500 
z
M 603 4863 
L 1178 4863 
L 1178 4134 
L 603 4134 
L 603 4863 
z
" transform="scale(0.015625)"/>
       <path id="DejaVuSans-2d" d="M 313 2009 
L 1997 2009 
L 1997 1497 
L 313 1497 
L 313 2009 
z
" transform="scale(0.015625)"/>
       <path id="DejaVuSans-61" d="M 2194 1759 
Q 1497 1759 1228 1600 
Q 959 1441 959 1056 
Q 959 750 1161 570 
Q 1363 391 1709 391 
Q 2188 391 2477 730 
Q 2766 1069 2766 1631 
L 2766 1759 
L 2194 1759 
z
M 3341 1997 
L 3341 0 
L 2766 0 
L 2766 531 
Q 2569 213 2275 61 
Q 1981 -91 1556 -91 
Q 1019 -91 701 211 
Q 384 513 384 1019 
Q 384 1609 779 1909 
Q 1175 2209 1959 2209 
L 2766 2209 
L 2766 2266 
Q 2766 2663 2505 2880 
Q 2244 3097 1772 3097 
Q 1472 3097 1187 3025 
Q 903 2953 641 2809 
L 641 3341 
Q 956 3463 1253 3523 
Q 1550 3584 1831 3584 
Q 2591 3584 2966 3190 
Q 3341 2797 3341 1997 
z
" transform="scale(0.015625)"/>
      </defs>
      <use xlink:href="#DejaVuSans-6c"/>
      <use xlink:href="#DejaVuSans-6f" x="27.783203"/>
      <use xlink:href="#DejaVuSans-67" x="88.964844"/>
      <use xlink:href="#DejaVuSans-31" x="152.441406"/>
      <use xlink:href="#DejaVuSans-30" x="216.064453"/>
      <use xlink:href="#DejaVuSans-28" x="279.6875"/>
      <use xlink:href="#DejaVuSans-7c" x="318.701172"/>
      <use xlink:href="#DejaVuSans-70" x="352.392578"/>
      <use xlink:href="#DejaVuSans-72" x="415.869141"/>
      <use xlink:href="#DejaVuSans-6f" x="454.732422"/>
      <use xlink:href="#DejaVuSans-70" x="515.914062"/>
      <use xlink:href="#DejaVuSans-6f" x="579.390625"/>
      <use xlink:href="#DejaVuSans-72" x="640.572266"/>
      <use xlink:href="#DejaVuSans-74" x="681.685547"/>
      <use xlink:href="#DejaVuSans-69" x="720.894531"/>
      <use xlink:href="#DejaVuSans-6f" x="748.677734"/>
      <use xlink:href="#DejaVuSans-6e" x="809.859375"/>
      <use xlink:href="#DejaVuSans-20" x="873.238281"/>
      <use xlink:href="#DejaVuSans-2d" x="905.025391"/>
      <use xlink:href="#DejaVuSans-20" x="941.109375"/>
      <use xlink:href="#DejaVuSans-66" x="972.896484"/>
      <use xlink:href="#DejaVuSans-69" x="1008.101562"/>
      <use xlink:href="#DejaVuSans-6e" x="1035.884766"/>
      <use xlink:href="#DejaVuSans-61" x="1099.263672"/>
      <use xlink:href="#DejaVuSans-6c" x="1160.542969"/>
      <use xlink:href="#DejaVuSans-20" x="1188.326172"/>
      <use xlink:href="#DejaVuSans-70" x="1220.113281"/>
      <use xlink:href="#DejaVuSans-72" x="1283.589844"/>
      <use xlink:href="#DejaVuSans-6f" x="1322.453125"/>
      <use xlink:href="#DejaVuSans-70" x="1383.634766"/>
      <use xlink:href="#DejaVuSans-6f" x="1447.111328"/>
      <use xlink:href="#DejaVuSans-72" x="1508.292969"/>
      <use xlink:href="#DejaVuSans-74" x="1549.40625"/>
      <use xlink:href="#DejaVuSans-69" x="1588.615234"/>
      <use xlink:href="#DejaVuSans-6f" x="1616.398438"/>
      <use xlink:href="#DejaVuSans-6e" x="1677.580078"/>
      <use xlink:href="#DejaVuSans-7c" x="1740.958984"/>
      <use xlink:href="#DejaVuSans-29" x="1774.650391"/>
     </g>
    </g>
   </g>
   <g id="line2d_14">
    <path d="M 98.048665 59.896436 
L 101.980334 70.599719 
L 105.569667 84.116408 
L 108.871534 104.416775 
L 111.928584 164.114428 
L 114.774631 117.760435 
L 117.436929 97.004571 
L 119.937774 86.225371 
L 122.295633 79.16526 
L 124.525977 74.042902 
L 126.641892 70.099958 
L 128.65455 66.944012 
L 130.573561 64.346424 
L 132.407255 62.162814 
L 134.162894 60.296519 
L 137.464761 57.26384 
L 140.521811 54.895887 
L 141.969374 142.815585 
L 143.367858 117.760435 
L 144.720481 105.238331 
L 146.030156 97.004571 
L 147.299527 90.954231 
L 148.531001 86.225371 
L 149.726775 82.380042 
L 150.88886 79.16526 
L 153.119204 74.042902 
L 155.235119 70.099958 
L 157.247777 66.944012 
L 159.166788 64.346424 
L 161.000482 62.162814 
L 163.606694 59.460407 
L 166.057988 57.26384 
L 169.115038 54.895887 
L 171.961085 52.989771 
L 175.262951 51.068575 
L 178.905136 49.242602 
L 180.05108 48.72213 
L 180.612331 59.19435 
L 181.712431 58.187595 
L 182.251671 72.96592 
L 183.828346 70.099958 
L 185.841004 66.944012 
L 187.760015 64.346424 
L 189.593709 62.162814 
L 190.039673 75.919586 
L 191.349348 73.17591 
L 191.776827 94.801048 
L 193.033309 89.258144 
L 196.964979 101.354362 
L 200.554312 85.050001 
L 203.856178 147.827043 
L 206.913229 104.169579 
L 209.759275 89.258144 
L 212.421573 97.004571 
L 214.922418 86.225371 
L 217.280277 117.760435 
L 219.510621 125.31357 
L 221.626536 170.849153 
L 223.639194 164.114428 
L 225.558206 136.181297 
L 227.391899 155.710868 
L 229.147539 117.760435 
L 230.831499 148.496473 
L 232.449405 131.722894 
L 234.006243 196.371832 
L 235.506456 164.114428 
L 236.954018 142.815585 
L 238.352502 170.849153 
L 239.705125 126.902175 
L 241.0148 139.300094 
L 242.284171 159.522268 
L 243.515645 126.817272 
L 244.711419 103.424604 
L 245.873504 91.247486 
L 247.003748 89.756449 
L 248.103848 82.186732 
L 249.17537 81.337792 
L 250.219763 86.077245 
L 251.238366 91.445432 
L 253.203085 88.900225 
L 254.151433 94.34928 
L 255.078467 92.912141 
L 255.985126 85.813811 
L 256.872285 90.399615 
L 257.740766 95.604029 
L 258.591338 94.199315 
L 259.424726 99.851165 
L 261.042632 96.710027 
L 261.828395 95.339091 
L 262.59947 100.736029 
L 263.356396 107.107649 
L 264.099683 97.69293 
L 264.829813 103.203012 
L 266.252413 99.984405 
L 266.945729 92.912141 
L 267.627584 97.269893 
L 268.298352 96.062692 
L 268.958387 100.736029 
L 270.877398 96.915746 
L 271.49773 95.815342 
L 272.711091 104.933381 
L 273.304646 110.58175 
L 273.88978 117.386002 
L 274.466731 126.013911 
L 275.035724 122.705148 
L 275.596975 132.978043 
L 276.150692 128.841676 
L 276.697075 141.608013 
L 277.236315 136.181297 
L 277.768597 153.18871 
L 278.294099 145.455104 
L 278.81299 139.498051 
L 279.325435 158.338882 
L 279.831593 224.016922 
L 280.331615 127.172785 
L 280.825648 137.713336 
L 281.313835 153.947814 
L 281.796312 129.682849 
L 282.273211 140.862908 
L 283.210781 132.238093 
L 283.671694 144.148614 
L 284.127514 164.114428 
L 284.578353 269.539843 
L 285.024317 166.305111 
L 285.465512 182.723287 
L 285.902038 153.330905 
L 286.333993 162.60982 
L 286.761471 176.000028 
L 287.184565 151.262049 
L 287.603364 138.346394 
L 288.017953 129.605538 
L 291.949623 131.674446 
L 295.538956 156.562388 
L 298.840822 131.722894 
L 301.897873 229.53097 
L 304.743919 138.04774 
L 307.406217 131.01186 
L 309.907062 132.31225 
L 312.264921 117.760435 
L 314.495265 123.389314 
L 318.623838 125.698657 
L 320.54285 137.605467 
L 322.376543 132.622335 
L 324.132183 146.533945 
L 328.990887 148.420866 
L 330.4911 194.943551 
L 331.938663 149.517206 
L 333.337146 150.024464 
L 334.689769 138.687336 
L 335.999444 139.300094 
L 337.268815 122.554067 
L 338.500289 132.31225 
L 339.696063 129.605538 
L 340.858148 141.516082 
L 341.988392 142.018406 
L 343.088492 138.30692 
L 344.160015 153.669714 
L 345.204407 135.694968 
L 346.22301 170.849153 
L 347.217065 184.526664 
L 348.187729 154.900246 
L 349.136077 207.620105 
L 350.063111 170.849153 
L 350.96977 162.299803 
L 351.856929 150.662971 
L 352.72541 146.533945 
L 353.575982 143.060755 
L 354.40937 134.370089 
L 355.226255 132.31225 
L 356.027276 126.410089 
L 357.584114 127.262856 
L 358.34104 124.162251 
L 359.084327 126.275354 
L 359.814457 123.389314 
L 360.53189 125.385337 
L 361.237057 129.235671 
L 361.930373 150.024464 
L 362.612228 154.205408 
L 363.282996 191.514121 
L 363.943031 210.118161 
L 364.592671 303.429862 
L 365.232239 214.832312 
L 365.862042 207.620105 
L 366.482374 254.928301 
L 367.093516 178.510657 
L 367.695736 188.603822 
L 368.28929 188.255624 
L 368.874425 170.849153 
L 369.451375 178.02732 
L 370.020368 201.254923 
L 370.581619 186.992733 
L 371.135336 165.313187 
L 371.681719 160.782323 
L 372.220959 160.892929 
L 372.753242 165.507608 
L 373.278743 153.834111 
L 373.797634 153.995304 
L 374.310079 157.511516 
L 374.816237 188.383022 
L 375.316259 189.387099 
L 375.810292 211.392034 
L 376.298479 161.696676 
L 376.780956 170.849153 
L 377.257855 193.674386 
L 377.729304 209.79865 
L 378.656338 254.234004 
L 379.112159 214.832312 
L 379.562997 199.025927 
L 380.008961 218.527538 
L 380.450156 220.501499 
L 380.886682 202.609151 
L 381.318637 202.012894 
L 381.746115 176.000028 
L 382.588008 159.522268 
L 383.002597 151.547964 
L 386.934267 166.962358 
L 390.5236 186.404643 
L 393.825466 202.016171 
L 396.882517 211.567564 
L 399.728563 199.853099 
L 402.390861 196.88889 
L 404.891706 168.275289 
L 407.249565 147.65125 
L 409.479909 149.636543 
L 411.595824 166.600954 
L 413.608482 158.600078 
L 415.527494 145.076794 
L 417.361187 154.555918 
L 419.116827 156.206063 
L 420.800788 148.860976 
L 422.418693 133.198799 
L 423.975531 130.430628 
L 425.475744 128.831624 
L 426.923307 131.971802 
L 428.32179 139.557213 
L 429.674413 137.267652 
L 430.984088 137.441345 
L 432.253459 135.490282 
L 433.484933 134.908291 
L 434.680707 132.926781 
L 435.842792 133.870829 
L 436.973036 131.443504 
L 438.073136 130.189353 
L 439.144659 131.346351 
L 440.189051 131.301528 
L 441.207654 134.244026 
L 442.201709 137.699672 
L 443.172373 140.299418 
L 444.120721 138.27144 
L 445.047756 137.722746 
L 445.954414 141.197405 
L 446.841573 143.419987 
L 447.710054 142.691244 
L 448.560626 139.065964 
L 449.394015 144.502757 
L 450.210899 140.767179 
L 451.01192 140.506362 
L 451.797683 140.862986 
L 452.568758 139.729905 
L 453.325684 139.792959 
L 454.068971 139.300094 
L 454.799102 142.203013 
L 455.516534 137.628178 
L 456.221701 136.987247 
L 456.915017 137.56161 
L 457.596872 139.616548 
L 458.26764 136.135641 
L 458.927675 138.282136 
L 459.577315 137.667254 
L 460.216883 136.865509 
L 461.467019 139.472533 
L 462.07816 143.419987 
L 462.68038 142.659972 
L 463.273934 144.189232 
L 463.859069 141.960656 
L 464.436019 142.215429 
L 465.005012 149.321559 
L 465.566263 146.180661 
L 466.11998 146.402726 
L 466.666363 144.367579 
L 467.205603 143.650936 
L 467.737886 143.419987 
L 468.263387 142.320157 
L 468.782278 142.980539 
L 469.294724 145.693848 
L 469.800881 146.856513 
L 470.300903 146.81258 
L 470.794936 147.488965 
L 471.283123 145.808186 
L 471.7656 145.556633 
L 472.242499 148.046767 
L 472.713948 147.989803 
L 473.180069 145.696507 
L 474.096803 144.209228 
L 474.993606 150.024464 
L 475.4348 149.945633 
L 475.871326 150.576452 
L 476.303281 153.995304 
L 477.153853 153.223868 
L 477.987242 157.812203 
L 481.918911 193.737669 
L 485.508244 171.233055 
L 491.867161 272.737571 
L 494.713207 188.899587 
L 497.375505 263.959081 
L 499.87635 252.592138 
L 502.23421 210.662635 
L 504.464553 192.368537 
L 506.580469 231.869127 
L 508.593127 219.528576 
L 510.512138 253.646706 
L 512.345831 291.564924 
L 514.101471 254.234004 
L 515.785432 210.413707 
L 517.403337 181.685722 
L 518.960175 182.856859 
L 520.460388 181.521552 
L 521.907951 181.676892 
L 523.306434 178.260348 
L 524.659057 177.544309 
L 525.968732 177.422428 
L 528.469577 169.324348 
L 529.665351 168.707176 
L 530.827437 169.317255 
L 531.95768 163.205156 
L 534.129303 173.361945 
L 535.173696 174.133782 
L 536.192298 181.01276 
L 537.186354 175.496044 
L 538.157017 178.481258 
L 539.105365 177.3084 
L 540.0324 180.161561 
L 540.939058 173.768278 
L 541.826217 173.131372 
L 542.694698 177.362643 
L 543.545271 174.934801 
L 544.378659 174.39129 
L 545.195543 172.802672 
L 546.782327 171.842416 
L 547.553402 171.966803 
L 548.310328 171.063343 
L 549.783746 176.295019 
L 550.501178 176.251597 
L 551.899661 173.374749 
L 552.581516 175.418526 
L 553.252284 175.740633 
L 553.912319 175.624299 
L 554.56196 172.864243 
L 555.201527 175.486201 
L 555.831331 173.269002 
L 556.451663 178.295679 
L 557.062804 179.468108 
L 557.665024 182.183635 
L 558.258578 180.913198 
L 558.843713 184.689808 
L 559.420664 179.726207 
L 559.989656 177.98619 
L 560.550907 180.057421 
L 561.104624 179.550449 
L 561.651007 179.959107 
L 562.190248 180.778799 
L 562.72253 182.376864 
L 563.248031 185.333125 
L 563.766923 184.143492 
L 564.279368 183.725856 
L 564.785525 181.654507 
L 565.285547 180.527472 
L 565.779581 175.496044 
L 566.267767 174.789618 
L 566.750244 172.269526 
L 567.227143 172.177159 
L 567.698592 174.639252 
L 568.164714 174.748049 
L 569.081447 172.675293 
L 569.532285 173.7133 
L 570.419444 177.872862 
L 571.287925 180.183502 
L 571.715404 179.787745 
L 572.971886 173.625551 
L 576.903555 178.748346 
L 580.492888 176.584859 
L 583.794754 182.150424 
L 586.851805 182.778086 
L 589.697851 189.54883 
L 592.36015 186.355685 
L 594.860995 189.879795 
L 597.218854 196.032782 
L 599.449197 194.989822 
L 601.565113 188.350278 
L 603.577771 191.316748 
L 605.496782 192.578908 
L 607.330475 197.535119 
L 609.086115 198.472914 
L 610.770076 194.328766 
L 612.387982 196.518387 
L 613.944819 196.938228 
L 615.445032 196.847289 
L 616.892595 201.230946 
L 619.643701 206.929015 
L 620.953377 206.792662 
L 622.222748 203.067058 
L 623.454222 202.89716 
L 624.649995 206.033047 
L 625.812081 208.630383 
L 626.942324 204.912297 
L 628.042424 207.301057 
L 629.113947 207.260746 
L 630.15834 210.594221 
L 631.176942 212.516113 
L 632.170998 215.681878 
L 633.141662 216.369133 
L 634.090009 226.15794 
L 635.017044 229.398429 
L 635.923703 241.322187 
L 636.810862 241.507131 
L 637.679342 236.623852 
L 638.529915 236.863632 
L 639.363303 228.197236 
L 640.180187 223.496615 
L 640.981209 230.644292 
L 641.766971 229.84283 
L 642.538046 220.092255 
L 644.038259 226.913254 
L 645.485822 236.337086 
L 646.19099 235.942563 
L 646.884305 241.59711 
L 647.566161 244.671312 
L 648.236928 245.839038 
L 648.896963 243.133131 
L 649.546604 250.139903 
L 650.815975 241.887355 
L 651.436307 241.455219 
L 652.047449 242.210895 
L 652.649668 257.768703 
L 653.243222 266.380516 
L 653.828357 278.274445 
L 654.405308 292.38944 
L 654.9743 346.348856 
L 655.535551 433.57134 
L 656.089268 314.069091 
L 656.635651 312.884572 
L 657.174892 291.801791 
L 657.707174 314.548261 
L 658.232676 275.531445 
L 658.751567 362.63976 
L 659.264012 349.731686 
L 660.270191 286.48877 
L 660.764225 316.814161 
L 661.252412 327.068034 
L 661.734889 333.121807 
L 662.211788 282.666673 
L 662.683236 306.106483 
L 663.149358 298.987031 
L 663.610271 267.589817 
L 664.066091 259.754831 
L 664.51693 261.854089 
L 664.962894 299.585146 
L 665.404089 277.059283 
L 665.840614 277.337744 
L 666.272569 285.756664 
L 666.700048 311.085829 
L 667.123142 282.93148 
L 667.54194 271.183208 
L 667.95653 271.009534 
L 671.888199 382.071554 
L 675.477532 292.646454 
L 678.779399 273.959534 
L 681.836449 291.667464 
L 684.682495 271.952683 
L 687.344794 267.022883 
L 689.845639 236.007744 
L 692.203498 235.757863 
L 694.433841 242.445417 
L 696.549757 242.813627 
L 698.562415 253.769257 
L 700.481426 259.343528 
L 702.31512 262.7223 
L 704.070759 283.345789 
L 705.75472 283.552351 
L 707.372626 280.67372 
L 708.929464 260.594109 
L 710.429676 255.818842 
L 711.877239 263.653961 
L 713.275722 274.778171 
L 714.628346 260.390965 
L 715.938021 286.091826 
L 717.207392 267.414711 
L 718.438866 260.652044 
L 719.634639 266.920502 
L 720.796725 274.750363 
L 721.926968 294.260607 
L 723.027068 363.005308 
L 724.098591 281.046177 
L 725.142984 302.434859 
L 726.161586 289.848002 
L 727.155642 381.243333 
L 728.126306 316.094741 
L 729.074653 300.33005 
L 730.001688 304.969935 
L 730.908347 390.395594 
L 731.795506 284.600838 
L 732.663986 282.606862 
L 733.514559 273.185433 
L 734.347947 271.016656 
L 735.164831 272.22369 
L 735.965853 262.959607 
L 736.751616 264.872824 
L 737.522691 268.411834 
L 738.279616 256.995407 
L 739.022903 258.746147 
L 739.753034 256.616631 
L 740.470466 251.830062 
L 741.175634 244.542011 
L 742.550805 251.47571 
L 743.221573 251.322223 
L 743.881608 245.582729 
L 744.531248 249.62201 
L 745.170816 250.129299 
L 745.800619 247.741624 
L 746.420951 254.599337 
L 747.032093 265.76046 
L 747.634312 261.413467 
L 748.227866 264.920128 
L 748.813001 262.930488 
L 749.389952 258.549047 
L 749.958945 256.313737 
L 750.520195 259.299087 
L 751.073913 258.744322 
L 751.620296 260.748879 
L 752.159536 268.429231 
L 753.21732 273.739182 
L 753.736211 264.708982 
L 754.248656 266.585987 
L 754.754813 264.779467 
L 755.254835 263.991925 
L 755.748869 267.532565 
L 756.719533 260.983058 
L 757.196432 262.602726 
L 757.66788 262.488501 
L 758.134002 265.61728 
L 758.594915 266.651248 
L 759.050735 275.291425 
L 759.501574 277.446267 
L 759.947538 283.494049 
L 760.388733 300.191955 
L 760.825259 289.272411 
L 761.257213 285.20533 
L 761.684692 288.928073 
L 762.107786 280.2954 
L 762.526585 280.37151 
L 762.941174 275.459401 
L 766.872843 261.880042 
L 770.462177 265.024864 
L 773.764043 273.147267 
L 776.821093 277.405929 
L 779.66714 293.177961 
L 782.329438 303.378661 
L 784.830283 301.624899 
L 787.188142 292.44066 
L 789.418486 305.074779 
L 791.534401 329.6987 
L 793.547059 337.328615 
L 795.466071 352.447665 
L 797.299764 341.386098 
L 799.055404 424.171777 
L 800.739364 384.053312 
L 802.35727 341.308584 
L 803.914108 346.772323 
L 805.414321 356.834257 
L 806.861883 406.008546 
L 808.260367 331.052972 
L 809.61299 340.869705 
L 810.922665 325.370357 
L 812.192036 335.457872 
L 813.42351 322.252416 
L 814.619284 326.173701 
L 815.781369 319.49713 
L 816.911613 312.341093 
L 818.011713 321.376074 
L 819.083235 315.000895 
L 820.127628 317.184078 
L 821.146231 395.666571 
L 822.140286 352.447665 
L 824.986332 326.429007 
L 825.892991 343.250653 
L 826.78015 338.479828 
L 827.648631 344.265849 
L 828.499203 327.22966 
L 829.332591 313.328766 
L 830.149475 323.924427 
L 830.950497 308.17063 
L 831.73626 301.61036 
L 832.507335 290.016167 
L 833.264261 285.698321 
L 834.007548 283.443521 
L 834.737678 282.819793 
L 835.45511 286.618105 
L 836.160278 289.119132 
L 836.853594 292.884944 
L 837.535449 287.836481 
L 838.206217 287.148377 
L 839.515892 297.011691 
L 840.15546 292.563169 
L 840.785263 296.571999 
L 841.405595 292.272053 
L 842.016737 286.853433 
L 843.212511 297.361403 
L 843.797645 297.882075 
L 844.374596 295.573671 
L 844.943589 296.154822 
L 845.50484 295.014064 
L 846.058557 299.823124 
L 846.60494 297.2309 
L 847.14418 296.508315 
L 848.201964 303.335699 
L 848.720855 302.201546 
L 849.2333 300.437163 
L 849.739458 296.19119 
L 850.23948 299.923266 
L 850.733513 304.575384 
L 851.2217 304.635765 
L 852.181076 324.131679 
L 852.652525 327.698526 
L 853.118646 328.229723 
L 853.579559 335.58205 
L 854.035379 352.909757 
L 854.486218 351.599479 
L 854.932182 347.6293 
L 855.373377 370.830149 
L 855.809903 433.076298 
L 856.669336 330.887751 
L 857.09243 316.434847 
L 857.511229 317.037879 
L 857.925818 313.616265 
L 861.857488 323.026093 
L 865.446821 313.231586 
L 868.748687 326.557262 
L 871.805738 322.407065 
L 874.651784 298.457253 
L 877.314082 310.831303 
L 879.814927 325.469779 
L 882.172786 302.912115 
L 884.40313 303.40146 
L 886.519045 299.353607 
L 888.531703 303.709739 
L 890.450715 295.793228 
L 892.284408 301.632465 
L 894.040048 303.54821 
L 895.724008 313.468146 
L 897.341914 331.036472 
L 898.898752 330.802659 
L 900.398965 331.912719 
L 901.846527 320.443138 
L 903.245011 318.014038 
L 904.597634 315.249816 
L 905.907309 316.825228 
L 907.17668 317.736228 
L 908.408154 325.010955 
L 909.603928 323.494516 
L 910.766013 321.46871 
L 911.896257 332.788915 
L 912.996357 326.080845 
L 914.06788 324.517178 
L 915.112272 314.763696 
L 916.130875 314.917817 
L 917.12493 313.161741 
L 918.095594 318.250846 
L 919.043942 318.470797 
L 919.970976 331.983231 
L 920.877635 333.001596 
L 921.764794 346.263188 
L 922.633275 394.731776 
L 923.483847 355.799798 
L 924.317235 377.915702 
L 925.13412 345.943538 
L 925.935141 351.923913 
L 926.720904 355.527635 
L 927.491979 362.247996 
L 928.248905 453.615604 
L 928.992192 399.697379 
L 929.722322 369.994429 
L 930.439754 354.979693 
L 931.144922 352.261108 
L 931.838238 340.426732 
L 932.520093 342.496722 
L 933.190861 340.925785 
L 933.850896 345.236057 
L 934.500536 338.177 
L 935.140104 326.119223 
L 935.769907 322.901553 
L 936.390239 323.03971 
L 937.001381 326.138627 
L 937.603601 322.950029 
L 938.197155 318.34351 
L 938.78229 320.877055 
L 939.35924 322.691131 
L 939.928233 322.670749 
L 940.489484 319.459105 
L 941.589584 320.177336 
L 942.128824 323.207897 
L 942.661107 321.495186 
L 943.186608 327.120136 
L 943.705499 326.130135 
L 944.217944 327.904038 
L 945.224124 330.613128 
L 946.206344 335.595474 
L 946.688821 350.892405 
L 947.16572 348.938099 
L 947.637169 343.120076 
L 948.10329 340.188989 
L 948.564203 343.6616 
L 949.020024 342.208263 
L 949.470862 344.339962 
L 949.916826 348.335091 
L 950.358021 355.565029 
L 950.794547 366.914025 
L 951.226502 362.884484 
L 951.65398 367.616307 
L 952.077074 384.927806 
L 952.495873 378.023495 
L 952.910462 360.954504 
L 960.431465 338.702607 
L 963.733331 332.768192 
L 966.790382 326.879845 
L 969.636428 334.654386 
L 972.298726 332.99236 
L 974.799571 330.464859 
L 977.15743 322.715237 
L 979.387774 331.358871 
L 981.503689 324.312029 
L 983.516347 327.659622 
L 985.435359 331.645539 
L 987.269052 344.226957 
L 989.024692 348.972216 
L 990.708652 351.08737 
L 992.326558 351.446839 
L 993.883396 353.872768 
L 995.383609 351.848341 
L 996.831172 345.721702 
L 998.229655 348.18806 
L 999.582278 351.564448 
L 1000.891953 350.888569 
L 1002.161324 345.635505 
L 1003.392798 352.290755 
L 1004.588572 366.746068 
L 1005.750657 366.782282 
L 1006.880901 382.41528 
L 1007.981001 409.797698 
L 1009.052524 446.505671 
L 1010.096916 418.122165 
L 1011.115519 393.988967 
L 1012.109574 497.304153 
L 1013.080238 384.626299 
L 1014.028586 385.506156 
L 1014.955621 387.078052 
L 1015.862279 402.955353 
L 1016.749438 362.709365 
L 1017.617919 361.853801 
L 1018.468491 365.421628 
L 1019.301879 372.777639 
L 1020.118764 391.233802 
L 1020.919785 393.581253 
L 1021.705548 406.043009 
L 1022.476623 444.691022 
L 1023.976836 390.764772 
L 1025.424399 417.753376 
L 1026.129566 440.916314 
L 1026.822882 431.490205 
L 1027.504737 412.468669 
L 1028.175505 384.61808 
L 1028.83554 395.174347 
L 1029.48518 433.625724 
L 1030.124748 416.203949 
L 1030.754551 393.597807 
L 1031.374884 389.800844 
L 1031.986025 392.360716 
L 1032.588245 390.081271 
L 1033.181799 392.173835 
L 1033.766934 425.924422 
L 1034.343884 407.602427 
L 1034.912877 405.13123 
L 1035.474128 394.866757 
L 1036.027845 388.45014 
L 1036.574228 387.722194 
L 1037.113468 384.858123 
L 1037.645751 375.94631 
L 1038.171252 384.092231 
L 1038.690143 394.756965 
L 1039.202589 402.371066 
L 1039.708746 403.364163 
L 1040.208768 427.462711 
L 1040.702801 416.39953 
L 1041.190988 409.068871 
L 1041.673465 408.308374 
L 1042.150364 515.853581 
L 1042.621813 438.417487 
L 1043.087934 425.951641 
L 1043.548848 402.582216 
L 1044.004668 398.206131 
L 1044.455506 403.960766 
L 1044.901471 398.158914 
L 1045.342665 406.919696 
L 1045.779191 407.936466 
L 1046.211146 416.487151 
L 1046.638624 410.565719 
L 1047.061718 435.204836 
L 1047.480517 436.618945 
L 1047.480517 436.618945 
" clip-path="url(#p3902747644)" style="fill: none; stroke: #000000; stroke-width: 1.5; stroke-linecap: square"/>
   </g>
   <g id="line2d_15">
    <path d="M 98.048665 59.974523 
L 101.980334 70.712881 
L 105.569667 84.297275 
L 108.871534 104.783091 
L 111.928584 167.140452 
L 114.774631 117.188497 
L 117.436929 96.724288 
L 119.937774 86.032066 
L 122.295633 79.013747 
L 124.525977 73.915948 
L 126.641892 69.989166 
L 128.65455 66.844663 
L 130.573561 64.255603 
L 132.407255 62.078594 
L 134.162894 60.217559 
L 137.464761 57.192737 
L 140.521811 54.830372 
L 141.969374 141.472546 
L 143.367858 117.188497 
L 144.720481 104.866236 
L 146.030156 96.724288 
L 147.299527 90.72669 
L 148.531001 86.032066 
L 149.726775 82.210751 
L 150.88886 79.013747 
L 153.119204 73.915948 
L 155.235119 69.989166 
L 157.247777 66.844663 
L 159.166788 64.255603 
L 161.000482 62.078594 
L 163.606694 59.383696 
L 166.057988 57.192737 
L 169.115038 54.830372 
L 171.961085 52.928434 
L 175.262951 51.01118 
L 178.905136 49.188718 
L 180.05108 48.669207 
L 180.612331 59.118341 
L 181.712431 58.114186 
L 182.251671 72.8436 
L 183.828346 69.989166 
L 185.841004 66.844663 
L 187.760015 64.255603 
L 189.593709 62.078594 
L 190.039673 75.784133 
L 191.349348 73.0527 
L 191.776827 94.541252 
L 193.033309 89.043527 
L 196.964979 101.028803 
L 200.554312 84.864375 
L 203.856178 146.236546 
L 206.913229 103.810911 
L 209.759275 89.043527 
L 212.421573 96.724288 
L 214.922418 86.032066 
L 217.280277 117.188497 
L 219.510621 126.073675 
L 221.626536 167.432342 
L 223.639194 167.140452 
L 225.558206 137.295217 
L 227.391899 153.638977 
L 229.147539 117.188497 
L 230.831499 150.220288 
L 232.449405 132.674894 
L 234.006243 188.710581 
L 235.506456 167.140452 
L 236.954018 141.472546 
L 238.352502 167.432342 
L 239.705125 126.120258 
L 241.0148 138.107773 
L 242.284171 157.169845 
L 243.515645 127.618547 
L 244.711419 103.778479 
L 245.873504 91.479182 
L 247.003748 89.976448 
L 248.103848 82.355881 
L 249.17537 81.50203 
L 250.219763 86.270854 
L 251.238366 91.678727 
L 253.203085 89.113777 
L 254.151433 94.607348 
L 255.078467 93.157635 
L 255.985126 86.005657 
L 256.872285 90.624584 
L 257.740766 95.873604 
L 258.591338 94.456041 
L 259.424726 100.163653 
L 261.042632 96.99017 
L 261.828395 95.606194 
L 262.59947 101.058288 
L 263.356396 107.509966 
L 264.099683 97.982815 
L 264.829813 103.554168 
L 266.252413 100.298345 
L 266.945729 93.157635 
L 267.627584 97.555544 
L 268.298352 96.3366 
L 268.958387 101.058288 
L 270.877398 97.197901 
L 271.49773 96.086904 
L 272.711091 105.306347 
L 273.304646 111.035869 
L 273.88978 117.961902 
L 274.466731 126.792917 
L 275.035724 123.398851 
L 275.596975 133.973042 
L 276.150692 129.701973 
L 276.697075 142.957512 
L 277.236315 137.295217 
L 277.768597 155.22741 
L 278.294099 147.002008 
L 278.81299 140.750432 
L 279.325435 160.792667 
L 279.831593 269.155693 
L 280.331615 127.984119 
L 280.825648 138.889159 
L 281.313835 156.042794 
L 281.796312 130.568951 
L 282.273211 142.177261 
L 283.210781 133.207509 
L 283.671694 145.625358 
L 284.127514 167.140452 
L 284.578353 239.589531 
L 285.024317 163.361067 
L 285.465512 177.713476 
L 285.902038 151.417521 
L 286.333993 160.003749 
L 286.761471 171.961149 
L 287.184565 149.476869 
L 287.603364 137.192019 
L 288.017953 128.748065 
L 291.949623 130.754332 
L 295.538956 158.863872 
L 298.840822 132.674894 
L 301.897873 320.095864 
L 304.743919 136.905003 
L 307.406217 130.112282 
L 309.907062 131.371931 
L 312.264921 117.188497 
L 314.495265 122.695838 
L 318.623838 124.948227 
L 320.54285 136.479754 
L 322.376543 131.672037 
L 324.132183 145.011252 
L 328.990887 146.798256 
L 330.4911 187.608687 
L 331.938663 147.833643 
L 333.337146 148.311953 
L 334.689769 137.519534 
L 335.999444 138.107773 
L 337.268815 121.880121 
L 338.500289 131.371931 
L 339.696063 128.748065 
L 340.858148 140.23081 
L 341.988392 140.711098 
L 343.088492 137.154091 
L 344.160015 151.734502 
L 345.204407 134.639977 
L 346.22301 167.432342 
L 347.217065 179.222159 
L 348.187729 152.883716 
L 349.136077 196.921562 
L 350.063111 167.432342 
L 350.96977 159.720336 
L 351.856929 148.913334 
L 352.72541 145.011252 
L 353.575982 141.706537 
L 354.40937 133.361561 
L 355.226255 131.371931 
L 356.027276 125.641201 
L 357.584114 126.471251 
L 358.34104 123.450205 
L 359.084327 125.509996 
L 359.814457 122.695838 
L 360.53189 124.642898 
L 361.237057 128.388946 
L 361.930373 148.311953 
L 362.612228 152.235193 
L 363.282996 184.913448 
L 363.943031 229.492849 
L 364.592671 228.565683 
L 365.232239 239.565613 
L 365.862042 196.921562 
L 366.482374 220.398412 
L 367.093516 174.131643 
L 367.695736 182.574134 
L 368.28929 182.291193 
L 368.874425 167.432342 
L 369.451375 173.715786 
L 370.020368 192.380515 
L 370.581619 181.259682 
L 371.135336 162.463751 
L 371.681719 158.32938 
L 372.220959 158.430968 
L 372.753242 162.639859 
L 373.278743 151.888222 
L 373.797634 152.03889 
L 374.310079 155.311358 
L 374.816237 195.945557 
L 375.316259 197.256916 
L 375.810292 199.472879 
L 376.298479 159.168227 
L 376.780956 167.432342 
L 377.257855 186.619236 
L 377.729304 228.871403 
L 378.195425 212.599241 
L 378.656338 247.814786 
L 379.112159 239.565613 
L 379.562997 210.719523 
L 380.008961 249.159639 
L 380.450156 255.270253 
L 380.886682 193.370423 
L 381.318637 192.936112 
L 381.746115 171.961149 
L 382.588008 157.169845 
L 383.002597 149.745575 
L 386.934267 163.953992 
L 390.5236 193.40073 
L 393.825466 215.325609 
L 396.882517 232.3981 
L 399.728563 191.342817 
L 402.390861 189.106389 
L 404.891706 165.134419 
L 407.249565 146.07014 
L 409.479909 147.946214 
L 411.595824 163.628121 
L 413.608482 156.318704 
L 415.527494 143.627135 
L 417.361187 152.562469 
L 419.116827 154.099634 
L 420.800788 147.21416 
L 422.418693 132.229669 
L 423.975531 129.548693 
L 425.475744 127.996487 
L 426.923307 131.042322 
L 428.32179 138.354453 
L 429.674413 136.154774 
L 430.984088 136.321885 
L 432.253459 134.442604 
L 433.484933 133.881136 
L 434.680707 131.966583 
L 435.842792 132.879284 
L 436.973036 130.5306 
L 438.073136 129.314642 
L 439.144659 130.436463 
L 440.189051 130.393028 
L 441.207654 133.239813 
L 442.201709 136.570353 
L 443.172373 139.066023 
L 444.120721 137.119997 
L 445.047756 136.592543 
L 445.954414 139.925924 
L 446.841573 142.049224 
L 447.710054 141.35384 
L 448.560626 137.88307 
L 449.394015 143.080922 
L 450.210899 139.514087 
L 451.01192 139.264291 
L 451.797683 139.605822 
L 452.568758 138.520085 
L 453.325684 138.580551 
L 454.068971 138.107773 
L 454.799102 140.887514 
L 455.516534 136.501597 
L 456.221701 135.884913 
L 456.915017 136.437571 
L 457.596872 138.411367 
L 458.26764 135.064734 
L 458.927675 137.130275 
L 459.577315 136.539178 
L 460.216883 135.767722 
L 461.467019 138.273221 
L 462.07816 142.049224 
L 462.68038 141.323982 
L 463.273934 142.782374 
L 463.859069 140.6559 
L 464.436019 140.899377 
L 465.005012 147.649034 
L 465.566263 144.675998 
L 466.11998 144.886754 
L 466.666363 142.952221 
L 467.205603 142.269433 
L 467.737886 142.049224 
L 468.263387 140.999435 
L 468.782278 141.629989 
L 469.294724 144.213689 
L 469.800881 145.317175 
L 470.300903 145.275519 
L 470.794936 145.916474 
L 471.283123 144.322306 
L 471.7656 144.083309 
L 472.242499 146.444461 
L 472.713948 146.390566 
L 473.180069 144.216214 
L 474.096803 142.801419 
L 474.993606 148.311953 
L 475.4348 148.237653 
L 475.871326 148.831891 
L 476.303281 152.03889 
L 477.153853 151.31733 
L 477.987242 155.589893 
L 481.918911 186.668797 
L 485.508244 167.773177 
L 488.81011 207.128983 
L 491.867161 238.535269 
L 494.713207 182.813964 
L 497.375505 222.847091 
L 499.87635 219.671079 
L 502.23421 198.987959 
L 504.464553 185.591314 
L 506.580469 211.309101 
L 508.593127 204.595825 
L 510.512138 220.004421 
L 512.345831 227.486321 
L 514.101471 247.814786 
L 515.785432 230.073552 
L 517.403337 187.513115 
L 518.960175 188.952547 
L 520.460388 187.312389 
L 521.907951 187.502312 
L 523.306434 183.374863 
L 524.659057 182.522207 
L 525.968732 182.37747 
L 528.469577 172.987638 
L 529.665351 172.288051 
L 530.827437 172.979587 
L 531.95768 166.132527 
L 534.129303 177.616944 
L 535.173696 178.513146 
L 536.192298 186.691904 
L 537.186354 180.104576 
L 538.157017 183.638744 
L 539.105365 182.242162 
L 540.0324 185.65911 
L 540.939058 178.088267 
L 541.826217 177.34996 
L 542.694698 182.306516 
L 543.545271 179.447386 
L 544.378659 178.813012 
L 545.195543 176.969931 
L 546.782327 175.863526 
L 547.553402 176.00653 
L 548.310328 174.969915 
L 549.783746 181.043969 
L 550.501178 180.992798 
L 551.206346 179.131515 
L 551.899661 177.631779 
L 552.581516 180.013676 
L 553.252284 180.391668 
L 553.912319 180.255065 
L 554.56196 177.041065 
L 555.201527 180.093032 
L 555.831331 177.509282 
L 556.451663 183.41704 
L 557.062804 184.822427 
L 557.665024 188.123464 
L 558.258578 186.570764 
L 558.843713 191.233368 
L 559.420664 185.133351 
L 559.989656 183.04792 
L 560.550907 185.533195 
L 561.104624 184.921559 
L 561.651007 185.414411 
L 562.190248 186.40738 
L 562.72253 188.360971 
L 563.248031 192.042487 
L 563.766923 190.549842 
L 564.279368 190.029477 
L 564.785525 187.474929 
L 565.285547 186.10229 
L 565.779581 180.104576 
L 566.267767 179.277736 
L 566.750244 176.354951 
L 567.227143 176.248582 
L 567.698592 179.102181 
L 568.164714 179.229188 
L 569.081447 176.822842 
L 569.532285 178.024433 
L 570.419444 182.912947 
L 571.287925 185.685651 
L 571.715404 185.207568 
L 572.971886 177.922591 
L 576.903555 183.958311 
L 580.492888 181.385887 
L 583.794754 188.082679 
L 586.851805 188.855306 
L 589.697851 197.469462 
L 592.36015 193.338375 
L 594.860995 197.90559 
L 597.218854 206.341778 
L 599.449197 204.862983 
L 601.565113 195.903024 
L 603.577771 199.818108 
L 605.496782 201.524971 
L 607.330475 208.512872 
L 609.086115 209.894564 
L 610.770076 203.936951 
L 612.387982 207.038083 
L 613.944819 207.644242 
L 615.445032 207.512614 
L 616.892595 214.090717 
L 618.291078 218.593666 
L 619.643701 223.554533 
L 620.953377 223.312574 
L 622.222748 217.009483 
L 623.454222 216.734727 
L 625.812081 226.652082 
L 626.942324 220.061157 
L 628.042424 224.219283 
L 629.113947 224.14693 
L 630.15834 230.431085 
L 631.176942 234.383547 
L 632.170998 241.606427 
L 633.141662 243.322063 
L 635.017044 317.195102 
L 635.923703 265.149627 
L 636.810862 264.732157 
L 637.679342 280.041824 
L 638.529915 278.988352 
L 639.363303 298.8637 
L 640.180187 266.754543 
L 640.981209 378.638071 
L 641.766971 328.276525 
L 642.538046 253.929031 
L 643.294972 268.026369 
L 644.038259 286.685132 
L 644.76839 325.824551 
L 645.485822 281.366626 
L 646.19099 283.318247 
L 646.884305 264.532161 
L 647.566161 258.710403 
L 648.236928 256.907482 
L 648.896963 261.399909 
L 649.546604 251.570827 
L 650.186172 256.282725 
L 650.815975 263.900432 
L 651.436307 264.848462 
L 652.047449 263.219324 
L 652.649668 245.266249 
L 653.828357 237.032354 
L 654.405308 234.469804 
L 654.9743 231.352369 
L 655.535551 230.791318 
L 656.089268 232.484767 
L 656.635651 232.556686 
L 657.174892 227.512016 
L 657.707174 229.265923 
L 658.232676 225.242279 
L 658.751567 231.120535 
L 659.264012 231.292759 
L 659.770169 229.35791 
L 660.270191 226.888365 
L 660.764225 229.380061 
L 661.252412 229.801938 
L 661.734889 231.667633 
L 662.211788 236.070737 
L 662.683236 228.757948 
L 663.149358 228.207906 
L 663.610271 223.681461 
L 664.066091 221.776307 
L 664.51693 222.325479 
L 664.962894 228.259063 
L 665.404089 225.504577 
L 665.840614 225.551156 
L 666.272569 226.794259 
L 666.700048 229.07429 
L 667.54194 224.430453 
L 667.95653 224.395929 
L 671.888199 230.663615 
L 675.477532 234.435348 
L 678.779399 238.171249 
L 681.836449 234.568477 
L 684.682495 224.581422 
L 687.344794 240.537722 
L 689.845639 282.984702 
L 692.203498 284.289121 
L 694.433841 262.740074 
L 696.549757 262.010854 
L 698.562415 248.19242 
L 700.481426 244.28861 
L 702.31512 242.454227 
L 704.070759 235.937221 
L 705.75472 235.897348 
L 707.372626 236.485076 
L 708.929464 243.570693 
L 710.429676 246.605489 
L 711.877239 242.003137 
L 713.275722 237.938267 
L 714.628346 243.684019 
L 715.938021 235.433814 
L 717.207392 240.382509 
L 718.438866 243.5386 
L 720.796725 237.946043 
L 723.027068 230.520813 
L 724.098591 226.136874 
L 725.142984 228.489898 
L 726.161586 227.294363 
L 727.155642 230.976151 
L 728.126306 229.344739 
L 729.074653 228.321435 
L 730.001688 228.678323 
L 730.908347 230.93292 
L 731.795506 235.700109 
L 732.663986 236.082677 
L 733.514559 238.399526 
L 734.347947 239.083325 
L 735.164831 238.694447 
L 735.965853 242.337268 
L 736.751616 241.444383 
L 737.522691 240.000457 
L 738.279616 245.779244 
L 739.022903 244.649345 
L 739.753034 246.039027 
L 740.470466 249.895333 
L 741.175634 258.921831 
L 742.550805 250.230716 
L 743.221573 250.378499 
L 743.881608 257.287582 
L 744.531248 252.125201 
L 745.170816 251.581972 
L 745.800619 254.325626 
L 747.032093 241.058407 
L 747.634312 243.125928 
L 748.227866 241.423381 
L 748.813001 242.351543 
L 749.389952 244.771024 
L 749.958945 246.250953 
L 750.520195 244.315037 
L 751.073913 244.650466 
L 751.620296 243.485181 
L 752.159536 239.993951 
L 753.21732 238.235425 
L 753.736211 241.517512 
L 754.248656 240.714299 
L 754.754813 241.485978 
L 755.254835 241.844742 
L 755.748869 240.336395 
L 756.719533 243.357136 
L 757.196432 242.513706 
L 757.66788 242.570869 
L 758.134002 241.119523 
L 758.594915 240.687684 
L 759.050735 237.796449 
L 759.501574 237.234672 
L 759.947538 235.908568 
L 760.388733 233.562854 
L 760.825259 234.91672 
L 761.257213 235.590189 
L 761.684692 234.969569 
L 762.107786 236.567717 
L 762.526585 236.550985 
L 762.941174 237.750729 
L 766.872843 242.881175 
L 770.462177 241.377055 
L 773.764043 238.410987 
L 776.821093 237.244712 
L 779.66714 234.365184 
L 782.329438 233.263653 
L 784.830283 233.42384 
L 787.188142 234.462909 
L 791.534401 231.776378 
L 795.466071 231.249778 
L 797.299764 230.194409 
L 799.055404 230.853121 
L 800.739364 230.673771 
L 802.35727 231.455483 
L 803.914108 231.344512 
L 805.414321 230.45069 
L 806.861883 230.750032 
L 808.260367 229.930741 
L 809.61299 230.183301 
L 810.922665 231.9344 
L 812.192036 231.600684 
L 813.42351 232.064475 
L 814.619284 231.903186 
L 815.781369 232.192271 
L 816.911613 232.590745 
L 818.011713 232.103747 
L 819.083235 232.430346 
L 820.127628 232.309874 
L 821.146231 230.721167 
L 822.140286 231.249778 
L 824.059298 231.597563 
L 824.986332 231.893454 
L 825.892991 231.413565 
L 826.78015 231.521932 
L 827.648631 231.392771 
L 828.499203 231.863504 
L 829.332591 232.529349 
L 830.149475 231.992907 
L 830.950497 232.876134 
L 831.73626 233.425213 
L 832.507335 234.805015 
L 833.264261 235.502531 
L 834.007548 235.918313 
L 834.737678 236.040304 
L 835.45511 235.34361 
L 836.160278 234.940156 
L 836.853594 234.403684 
L 837.535449 235.142 
L 838.206217 235.254645 
L 839.515892 233.899916 
L 840.15546 234.446475 
L 840.785263 233.949839 
L 841.405595 234.485657 
L 842.016737 235.303893 
L 843.212511 233.860809 
L 843.797645 233.80355 
L 844.374596 234.066383 
L 844.943589 233.997994 
L 845.50484 234.133709 
L 846.058557 233.599878 
L 846.60494 233.875342 
L 847.14418 233.95714 
L 848.201964 233.267452 
L 849.2333 233.538526 
L 849.739458 233.993765 
L 850.733513 233.160267 
L 851.2217 233.155173 
L 851.704177 232.454092 
L 852.181076 231.984332 
L 852.652525 231.84636 
L 853.118646 231.827283 
L 853.579559 231.597279 
L 854.035379 231.242865 
L 854.486218 230.378446 
L 854.932182 230.314381 
L 855.373377 231.045376 
L 856.241858 230.64209 
L 857.09243 229.361542 
L 857.511229 229.390876 
L 857.925818 229.216456 
L 861.857488 229.652543 
L 865.446821 229.195594 
L 868.748687 229.784152 
L 871.805738 229.627836 
L 874.651784 228.161778 
L 877.314082 229.05933 
L 879.814927 229.745258 
L 882.172786 228.526549 
L 884.40313 228.563553 
L 886.519045 228.239374 
L 888.531703 228.586569 
L 890.450715 227.917789 
L 892.284408 228.427005 
L 894.040048 228.574537 
L 897.341914 229.930243 
L 900.398965 229.956345 
L 901.846527 229.546003 
L 904.597634 229.302174 
L 907.17668 229.424126 
L 908.408154 229.728421 
L 910.766013 229.589401 
L 911.896257 229.981689 
L 912.996357 229.767287 
L 914.06788 229.71001 
L 915.112272 229.277144 
L 917.12493 229.191778 
L 918.095594 229.448143 
L 919.043942 229.458284 
L 919.970976 229.958412 
L 920.877635 229.987729 
L 921.764794 230.290259 
L 922.633275 230.91677 
L 923.483847 231.202083 
L 924.317235 230.995609 
L 925.13412 231.36 
L 927.491979 231.124697 
L 928.248905 230.804273 
L 929.722322 231.052099 
L 930.439754 231.213238 
L 931.144922 231.252601 
L 931.838238 231.475488 
L 933.850896 231.373583 
L 934.500536 231.529448 
L 935.140104 231.905275 
L 935.769907 232.036175 
L 936.390239 232.030237 
L 937.001381 231.90453 
L 938.197155 232.249688 
L 939.35924 232.045276 
L 939.928233 232.046161 
L 940.489484 232.194125 
L 941.589584 232.159526 
L 942.128824 232.023049 
L 942.661107 232.098336 
L 943.186608 231.86755 
L 944.217944 231.838936 
L 946.206344 231.596912 
L 946.688821 231.273887 
L 947.637169 231.416294 
L 948.10329 231.48099 
L 949.020024 231.435706 
L 950.358021 231.205243 
L 950.794547 231.07864 
L 951.65398 231.072336 
L 952.077074 230.957079 
L 956.842132 231.29857 
L 966.790382 231.876483 
L 969.636428 231.623086 
L 974.799571 231.750871 
L 977.15743 232.04423 
L 979.387774 231.721977 
L 981.503689 231.976923 
L 985.435359 231.712906 
L 987.269052 231.393554 
L 990.708652 231.270792 
L 995.383609 231.258913 
L 996.831172 231.364222 
L 1000.891953 231.273948 
L 1002.161324 231.365872 
L 1009.052524 230.800663 
L 1011.115519 230.919367 
L 1014.028586 230.680789 
L 1015.862279 230.742554 
L 1016.749438 230.517777 
L 1018.468491 230.544479 
L 1022.476623 230.79959 
L 1025.424399 230.772455 
L 1032.588245 230.934188 
L 1037.113468 230.957418 
L 1038.171252 230.961193 
L 1040.208768 230.849254 
L 1044.901471 230.90562 
L 1047.895106 230.817221 
L 1047.895106 230.817221 
" clip-path="url(#p3902747644)" style="fill: none; stroke: #8b0000; stroke-width: 1.5; stroke-linecap: square"/>
   </g>
   <g id="patch_3">
    <path d="M 50.556343 539.2128 
L 50.556343 25.309989 
" style="fill: none; stroke: #000000; stroke-width: 0.8; stroke-linejoin: miter; stroke-linecap: square"/>
   </g>
   <g id="patch_4">
    <path d="M 1095.387429 539.2128 
L 1095.387429 25.309989 
" style="fill: none; stroke: #000000; stroke-width: 0.8; stroke-linejoin: miter; stroke-linecap: square"/>
   </g>
   <g id="patch_5">
    <path d="M 50.556343 539.2128 
L 1095.387429 539.2128 
" style="fill: none; stroke: #000000; stroke-width: 0.8; stroke-linejoin: miter; stroke-linecap: square"/>
   </g>
   <g id="patch_6">
    <path d="M 50.556343 25.309989 
L 1095.387429 25.309989 
" style="fill: none; stroke: #000000; stroke-width: 0.8; stroke-linejoin: miter; stroke-linecap: square"/>
   </g>
   <g id="text_16">
    <!-- Convergence of the proportion of games that have ended with 0 cards left in the hand to 7.06314e-03 -->
    <g transform="translate(265.199073 19.309989) scale(0.12 -0.12)">
     <defs>
      <path id="DejaVuSans-43" d="M 4122 4306 
L 4122 3641 
Q 3803 3938 3442 4084 
Q 3081 4231 2675 4231 
Q 1875 4231 1450 3742 
Q 1025 3253 1025 2328 
Q 1025 1406 1450 917 
Q 1875 428 2675 428 
Q 3081 428 3442 575 
Q 3803 722 4122 1019 
L 4122 359 
Q 3791 134 3420 21 
Q 3050 -91 2638 -91 
Q 1578 -91 968 557 
Q 359 1206 359 2328 
Q 359 3453 968 4101 
Q 1578 4750 2638 4750 
Q 3056 4750 3426 4639 
Q 3797 4528 4122 4306 
z
" transform="scale(0.015625)"/>
      <path id="DejaVuSans-76" d="M 191 3500 
L 800 3500 
L 1894 563 
L 2988 3500 
L 3597 3500 
L 2284 0 
L 1503 0 
L 191 3500 
z
" transform="scale(0.015625)"/>
      <path id="DejaVuSans-63" d="M 3122 3366 
L 3122 2828 
Q 2878 2963 2633 3030 
Q 2388 3097 2138 3097 
Q 1578 3097 1268 2742 
Q 959 2388 959 1747 
Q 959 1106 1268 751 
Q 1578 397 2138 397 
Q 2388 397 2633 464 
Q 2878 531 3122 666 
L 3122 134 
Q 2881 22 2623 -34 
Q 2366 -91 2075 -91 
Q 1284 -91 818 406 
Q 353 903 353 1747 
Q 353 2603 823 3093 
Q 1294 3584 2113 3584 
Q 2378 3584 2631 3529 
Q 2884 3475 3122 3366 
z
" transform="scale(0.015625)"/>
      <path id="DejaVuSans-68" d="M 3513 2113 
L 3513 0 
L 2938 0 
L 2938 2094 
Q 2938 2591 2744 2837 
Q 2550 3084 2163 3084 
Q 1697 3084 1428 2787 
Q 1159 2491 1159 1978 
L 1159 0 
L 581 0 
L 581 4863 
L 1159 4863 
L 1159 2956 
Q 1366 3272 1645 3428 
Q 1925 3584 2291 3584 
Q 2894 3584 3203 3211 
Q 3513 2838 3513 2113 
z
" transform="scale(0.015625)"/>
      <path id="DejaVuSans-64" d="M 2906 2969 
L 2906 4863 
L 3481 4863 
L 3481 0 
L 2906 0 
L 2906 525 
Q 2725 213 2448 61 
Q 2172 -91 1784 -91 
Q 1150 -91 751 415 
Q 353 922 353 1747 
Q 353 2572 751 3078 
Q 1150 3584 1784 3584 
Q 2172 3584 2448 3432 
Q 2725 3281 2906 2969 
z
M 947 1747 
Q 947 1113 1208 752 
Q 1469 391 1925 391 
Q 2381 391 2643 752 
Q 2906 1113 2906 1747 
Q 2906 2381 2643 2742 
Q 2381 3103 1925 3103 
Q 1469 3103 1208 2742 
Q 947 2381 947 1747 
z
" transform="scale(0.015625)"/>
      <path id="DejaVuSans-77" d="M 269 3500 
L 844 3500 
L 1563 769 
L 2278 3500 
L 2956 3500 
L 3675 769 
L 4391 3500 
L 4966 3500 
L 4050 0 
L 3372 0 
L 2619 2869 
L 1863 0 
L 1184 0 
L 269 3500 
z
" transform="scale(0.015625)"/>
      <path id="DejaVuSans-2e" d="M 684 794 
L 1344 794 
L 1344 0 
L 684 0 
L 684 794 
z
" transform="scale(0.015625)"/>
     </defs>
     <use xlink:href="#DejaVuSans-43"/>
     <use xlink:href="#DejaVuSans-6f" x="69.824219"/>
     <use xlink:href="#DejaVuSans-6e" x="131.005859"/>
     <use xlink:href="#DejaVuSans-76" x="194.384766"/>
     <use xlink:href="#DejaVuSans-65" x="253.564453"/>
     <use xlink:href="#DejaVuSans-72" x="315.087891"/>
     <use xlink:href="#DejaVuSans-67" x="354.451172"/>
     <use xlink:href="#DejaVuSans-65" x="417.927734"/>
     <use xlink:href="#DejaVuSans-6e" x="479.451172"/>
     <use xlink:href="#DejaVuSans-63" x="542.830078"/>
     <use xlink:href="#DejaVuSans-65" x="597.810547"/>
     <use xlink:href="#DejaVuSans-20" x="659.333984"/>
     <use xlink:href="#DejaVuSans-6f" x="691.121094"/>
     <use xlink:href="#DejaVuSans-66" x="752.302734"/>
     <use xlink:href="#DejaVuSans-20" x="787.507812"/>
     <use xlink:href="#DejaVuSans-74" x="819.294922"/>
     <use xlink:href="#DejaVuSans-68" x="858.503906"/>
     <use xlink:href="#DejaVuSans-65" x="921.882812"/>
     <use xlink:href="#DejaVuSans-20" x="983.40625"/>
     <use xlink:href="#DejaVuSans-70" x="1015.193359"/>
     <use xlink:href="#DejaVuSans-72" x="1078.669922"/>
     <use xlink:href="#DejaVuSans-6f" x="1117.533203"/>
     <use xlink:href="#DejaVuSans-70" x="1178.714844"/>
     <use xlink:href="#DejaVuSans-6f" x="1242.191406"/>
     <use xlink:href="#DejaVuSans-72" x="1303.373047"/>
     <use xlink:href="#DejaVuSans-74" x="1344.486328"/>
     <use xlink:href="#DejaVuSans-69" x="1383.695312"/>
     <use xlink:href="#DejaVuSans-6f" x="1411.478516"/>
     <use xlink:href="#DejaVuSans-6e" x="1472.660156"/>
     <use xlink:href="#DejaVuSans-20" x="1536.039062"/>
     <use xlink:href="#DejaVuSans-6f" x="1567.826172"/>
     <use xlink:href="#DejaVuSans-66" x="1629.007812"/>
     <use xlink:href="#DejaVuSans-20" x="1664.212891"/>
     <use xlink:href="#DejaVuSans-67" x="1696"/>
     <use xlink:href="#DejaVuSans-61" x="1759.476562"/>
     <use xlink:href="#DejaVuSans-6d" x="1820.755859"/>
     <use xlink:href="#DejaVuSans-65" x="1918.167969"/>
     <use xlink:href="#DejaVuSans-73" x="1979.691406"/>
     <use xlink:href="#DejaVuSans-20" x="2031.791016"/>
     <use xlink:href="#DejaVuSans-74" x="2063.578125"/>
     <use xlink:href="#DejaVuSans-68" x="2102.787109"/>
     <use xlink:href="#DejaVuSans-61" x="2166.166016"/>
     <use xlink:href="#DejaVuSans-74" x="2227.445312"/>
     <use xlink:href="#DejaVuSans-20" x="2266.654297"/>
     <use xlink:href="#DejaVuSans-68" x="2298.441406"/>
     <use xlink:href="#DejaVuSans-61" x="2361.820312"/>
     <use xlink:href="#DejaVuSans-76" x="2423.099609"/>
     <use xlink:href="#DejaVuSans-65" x="2482.279297"/>
     <use xlink:href="#DejaVuSans-20" x="2543.802734"/>
     <use xlink:href="#DejaVuSans-65" x="2575.589844"/>
     <use xlink:href="#DejaVuSans-6e" x="2637.113281"/>
     <use xlink:href="#DejaVuSans-64" x="2700.492188"/>
     <use xlink:href="#DejaVuSans-65" x="2763.96875"/>
     <use xlink:href="#DejaVuSans-64" x="2825.492188"/>
     <use xlink:href="#DejaVuSans-20" x="2888.96875"/>
     <use xlink:href="#DejaVuSans-77" x="2920.755859"/>
     <use xlink:href="#DejaVuSans-69" x="3002.542969"/>
     <use xlink:href="#DejaVuSans-74" x="3030.326172"/>
     <use xlink:href="#DejaVuSans-68" x="3069.535156"/>
     <use xlink:href="#DejaVuSans-20" x="3132.914062"/>
     <use xlink:href="#DejaVuSans-30" x="3164.701172"/>
     <use xlink:href="#DejaVuSans-20" x="3228.324219"/>
     <use xlink:href="#DejaVuSans-63" x="3260.111328"/>
     <use xlink:href="#DejaVuSans-61" x="3315.091797"/>
     <use xlink:href="#DejaVuSans-72" x="3376.371094"/>
     <use xlink:href="#DejaVuSans-64" x="3415.734375"/>
     <use xlink:href="#DejaVuSans-73" x="3479.210938"/>
     <use xlink:href="#DejaVuSans-20" x="3531.310547"/>
     <use xlink:href="#DejaVuSans-6c" x="3563.097656"/>
     <use xlink:href="#DejaVuSans-65" x="3590.880859"/>
     <use xlink:href="#DejaVuSans-66" x="3652.404297"/>
     <use xlink:href="#DejaVuSans-74" x="3685.859375"/>
     <use xlink:href="#DejaVuSans-20" x="3725.068359"/>
     <use xlink:href="#DejaVuSans-69" x="3756.855469"/>
     <use xlink:href="#DejaVuSans-6e" x="3784.638672"/>
     <use xlink:href="#DejaVuSans-20" x="3848.017578"/>
     <use xlink:href="#DejaVuSans-74" x="3879.804688"/>
     <use xlink:href="#DejaVuSans-68" x="3919.013672"/>
     <use xlink:href="#DejaVuSans-65" x="3982.392578"/>
     <use xlink:href="#DejaVuSans-20" x="4043.916016"/>
     <use xlink:href="#DejaVuSans-68" x="4075.703125"/>
     <use xlink:href="#DejaVuSans-61" x="4139.082031"/>
     <use xlink:href="#DejaVuSans-6e" x="4200.361328"/>
     <use xlink:href="#DejaVuSans-64" x="4263.740234"/>
     <use xlink:href="#DejaVuSans-20" x="4327.216797"/>
     <use xlink:href="#DejaVuSans-74" x="4359.003906"/>
     <use xlink:href="#DejaVuSans-6f" x="4398.212891"/>
     <use xlink:href="#DejaVuSans-20" x="4459.394531"/>
     <use xlink:href="#DejaVuSans-37" x="4491.181641"/>
     <use xlink:href="#DejaVuSans-2e" x="4554.804688"/>
     <use xlink:href="#DejaVuSans-30" x="4586.591797"/>
     <use xlink:href="#DejaVuSans-36" x="4650.214844"/>
     <use xlink:href="#DejaVuSans-33" x="4713.837891"/>
     <use xlink:href="#DejaVuSans-31" x="4777.460938"/>
     <use xlink:href="#DejaVuSans-34" x="4841.083984"/>
     <use xlink:href="#DejaVuSans-65" x="4904.707031"/>
     <use xlink:href="#DejaVuSans-2d" x="4966.230469"/>
     <use xlink:href="#DejaVuSans-30" x="5002.314453"/>
     <use xlink:href="#DejaVuSans-33" x="5065.9375"/>
    </g>
   </g>
   <g id="legend_1">
    <g id="patch_7">
     <path d="M 905.776491 62.666239 
L 1088.387429 62.666239 
Q 1090.387429 62.666239 1090.387429 60.666239 
L 1090.387429 32.309989 
Q 1090.387429 30.309989 1088.387429 30.309989 
L 905.776491 30.309989 
Q 903.776491 30.309989 903.776491 32.309989 
L 903.776491 60.666239 
Q 903.776491 62.666239 905.776491 62.666239 
z
" style="fill: #ffffff; opacity: 0.8; stroke: #cccccc; stroke-linejoin: miter"/>
    </g>
    <g id="line2d_16">
     <path d="M 907.776491 38.408426 
L 917.776491 38.408426 
L 927.776491 38.408426 
" style="fill: none; stroke: #000000; stroke-width: 1.5; stroke-linecap: square"/>
    </g>
    <g id="text_17">
     <!-- to 7.06314e-03 -->
     <g transform="translate(935.776491 41.908426) scale(0.1 -0.1)">
      <use xlink:href="#DejaVuSans-74"/>
      <use xlink:href="#DejaVuSans-6f" x="39.208984"/>
      <use xlink:href="#DejaVuSans-20" x="100.390625"/>
      <use xlink:href="#DejaVuSans-37" x="132.177734"/>
      <use xlink:href="#DejaVuSans-2e" x="195.800781"/>
      <use xlink:href="#DejaVuSans-30" x="227.587891"/>
      <use xlink:href="#DejaVuSans-36" x="291.210938"/>
      <use xlink:href="#DejaVuSans-33" x="354.833984"/>
      <use xlink:href="#DejaVuSans-31" x="418.457031"/>
      <use xlink:href="#DejaVuSans-34" x="482.080078"/>
      <use xlink:href="#DejaVuSans-65" x="545.703125"/>
      <use xlink:href="#DejaVuSans-2d" x="607.226562"/>
      <use xlink:href="#DejaVuSans-30" x="643.310547"/>
      <use xlink:href="#DejaVuSans-33" x="706.933594"/>
     </g>
    </g>
    <g id="line2d_17">
     <path d="M 907.776491 53.086551 
L 917.776491 53.086551 
L 927.776491 53.086551 
" style="fill: none; stroke: #8b0000; stroke-width: 1.5; stroke-linecap: square"/>
    </g>
    <g id="text_18">
     <!-- to 7.07107e-03 [1/100sqrt(2)] -->
     <g transform="translate(935.776491 56.586551) scale(0.1 -0.1)">
      <defs>
       <path id="DejaVuSans-5b" d="M 550 4863 
L 1875 4863 
L 1875 4416 
L 1125 4416 
L 1125 -397 
L 1875 -397 
L 1875 -844 
L 550 -844 
L 550 4863 
z
" transform="scale(0.015625)"/>
       <path id="DejaVuSans-2f" d="M 1625 4666 
L 2156 4666 
L 531 -594 
L 0 -594 
L 1625 4666 
z
" transform="scale(0.015625)"/>
       <path id="DejaVuSans-71" d="M 947 1747 
Q 947 1113 1208 752 
Q 1469 391 1925 391 
Q 2381 391 2643 752 
Q 2906 1113 2906 1747 
Q 2906 2381 2643 2742 
Q 2381 3103 1925 3103 
Q 1469 3103 1208 2742 
Q 947 2381 947 1747 
z
M 2906 525 
Q 2725 213 2448 61 
Q 2172 -91 1784 -91 
Q 1150 -91 751 415 
Q 353 922 353 1747 
Q 353 2572 751 3078 
Q 1150 3584 1784 3584 
Q 2172 3584 2448 3432 
Q 2725 3281 2906 2969 
L 2906 3500 
L 3481 3500 
L 3481 -1331 
L 2906 -1331 
L 2906 525 
z
" transform="scale(0.015625)"/>
       <path id="DejaVuSans-5d" d="M 1947 4863 
L 1947 -844 
L 622 -844 
L 622 -397 
L 1369 -397 
L 1369 4416 
L 622 4416 
L 622 4863 
L 1947 4863 
z
" transform="scale(0.015625)"/>
      </defs>
      <use xlink:href="#DejaVuSans-74"/>
      <use xlink:href="#DejaVuSans-6f" x="39.208984"/>
      <use xlink:href="#DejaVuSans-20" x="100.390625"/>
      <use xlink:href="#DejaVuSans-37" x="132.177734"/>
      <use xlink:href="#DejaVuSans-2e" x="195.800781"/>
      <use xlink:href="#DejaVuSans-30" x="227.587891"/>
      <use xlink:href="#DejaVuSans-37" x="291.210938"/>
      <use xlink:href="#DejaVuSans-31" x="354.833984"/>
      <use xlink:href="#DejaVuSans-30" x="418.457031"/>
      <use xlink:href="#DejaVuSans-37" x="482.080078"/>
      <use xlink:href="#DejaVuSans-65" x="545.703125"/>
      <use xlink:href="#DejaVuSans-2d" x="607.226562"/>
      <use xlink:href="#DejaVuSans-30" x="643.310547"/>
      <use xlink:href="#DejaVuSans-33" x="706.933594"/>
      <use xlink:href="#DejaVuSans-20" x="770.556641"/>
      <use xlink:href="#DejaVuSans-5b" x="802.34375"/>
      <use xlink:href="#DejaVuSans-31" x="841.357422"/>
      <use xlink:href="#DejaVuSans-2f" x="904.980469"/>
      <use xlink:href="#DejaVuSans-31" x="938.671875"/>
      <use xlink:href="#DejaVuSans-30" x="1002.294922"/>
      <use xlink:href="#DejaVuSans-30" x="1065.917969"/>
      <use xlink:href="#DejaVuSans-73" x="1129.541016"/>
      <use xlink:href="#DejaVuSans-71" x="1181.640625"/>
      <use xlink:href="#DejaVuSans-72" x="1245.117188"/>
      <use xlink:href="#DejaVuSans-74" x="1286.230469"/>
      <use xlink:href="#DejaVuSans-28" x="1325.439453"/>
      <use xlink:href="#DejaVuSans-32" x="1364.453125"/>
      <use xlink:href="#DejaVuSans-29" x="1428.076172"/>
      <use xlink:href="#DejaVuSans-5d" x="1467.089844"/>
     </g>
    </g>
   </g>
  </g>
 </g>
 <defs>
  <clipPath id="p3902747644">
   <rect x="50.556343" y="25.309989" width="1044.831086" height="513.902811"/>
  </clipPath>
 </defs>
</svg>
